<?xml version="1.0" encoding="UTF-8" standalone="yes"?><svg xmlns="http://www.w3.org/2000/svg" xmlns:xlink="http://www.w3.org/1999/xlink" height="262px" style="width:1143px;height:262px;" version="1.1" viewBox="0 0 1143 262" width="1143px"><defs><filter height="300%" id="f1" width="300%" x="-1" y="-1"><feGaussianBlur result="blurOut" stdDeviation="2.0"/><feColorMatrix in="blurOut" result="blurOut2" type="matrix" values="0 0 0 0 0 0 0 0 0 0 0 0 0 0 0 0 0 0 .4 0"/><feOffset dx="4.0" dy="4.0" in="blurOut2" result="blurOut3"/><feBlend in="SourceGraphic" in2="blurOut3" mode="normal"/></filter></defs><g><ellipse cx="573" cy="20" fill="#000000" filter="url(#f1)" rx="10" ry="10" style="stroke: none; stroke-width: 1.0;"/><rect fill="#FEFECE" filter="url(#f1)" height="34.1328" rx="12.5" ry="12.5" style="stroke: #A80036; stroke-width: 1.5;" width="213" x="466.5" y="50"/><text fill="#000000" font-family="sans-serif" font-size="12" lengthAdjust="spacingAndGlyphs" textLength="193" x="476.5" y="71.6016">Получить TransactionRequestDto</text><polygon fill="#FEFECE" filter="url(#f1)" points="28.5,104.1328,192.5,104.1328,204.5,116.1328,192.5,128.1328,28.5,128.1328,16.5,116.1328,28.5,104.1328" style="stroke: #A80036; stroke-width: 1.5;"/><text fill="#000000" font-family="sans-serif" font-size="11" lengthAdjust="spacingAndGlyphs" textLength="13" x="114.5" y="138.7676">да</text><text fill="#000000" font-family="sans-serif" font-size="11" lengthAdjust="spacingAndGlyphs" textLength="164" x="28.5" y="120.29">personType == null or empty?</text><rect fill="#FEFECE" filter="url(#f1)" height="34.1328" rx="12.5" ry="12.5" style="stroke: #A80036; stroke-width: 1.5;" width="201" x="10" y="161.0879"/><text fill="#000000" font-family="sans-serif" font-size="12" lengthAdjust="spacingAndGlyphs" textLength="181" x="20" y="182.6895">Выбросить ValidationException</text><polygon fill="#FEFECE" filter="url(#f1)" points="286.5,104.1328,376.5,104.1328,388.5,116.1328,376.5,128.1328,286.5,128.1328,274.5,116.1328,286.5,104.1328" style="stroke: #A80036; stroke-width: 1.5;"/><text fill="#000000" font-family="sans-serif" font-size="11" lengthAdjust="spacingAndGlyphs" textLength="13" x="335.5" y="138.7676">да</text><text fill="#000000" font-family="sans-serif" font-size="11" lengthAdjust="spacingAndGlyphs" textLength="90" x="286.5" y="120.29">amount == null?</text><rect fill="#FEFECE" filter="url(#f1)" height="34.1328" rx="12.5" ry="12.5" style="stroke: #A80036; stroke-width: 1.5;" width="201" x="231" y="161.0879"/><text fill="#000000" font-family="sans-serif" font-size="12" lengthAdjust="spacingAndGlyphs" textLength="181" x="241" y="182.6895">Выбросить ValidationException</text><polygon fill="#FEFECE" filter="url(#f1)" points="464,104.1328,675,104.1328,687,116.1328,675,128.1328,464,128.1328,452,116.1328,464,104.1328" style="stroke: #A80036; stroke-width: 1.5;"/><text fill="#000000" font-family="sans-serif" font-size="11" lengthAdjust="spacingAndGlyphs" textLength="13" x="573.5" y="138.7676">да</text><text fill="#000000" font-family="sans-serif" font-size="11" lengthAdjust="spacingAndGlyphs" textLength="211" x="464" y="120.29">receiverInn не соответствует формату?</text><rect fill="#FEFECE" filter="url(#f1)" height="34.1328" rx="12.5" ry="12.5" style="stroke: #A80036; stroke-width: 1.5;" width="201" x="469" y="161.0879"/><text fill="#000000" font-family="sans-serif" font-size="12" lengthAdjust="spacingAndGlyphs" textLength="181" x="479" y="182.6895">Выбросить ValidationException</text><polygon fill="#FEFECE" filter="url(#f1)" points="719,104.1328,930,104.1328,942,116.1328,930,128.1328,719,128.1328,707,116.1328,719,104.1328" style="stroke: #A80036; stroke-width: 1.5;"/><text fill="#000000" font-family="sans-serif" font-size="11" lengthAdjust="spacingAndGlyphs" textLength="13" x="828.5" y="138.7676">да</text><text fill="#000000" font-family="sans-serif" font-size="11" lengthAdjust="spacingAndGlyphs" textLength="211" x="719" y="120.29">receiverPhone не соответствует маске?</text><rect fill="#FEFECE" filter="url(#f1)" height="34.1328" rx="12.5" ry="12.5" style="stroke: #A80036; stroke-width: 1.5;" width="201" x="724" y="161.0879"/><text fill="#000000" font-family="sans-serif" font-size="12" lengthAdjust="spacingAndGlyphs" textLength="181" x="734" y="182.6895">Выбросить ValidationException</text><rect fill="#FEFECE" filter="url(#f1)" height="34.1328" rx="12.5" ry="12.5" style="stroke: #A80036; stroke-width: 1.5;" width="174" x="962" y="157.6104"/><text fill="#000000" font-family="sans-serif" font-size="12" lengthAdjust="spacingAndGlyphs" textLength="154" x="972" y="179.2119">Продолжить выполнение</text><ellipse cx="573" cy="245.2207" fill="none" filter="url(#f1)" rx="10" ry="10" style="stroke: #000000; stroke-width: 1.0;"/><ellipse cx="573.5" cy="245.7207" fill="#000000" filter="url(#f1)" rx="6" ry="6" style="stroke: none; stroke-width: 1.0;"/><line style="stroke: #A80036; stroke-width: 1.5;" x1="573" x2="573" y1="30" y2="50"/><polygon fill="#A80036" points="569,40,573,50,577,40,573,44" style="stroke: #A80036; stroke-width: 1.0;"/><line style="stroke: #A80036; stroke-width: 1.5;" x1="110.5" x2="110.5" y1="128.1328" y2="161.0879"/><polygon fill="#A80036" points="106.5,151.0879,110.5,161.0879,114.5,151.0879,110.5,155.0879" style="stroke: #A80036; stroke-width: 1.0;"/><line style="stroke: #A80036; stroke-width: 1.5;" x1="110.5" x2="110.5" y1="195.2207" y2="215.2207"/><polygon fill="#A80036" points="106.5,205.2207,110.5,215.2207,114.5,205.2207,110.5,209.2207" style="stroke: #A80036; stroke-width: 1.0;"/><line style="stroke: #A80036; stroke-width: 1.5;" x1="331.5" x2="331.5" y1="128.1328" y2="161.0879"/><polygon fill="#A80036" points="327.5,151.0879,331.5,161.0879,335.5,151.0879,331.5,155.0879" style="stroke: #A80036; stroke-width: 1.0;"/><line style="stroke: #A80036; stroke-width: 1.5;" x1="331.5" x2="331.5" y1="195.2207" y2="215.2207"/><polygon fill="#A80036" points="327.5,205.2207,331.5,215.2207,335.5,205.2207,331.5,209.2207" style="stroke: #A80036; stroke-width: 1.0;"/><line style="stroke: #A80036; stroke-width: 1.5;" x1="569.5" x2="569.5" y1="128.1328" y2="161.0879"/><polygon fill="#A80036" points="565.5,151.0879,569.5,161.0879,573.5,151.0879,569.5,155.0879" style="stroke: #A80036; stroke-width: 1.0;"/><line style="stroke: #A80036; stroke-width: 1.5;" x1="569.5" x2="569.5" y1="195.2207" y2="215.2207"/><polygon fill="#A80036" points="565.5,205.2207,569.5,215.2207,573.5,205.2207,569.5,209.2207" style="stroke: #A80036; stroke-width: 1.0;"/><line style="stroke: #A80036; stroke-width: 1.5;" x1="824.5" x2="824.5" y1="128.1328" y2="161.0879"/><polygon fill="#A80036" points="820.5,151.0879,824.5,161.0879,828.5,151.0879,824.5,155.0879" style="stroke: #A80036; stroke-width: 1.0;"/><line style="stroke: #A80036; stroke-width: 1.5;" x1="824.5" x2="824.5" y1="195.2207" y2="215.2207"/><polygon fill="#A80036" points="820.5,205.2207,824.5,215.2207,828.5,205.2207,824.5,209.2207" style="stroke: #A80036; stroke-width: 1.0;"/><line style="stroke: #A80036; stroke-width: 1.5;" x1="204.5" x2="274.5" y1="116.1328" y2="116.1328"/><polygon fill="#A80036" points="264.5,112.1328,274.5,116.1328,264.5,120.1328,268.5,116.1328" style="stroke: #A80036; stroke-width: 1.0;"/><line style="stroke: #A80036; stroke-width: 1.5;" x1="388.5" x2="452" y1="116.1328" y2="116.1328"/><polygon fill="#A80036" points="442,112.1328,452,116.1328,442,120.1328,446,116.1328" style="stroke: #A80036; stroke-width: 1.0;"/><line style="stroke: #A80036; stroke-width: 1.5;" x1="687" x2="707" y1="116.1328" y2="116.1328"/><polygon fill="#A80036" points="697,112.1328,707,116.1328,697,120.1328,701,116.1328" style="stroke: #A80036; stroke-width: 1.0;"/><line style="stroke: #A80036; stroke-width: 1.5;" x1="573" x2="573" y1="84.1328" y2="89.1328"/><line style="stroke: #A80036; stroke-width: 1.5;" x1="573" x2="110.5" y1="89.1328" y2="89.1328"/><line style="stroke: #A80036; stroke-width: 1.5;" x1="110.5" x2="110.5" y1="89.1328" y2="104.1328"/><polygon fill="#A80036" points="106.5,94.1328,110.5,104.1328,114.5,94.1328,110.5,98.1328" style="stroke: #A80036; stroke-width: 1.0;"/><line style="stroke: #A80036; stroke-width: 1.5;" x1="942" x2="1049" y1="116.1328" y2="116.1328"/><line style="stroke: #A80036; stroke-width: 1.5;" x1="1049" x2="1049" y1="116.1328" y2="157.6104"/><polygon fill="#A80036" points="1045,147.6104,1049,157.6104,1053,147.6104,1049,151.6104" style="stroke: #A80036; stroke-width: 1.0;"/><line style="stroke: #A80036; stroke-width: 1.5;" x1="1049" x2="1049" y1="191.7432" y2="215.2207"/><polygon fill="#A80036" points="1045,205.2207,1049,215.2207,1053,205.2207,1049,209.2207" style="stroke: #A80036; stroke-width: 1.0;"/><line style="stroke: #A80036; stroke-width: 1.5;" x1="110.5" x2="1049" y1="215.2207" y2="215.2207"/><line style="stroke: #A80036; stroke-width: 1.5;" x1="573" x2="573" y1="215.2207" y2="235.2207"/><polygon fill="#A80036" points="569,225.2207,573,235.2207,577,225.2207,573,229.2207" style="stroke: #A80036; stroke-width: 1.0;"/></g></svg>
