<?xml version="1.0" encoding="UTF-8" standalone="yes"?><svg xmlns="http://www.w3.org/2000/svg" xmlns:xlink="http://www.w3.org/1999/xlink" height="884px" style="width:366px;height:884px;" version="1.1" viewBox="0 0 366 884" width="366px"><defs><filter height="300%" id="f1" width="300%" x="-1" y="-1"><feGaussianBlur result="blurOut" stdDeviation="2.0"/><feColorMatrix in="blurOut" result="blurOut2" type="matrix" values="0 0 0 0 0 0 0 0 0 0 0 0 0 0 0 0 0 0 .4 0"/><feOffset dx="4.0" dy="4.0" in="blurOut2" result="blurOut3"/><feBlend in="SourceGraphic" in2="blurOut3" mode="normal"/></filter></defs><g><ellipse cx="241.5" cy="20" fill="#000000" filter="url(#f1)" rx="10" ry="10" style="stroke: none; stroke-width: 1.0;"/><rect fill="#FEFECE" filter="url(#f1)" height="34.1328" rx="12.5" ry="12.5" style="stroke: #A80036; stroke-width: 1.5;" width="229" x="127" y="50"/><text fill="#000000" font-family="sans-serif" font-size="12" lengthAdjust="spacingAndGlyphs" textLength="209" x="137" y="71.6016">Пользователь применяет фильтры</text><polygon fill="#FEFECE" filter="url(#f1)" points="191.5,104.1328,291.5,104.1328,303.5,116.1328,291.5,128.1328,191.5,128.1328,179.5,116.1328,191.5,104.1328" style="stroke: #A80036; stroke-width: 1.5;"/><text fill="#000000" font-family="sans-serif" font-size="11" lengthAdjust="spacingAndGlyphs" textLength="100" x="191.5" y="120.29">senderBank != null</text><text fill="#000000" font-family="sans-serif" font-size="11" lengthAdjust="spacingAndGlyphs" textLength="13" x="166.5" y="113.8125">да</text><rect fill="#FEFECE" filter="url(#f1)" height="34.1328" rx="12.5" ry="12.5" style="stroke: #A80036; stroke-width: 1.5;" width="265" x="25.25" y="138.1328"/><text fill="#000000" font-family="sans-serif" font-size="12" lengthAdjust="spacingAndGlyphs" textLength="245" x="35.25" y="159.7344">Добавить условие по банку отправителя</text><polygon fill="#FEFECE" filter="url(#f1)" points="241.5,178.2656,253.5,190.2656,241.5,202.2656,229.5,190.2656,241.5,178.2656" style="stroke: #A80036; stroke-width: 1.5;"/><polygon fill="#FEFECE" filter="url(#f1)" points="188.5,222.2656,294.5,222.2656,306.5,234.2656,294.5,246.2656,188.5,246.2656,176.5,234.2656,188.5,222.2656" style="stroke: #A80036; stroke-width: 1.5;"/><text fill="#000000" font-family="sans-serif" font-size="11" lengthAdjust="spacingAndGlyphs" textLength="106" x="188.5" y="238.4229">receiverBank != null</text><text fill="#000000" font-family="sans-serif" font-size="11" lengthAdjust="spacingAndGlyphs" textLength="13" x="163.5" y="231.9453">да</text><rect fill="#FEFECE" filter="url(#f1)" height="34.1328" rx="12.5" ry="12.5" style="stroke: #A80036; stroke-width: 1.5;" width="256" x="32" y="256.2656"/><text fill="#000000" font-family="sans-serif" font-size="12" lengthAdjust="spacingAndGlyphs" textLength="236" x="42" y="277.8672">Добавить условие по банку получателя</text><polygon fill="#FEFECE" filter="url(#f1)" points="241.5,296.3984,253.5,308.3984,241.5,320.3984,229.5,308.3984,241.5,296.3984" style="stroke: #A80036; stroke-width: 1.5;"/><polygon fill="#FEFECE" filter="url(#f1)" points="192.5,340.3984,290.5,340.3984,302.5,352.3984,290.5,364.3984,192.5,364.3984,180.5,352.3984,192.5,340.3984" style="stroke: #A80036; stroke-width: 1.5;"/><text fill="#000000" font-family="sans-serif" font-size="11" lengthAdjust="spacingAndGlyphs" textLength="98" x="192.5" y="356.5557">amountMin != null</text><text fill="#000000" font-family="sans-serif" font-size="11" lengthAdjust="spacingAndGlyphs" textLength="13" x="167.5" y="350.0781">да</text><rect fill="#FEFECE" filter="url(#f1)" height="34.1328" rx="12.5" ry="12.5" style="stroke: #A80036; stroke-width: 1.5;" width="273" x="19.25" y="374.3984"/><text fill="#000000" font-family="sans-serif" font-size="12" lengthAdjust="spacingAndGlyphs" textLength="253" x="29.25" y="396">Добавить фильтр по минимальной сумме</text><polygon fill="#FEFECE" filter="url(#f1)" points="241.5,414.5313,253.5,426.5313,241.5,438.5313,229.5,426.5313,241.5,414.5313" style="stroke: #A80036; stroke-width: 1.5;"/><polygon fill="#FEFECE" filter="url(#f1)" points="199,458.5313,284,458.5313,296,470.5313,284,482.5313,199,482.5313,187,470.5313,199,458.5313" style="stroke: #A80036; stroke-width: 1.5;"/><text fill="#000000" font-family="sans-serif" font-size="11" lengthAdjust="spacingAndGlyphs" textLength="85" x="199" y="474.6885">category != null</text><text fill="#000000" font-family="sans-serif" font-size="11" lengthAdjust="spacingAndGlyphs" textLength="13" x="174" y="468.2109">да</text><rect fill="#FEFECE" filter="url(#f1)" height="34.1328" rx="12.5" ry="12.5" style="stroke: #A80036; stroke-width: 1.5;" width="211" x="65.75" y="492.5313"/><text fill="#000000" font-family="sans-serif" font-size="12" lengthAdjust="spacingAndGlyphs" textLength="191" x="75.75" y="514.1328">Добавить фильтр по категории</text><polygon fill="#FEFECE" filter="url(#f1)" points="241.5,532.6641,253.5,544.6641,241.5,556.6641,229.5,544.6641,241.5,532.6641" style="stroke: #A80036; stroke-width: 1.5;"/><polygon fill="#FEFECE" filter="url(#f1)" points="150.5,576.6641,332.5,576.6641,344.5,588.6641,332.5,600.6641,150.5,600.6641,138.5,588.6641,150.5,576.6641" style="stroke: #A80036; stroke-width: 1.5;"/><text fill="#000000" font-family="sans-serif" font-size="11" lengthAdjust="spacingAndGlyphs" textLength="182" x="150.5" y="592.8213">dateFrom != null or dateTo != null</text><text fill="#000000" font-family="sans-serif" font-size="11" lengthAdjust="spacingAndGlyphs" textLength="13" x="125.5" y="586.3438">да</text><rect fill="#FEFECE" filter="url(#f1)" height="34.1328" rx="12.5" ry="12.5" style="stroke: #A80036; stroke-width: 1.5;" width="237" x="10" y="610.6641"/><text fill="#000000" font-family="sans-serif" font-size="12" lengthAdjust="spacingAndGlyphs" textLength="217" x="20" y="632.2656">Добавить фильтр по диапазону дат</text><polygon fill="#FEFECE" filter="url(#f1)" points="241.5,650.7969,253.5,662.7969,241.5,674.7969,229.5,662.7969,241.5,650.7969" style="stroke: #A80036; stroke-width: 1.5;"/><rect fill="#FEFECE" filter="url(#f1)" height="34.1328" rx="12.5" ry="12.5" style="stroke: #A80036; stroke-width: 1.5;" width="196" x="143.5" y="694.7969"/><text fill="#000000" font-family="sans-serif" font-size="12" lengthAdjust="spacingAndGlyphs" textLength="176" x="153.5" y="716.3984">Отправить запрос на бэкенд</text><rect fill="#FEFECE" filter="url(#f1)" height="34.1328" rx="12.5" ry="12.5" style="stroke: #A80036; stroke-width: 1.5;" width="235" x="124" y="748.9297"/><text fill="#000000" font-family="sans-serif" font-size="12" lengthAdjust="spacingAndGlyphs" textLength="215" x="134" y="770.5313">Получить отфильтрованный список</text><rect fill="#FEFECE" filter="url(#f1)" height="34.1328" rx="12.5" ry="12.5" style="stroke: #A80036; stroke-width: 1.5;" width="234" x="124.5" y="803.0625"/><text fill="#000000" font-family="sans-serif" font-size="12" lengthAdjust="spacingAndGlyphs" textLength="214" x="134.5" y="824.6641">Отобразить результат на странице</text><ellipse cx="241.5" cy="867.1953" fill="none" filter="url(#f1)" rx="10" ry="10" style="stroke: #000000; stroke-width: 1.0;"/><ellipse cx="242" cy="867.6953" fill="#000000" filter="url(#f1)" rx="6" ry="6" style="stroke: none; stroke-width: 1.0;"/><line style="stroke: #A80036; stroke-width: 1.5;" x1="241.5" x2="241.5" y1="30" y2="50"/><polygon fill="#A80036" points="237.5,40,241.5,50,245.5,40,241.5,44" style="stroke: #A80036; stroke-width: 1.0;"/><line style="stroke: #A80036; stroke-width: 1.5;" x1="179.5" x2="157.75" y1="116.1328" y2="116.1328"/><line style="stroke: #A80036; stroke-width: 1.5;" x1="157.75" x2="157.75" y1="116.1328" y2="138.1328"/><polygon fill="#A80036" points="153.75,128.1328,157.75,138.1328,161.75,128.1328,157.75,132.1328" style="stroke: #A80036; stroke-width: 1.0;"/><line style="stroke: #A80036; stroke-width: 1.5;" x1="303.5" x2="325.25" y1="116.1328" y2="116.1328"/><polygon fill="#A80036" points="321.25,143.1992,325.25,153.1992,329.25,143.1992,325.25,147.1992" style="stroke: #A80036; stroke-width: 1.5;"/><line style="stroke: #A80036; stroke-width: 1.5;" x1="325.25" x2="325.25" y1="116.1328" y2="190.2656"/><line style="stroke: #A80036; stroke-width: 1.5;" x1="325.25" x2="253.5" y1="190.2656" y2="190.2656"/><polygon fill="#A80036" points="263.5,186.2656,253.5,190.2656,263.5,194.2656,259.5,190.2656" style="stroke: #A80036; stroke-width: 1.0;"/><line style="stroke: #A80036; stroke-width: 1.5;" x1="157.75" x2="157.75" y1="172.2656" y2="190.2656"/><line style="stroke: #A80036; stroke-width: 1.5;" x1="157.75" x2="229.5" y1="190.2656" y2="190.2656"/><polygon fill="#A80036" points="219.5,186.2656,229.5,190.2656,219.5,194.2656,223.5,190.2656" style="stroke: #A80036; stroke-width: 1.0;"/><line style="stroke: #A80036; stroke-width: 1.5;" x1="241.5" x2="241.5" y1="84.1328" y2="104.1328"/><polygon fill="#A80036" points="237.5,94.1328,241.5,104.1328,245.5,94.1328,241.5,98.1328" style="stroke: #A80036; stroke-width: 1.0;"/><line style="stroke: #A80036; stroke-width: 1.5;" x1="176.5" x2="160" y1="234.2656" y2="234.2656"/><line style="stroke: #A80036; stroke-width: 1.5;" x1="160" x2="160" y1="234.2656" y2="256.2656"/><polygon fill="#A80036" points="156,246.2656,160,256.2656,164,246.2656,160,250.2656" style="stroke: #A80036; stroke-width: 1.0;"/><line style="stroke: #A80036; stroke-width: 1.5;" x1="306.5" x2="323" y1="234.2656" y2="234.2656"/><polygon fill="#A80036" points="319,261.332,323,271.332,327,261.332,323,265.332" style="stroke: #A80036; stroke-width: 1.5;"/><line style="stroke: #A80036; stroke-width: 1.5;" x1="323" x2="323" y1="234.2656" y2="308.3984"/><line style="stroke: #A80036; stroke-width: 1.5;" x1="323" x2="253.5" y1="308.3984" y2="308.3984"/><polygon fill="#A80036" points="263.5,304.3984,253.5,308.3984,263.5,312.3984,259.5,308.3984" style="stroke: #A80036; stroke-width: 1.0;"/><line style="stroke: #A80036; stroke-width: 1.5;" x1="160" x2="160" y1="290.3984" y2="308.3984"/><line style="stroke: #A80036; stroke-width: 1.5;" x1="160" x2="229.5" y1="308.3984" y2="308.3984"/><polygon fill="#A80036" points="219.5,304.3984,229.5,308.3984,219.5,312.3984,223.5,308.3984" style="stroke: #A80036; stroke-width: 1.0;"/><line style="stroke: #A80036; stroke-width: 1.5;" x1="241.5" x2="241.5" y1="202.2656" y2="222.2656"/><polygon fill="#A80036" points="237.5,212.2656,241.5,222.2656,245.5,212.2656,241.5,216.2656" style="stroke: #A80036; stroke-width: 1.0;"/><line style="stroke: #A80036; stroke-width: 1.5;" x1="180.5" x2="155.75" y1="352.3984" y2="352.3984"/><line style="stroke: #A80036; stroke-width: 1.5;" x1="155.75" x2="155.75" y1="352.3984" y2="374.3984"/><polygon fill="#A80036" points="151.75,364.3984,155.75,374.3984,159.75,364.3984,155.75,368.3984" style="stroke: #A80036; stroke-width: 1.0;"/><line style="stroke: #A80036; stroke-width: 1.5;" x1="302.5" x2="327.25" y1="352.3984" y2="352.3984"/><polygon fill="#A80036" points="323.25,379.4648,327.25,389.4648,331.25,379.4648,327.25,383.4648" style="stroke: #A80036; stroke-width: 1.5;"/><line style="stroke: #A80036; stroke-width: 1.5;" x1="327.25" x2="327.25" y1="352.3984" y2="426.5313"/><line style="stroke: #A80036; stroke-width: 1.5;" x1="327.25" x2="253.5" y1="426.5313" y2="426.5313"/><polygon fill="#A80036" points="263.5,422.5313,253.5,426.5313,263.5,430.5313,259.5,426.5313" style="stroke: #A80036; stroke-width: 1.0;"/><line style="stroke: #A80036; stroke-width: 1.5;" x1="155.75" x2="155.75" y1="408.5313" y2="426.5313"/><line style="stroke: #A80036; stroke-width: 1.5;" x1="155.75" x2="229.5" y1="426.5313" y2="426.5313"/><polygon fill="#A80036" points="219.5,422.5313,229.5,426.5313,219.5,430.5313,223.5,426.5313" style="stroke: #A80036; stroke-width: 1.0;"/><line style="stroke: #A80036; stroke-width: 1.5;" x1="241.5" x2="241.5" y1="320.3984" y2="340.3984"/><polygon fill="#A80036" points="237.5,330.3984,241.5,340.3984,245.5,330.3984,241.5,334.3984" style="stroke: #A80036; stroke-width: 1.0;"/><line style="stroke: #A80036; stroke-width: 1.5;" x1="187" x2="171.25" y1="470.5313" y2="470.5313"/><line style="stroke: #A80036; stroke-width: 1.5;" x1="171.25" x2="171.25" y1="470.5313" y2="492.5313"/><polygon fill="#A80036" points="167.25,482.5313,171.25,492.5313,175.25,482.5313,171.25,486.5313" style="stroke: #A80036; stroke-width: 1.0;"/><line style="stroke: #A80036; stroke-width: 1.5;" x1="296" x2="311.75" y1="470.5313" y2="470.5313"/><polygon fill="#A80036" points="307.75,497.5977,311.75,507.5977,315.75,497.5977,311.75,501.5977" style="stroke: #A80036; stroke-width: 1.5;"/><line style="stroke: #A80036; stroke-width: 1.5;" x1="311.75" x2="311.75" y1="470.5313" y2="544.6641"/><line style="stroke: #A80036; stroke-width: 1.5;" x1="311.75" x2="253.5" y1="544.6641" y2="544.6641"/><polygon fill="#A80036" points="263.5,540.6641,253.5,544.6641,263.5,548.6641,259.5,544.6641" style="stroke: #A80036; stroke-width: 1.0;"/><line style="stroke: #A80036; stroke-width: 1.5;" x1="171.25" x2="171.25" y1="526.6641" y2="544.6641"/><line style="stroke: #A80036; stroke-width: 1.5;" x1="171.25" x2="229.5" y1="544.6641" y2="544.6641"/><polygon fill="#A80036" points="219.5,540.6641,229.5,544.6641,219.5,548.6641,223.5,544.6641" style="stroke: #A80036; stroke-width: 1.0;"/><line style="stroke: #A80036; stroke-width: 1.5;" x1="241.5" x2="241.5" y1="438.5313" y2="458.5313"/><polygon fill="#A80036" points="237.5,448.5313,241.5,458.5313,245.5,448.5313,241.5,452.5313" style="stroke: #A80036; stroke-width: 1.0;"/><line style="stroke: #A80036; stroke-width: 1.5;" x1="138.5" x2="128.5" y1="588.6641" y2="588.6641"/><line style="stroke: #A80036; stroke-width: 1.5;" x1="128.5" x2="128.5" y1="588.6641" y2="610.6641"/><polygon fill="#A80036" points="124.5,600.6641,128.5,610.6641,132.5,600.6641,128.5,604.6641" style="stroke: #A80036; stroke-width: 1.0;"/><line style="stroke: #A80036; stroke-width: 1.5;" x1="344.5" x2="354.5" y1="588.6641" y2="588.6641"/><polygon fill="#A80036" points="350.5,615.7305,354.5,625.7305,358.5,615.7305,354.5,619.7305" style="stroke: #A80036; stroke-width: 1.5;"/><line style="stroke: #A80036; stroke-width: 1.5;" x1="354.5" x2="354.5" y1="588.6641" y2="662.7969"/><line style="stroke: #A80036; stroke-width: 1.5;" x1="354.5" x2="253.5" y1="662.7969" y2="662.7969"/><polygon fill="#A80036" points="263.5,658.7969,253.5,662.7969,263.5,666.7969,259.5,662.7969" style="stroke: #A80036; stroke-width: 1.0;"/><line style="stroke: #A80036; stroke-width: 1.5;" x1="128.5" x2="128.5" y1="644.7969" y2="662.7969"/><line style="stroke: #A80036; stroke-width: 1.5;" x1="128.5" x2="229.5" y1="662.7969" y2="662.7969"/><polygon fill="#A80036" points="219.5,658.7969,229.5,662.7969,219.5,666.7969,223.5,662.7969" style="stroke: #A80036; stroke-width: 1.0;"/><line style="stroke: #A80036; stroke-width: 1.5;" x1="241.5" x2="241.5" y1="556.6641" y2="576.6641"/><polygon fill="#A80036" points="237.5,566.6641,241.5,576.6641,245.5,566.6641,241.5,570.6641" style="stroke: #A80036; stroke-width: 1.0;"/><line style="stroke: #A80036; stroke-width: 1.5;" x1="241.5" x2="241.5" y1="674.7969" y2="694.7969"/><polygon fill="#A80036" points="237.5,684.7969,241.5,694.7969,245.5,684.7969,241.5,688.7969" style="stroke: #A80036; stroke-width: 1.0;"/><line style="stroke: #A80036; stroke-width: 1.5;" x1="241.5" x2="241.5" y1="728.9297" y2="748.9297"/><polygon fill="#A80036" points="237.5,738.9297,241.5,748.9297,245.5,738.9297,241.5,742.9297" style="stroke: #A80036; stroke-width: 1.0;"/><line style="stroke: #A80036; stroke-width: 1.5;" x1="241.5" x2="241.5" y1="783.0625" y2="803.0625"/><polygon fill="#A80036" points="237.5,793.0625,241.5,803.0625,245.5,793.0625,241.5,797.0625" style="stroke: #A80036; stroke-width: 1.0;"/><line style="stroke: #A80036; stroke-width: 1.5;" x1="241.5" x2="241.5" y1="837.1953" y2="857.1953"/><polygon fill="#A80036" points="237.5,847.1953,241.5,857.1953,245.5,847.1953,241.5,851.1953" style="stroke: #A80036; stroke-width: 1.0;"/></g></svg>
