<?xml version="1.0" encoding="UTF-8" standalone="yes"?><svg xmlns="http://www.w3.org/2000/svg" xmlns:xlink="http://www.w3.org/1999/xlink" height="351px" style="width:974px;height:351px;" version="1.1" viewBox="0 0 974 351" width="974px"><defs><filter height="300%" id="f1" width="300%" x="-1" y="-1"><feGaussianBlur result="blurOut" stdDeviation="2.0"/><feColorMatrix in="blurOut" result="blurOut2" type="matrix" values="0 0 0 0 0 0 0 0 0 0 0 0 0 0 0 0 0 0 .4 0"/><feOffset dx="4.0" dy="4.0" in="blurOut2" result="blurOut3"/><feBlend in="SourceGraphic" in2="blurOut3" mode="normal"/></filter></defs><g><text fill="#000000" font-family="sans-serif" font-size="18" lengthAdjust="spacingAndGlyphs" textLength="253" x="362" y="27.4023">GlobalExceptionHandler Flow</text><ellipse cx="488.5" cy="41.1992" fill="#000000" filter="url(#f1)" rx="10" ry="10" style="stroke: none; stroke-width: 1.0;"/><rect fill="#FEFECE" filter="url(#f1)" height="34.1328" rx="12.5" ry="12.5" style="stroke: #A80036; stroke-width: 1.5;" width="155" x="411" y="71.1992"/><text fill="#000000" font-family="sans-serif" font-size="12" lengthAdjust="spacingAndGlyphs" textLength="135" x="421" y="92.8008">Получено исключение</text><polygon fill="#FEFECE" filter="url(#f1)" points="54,125.332,165,125.332,177,137.332,165,149.332,54,149.332,42,137.332,54,125.332" style="stroke: #A80036; stroke-width: 1.5;"/><text fill="#000000" font-family="sans-serif" font-size="11" lengthAdjust="spacingAndGlyphs" textLength="13" x="113.5" y="159.9668">да</text><text fill="#000000" font-family="sans-serif" font-size="11" lengthAdjust="spacingAndGlyphs" textLength="111" x="54" y="141.4893">ValidationException?</text><rect fill="#FEFECE" filter="url(#f1)" height="48.2656" rx="12.5" ry="12.5" style="stroke: #A80036; stroke-width: 1.5;" width="199" x="10" y="181.4668"/><text fill="#000000" font-family="sans-serif" font-size="12" lengthAdjust="spacingAndGlyphs" textLength="179" x="20" y="203.0684">Возвращаем 400 Bad Request</text><text fill="#000000" font-family="sans-serif" font-size="12" lengthAdjust="spacingAndGlyphs" textLength="154" x="20" y="217.2012">с сообщением об ошибке</text><polygon fill="#FEFECE" filter="url(#f1)" points="251,125.332,392,125.332,404,137.332,392,149.332,251,149.332,239,137.332,251,125.332" style="stroke: #A80036; stroke-width: 1.5;"/><text fill="#000000" font-family="sans-serif" font-size="11" lengthAdjust="spacingAndGlyphs" textLength="13" x="325.5" y="159.9668">да</text><text fill="#000000" font-family="sans-serif" font-size="11" lengthAdjust="spacingAndGlyphs" textLength="141" x="251" y="141.4893">EntityNotFoundException?</text><rect fill="#FEFECE" filter="url(#f1)" height="34.1328" rx="12.5" ry="12.5" style="stroke: #A80036; stroke-width: 1.5;" width="185" x="229" y="181.4668"/><text fill="#000000" font-family="sans-serif" font-size="12" lengthAdjust="spacingAndGlyphs" textLength="165" x="239" y="203.0684">Возвращаем 404 Not Found</text><polygon fill="#FEFECE" filter="url(#f1)" points="492,125.332,647,125.332,659,137.332,647,149.332,492,149.332,480,137.332,492,125.332" style="stroke: #A80036; stroke-width: 1.5;"/><text fill="#000000" font-family="sans-serif" font-size="11" lengthAdjust="spacingAndGlyphs" textLength="13" x="573.5" y="159.9668">да</text><text fill="#000000" font-family="sans-serif" font-size="11" lengthAdjust="spacingAndGlyphs" textLength="155" x="492" y="141.4893">WebExchangeBindException?</text><rect fill="#FEFECE" filter="url(#f1)" height="34.1328" rx="12.5" ry="12.5" style="stroke: #A80036; stroke-width: 1.5;" width="226" x="456.5" y="181.4668"/><text fill="#000000" font-family="sans-serif" font-size="12" lengthAdjust="spacingAndGlyphs" textLength="206" x="466.5" y="203.0684">Собираем все ошибки валидации</text><rect fill="#FEFECE" filter="url(#f1)" height="34.1328" rx="12.5" ry="12.5" style="stroke: #A80036; stroke-width: 1.5;" width="271" x="434" y="250.5996"/><text fill="#000000" font-family="sans-serif" font-size="12" lengthAdjust="spacingAndGlyphs" textLength="251" x="444" y="272.2012">Возвращаем 400 Bad Request с деталями</text><rect fill="#FEFECE" filter="url(#f1)" height="34.1328" rx="12.5" ry="12.5" style="stroke: #A80036; stroke-width: 1.5;" width="242" x="725" y="212.5557"/><text fill="#000000" font-family="sans-serif" font-size="12" lengthAdjust="spacingAndGlyphs" textLength="222" x="735" y="234.1572">Возвращаем 500 Internal Server Error</text><ellipse cx="488.5" cy="334.7324" fill="none" filter="url(#f1)" rx="10" ry="10" style="stroke: #000000; stroke-width: 1.0;"/><ellipse cx="489" cy="335.2324" fill="#000000" filter="url(#f1)" rx="6" ry="6" style="stroke: none; stroke-width: 1.0;"/><line style="stroke: #A80036; stroke-width: 1.5;" x1="488.5" x2="488.5" y1="51.1992" y2="71.1992"/><polygon fill="#A80036" points="484.5,61.1992,488.5,71.1992,492.5,61.1992,488.5,65.1992" style="stroke: #A80036; stroke-width: 1.0;"/><line style="stroke: #A80036; stroke-width: 1.5;" x1="569.5" x2="569.5" y1="215.5996" y2="250.5996"/><polygon fill="#A80036" points="565.5,240.5996,569.5,250.5996,573.5,240.5996,569.5,244.5996" style="stroke: #A80036; stroke-width: 1.0;"/><line style="stroke: #A80036; stroke-width: 1.5;" x1="109.5" x2="109.5" y1="149.332" y2="181.4668"/><polygon fill="#A80036" points="105.5,171.4668,109.5,181.4668,113.5,171.4668,109.5,175.4668" style="stroke: #A80036; stroke-width: 1.0;"/><line style="stroke: #A80036; stroke-width: 1.5;" x1="109.5" x2="109.5" y1="229.7324" y2="304.7324"/><polygon fill="#A80036" points="105.5,294.7324,109.5,304.7324,113.5,294.7324,109.5,298.7324" style="stroke: #A80036; stroke-width: 1.0;"/><line style="stroke: #A80036; stroke-width: 1.5;" x1="321.5" x2="321.5" y1="149.332" y2="181.4668"/><polygon fill="#A80036" points="317.5,171.4668,321.5,181.4668,325.5,171.4668,321.5,175.4668" style="stroke: #A80036; stroke-width: 1.0;"/><line style="stroke: #A80036; stroke-width: 1.5;" x1="321.5" x2="321.5" y1="215.5996" y2="304.7324"/><polygon fill="#A80036" points="317.5,294.7324,321.5,304.7324,325.5,294.7324,321.5,298.7324" style="stroke: #A80036; stroke-width: 1.0;"/><line style="stroke: #A80036; stroke-width: 1.5;" x1="569.5" x2="569.5" y1="149.332" y2="181.4668"/><polygon fill="#A80036" points="565.5,171.4668,569.5,181.4668,573.5,171.4668,569.5,175.4668" style="stroke: #A80036; stroke-width: 1.0;"/><line style="stroke: #A80036; stroke-width: 1.5;" x1="569.5" x2="569.5" y1="284.7324" y2="304.7324"/><polygon fill="#A80036" points="565.5,294.7324,569.5,304.7324,573.5,294.7324,569.5,298.7324" style="stroke: #A80036; stroke-width: 1.0;"/><line style="stroke: #A80036; stroke-width: 1.5;" x1="177" x2="239" y1="137.332" y2="137.332"/><polygon fill="#A80036" points="229,133.332,239,137.332,229,141.332,233,137.332" style="stroke: #A80036; stroke-width: 1.0;"/><line style="stroke: #A80036; stroke-width: 1.5;" x1="404" x2="480" y1="137.332" y2="137.332"/><polygon fill="#A80036" points="470,133.332,480,137.332,470,141.332,474,137.332" style="stroke: #A80036; stroke-width: 1.0;"/><line style="stroke: #A80036; stroke-width: 1.5;" x1="488.5" x2="488.5" y1="105.332" y2="110.332"/><line style="stroke: #A80036; stroke-width: 1.5;" x1="488.5" x2="109.5" y1="110.332" y2="110.332"/><line style="stroke: #A80036; stroke-width: 1.5;" x1="109.5" x2="109.5" y1="110.332" y2="125.332"/><polygon fill="#A80036" points="105.5,115.332,109.5,125.332,113.5,115.332,109.5,119.332" style="stroke: #A80036; stroke-width: 1.0;"/><line style="stroke: #A80036; stroke-width: 1.5;" x1="659" x2="846" y1="137.332" y2="137.332"/><line style="stroke: #A80036; stroke-width: 1.5;" x1="846" x2="846" y1="137.332" y2="212.5557"/><polygon fill="#A80036" points="842,202.5557,846,212.5557,850,202.5557,846,206.5557" style="stroke: #A80036; stroke-width: 1.0;"/><line style="stroke: #A80036; stroke-width: 1.5;" x1="846" x2="846" y1="246.6885" y2="304.7324"/><polygon fill="#A80036" points="842,294.7324,846,304.7324,850,294.7324,846,298.7324" style="stroke: #A80036; stroke-width: 1.0;"/><line style="stroke: #A80036; stroke-width: 1.5;" x1="109.5" x2="846" y1="304.7324" y2="304.7324"/><line style="stroke: #A80036; stroke-width: 1.5;" x1="488.5" x2="488.5" y1="304.7324" y2="324.7324"/><polygon fill="#A80036" points="484.5,314.7324,488.5,324.7324,492.5,314.7324,488.5,318.7324" style="stroke: #A80036; stroke-width: 1.0;"/></g></svg>
