<?xml version="1.0" encoding="UTF-8" standalone="yes"?><svg xmlns="http://www.w3.org/2000/svg" xmlns:xlink="http://www.w3.org/1999/xlink" height="418px" style="width:352px;height:418px;" version="1.1" viewBox="0 0 352 418" width="352px"><defs><filter height="300%" id="f1" width="300%" x="-1" y="-1"><feGaussianBlur result="blurOut" stdDeviation="2.0"/><feColorMatrix in="blurOut" result="blurOut2" type="matrix" values="0 0 0 0 0 0 0 0 0 0 0 0 0 0 0 0 0 0 .4 0"/><feOffset dx="4.0" dy="4.0" in="blurOut2" result="blurOut3"/><feBlend in="SourceGraphic" in2="blurOut3" mode="normal"/></filter></defs><g><rect fill="#FEFECE" filter="url(#f1)" height="138.6855" style="stroke: #A80036; stroke-width: 1.5;" width="336" x="7" y="271.31"/><ellipse cx="101.75" cy="287.31" fill="#ADD1B2" rx="11" ry="11" style="stroke: #A80036; stroke-width: 1.0;"/><path d="M104.2231,293.4531 Q103.6421,293.7519 103.0029,293.9013 Q102.3638,294.0507 101.6582,294.0507 Q99.1514,294.0507 97.8315,292.3989 Q96.5117,290.747 96.5117,287.6259 Q96.5117,284.4965 97.8315,282.8447 Q99.1514,281.1928 101.6582,281.1928 Q102.3638,281.1928 103.0112,281.3422 Q103.6587,281.4916 104.2231,281.7905 L104.2231,284.5131 Q103.5923,283.9321 102.9988,283.6623 Q102.4053,283.3925 101.7744,283.3925 Q100.4297,283.3925 99.7449,284.4592 Q99.0601,285.5258 99.0601,287.6259 Q99.0601,289.7177 99.7449,290.7844 Q100.4297,291.851 101.7744,291.851 Q102.4053,291.851 102.9988,291.5812 Q103.5923,291.3115 104.2231,290.7304 Z "/><text fill="#000000" font-family="sans-serif" font-size="12" lengthAdjust="spacingAndGlyphs" textLength="138" x="122.25" y="291.8452">TransactionSpecification</text><line style="stroke: #A80036; stroke-width: 1.5;" x1="8" x2="342" y1="303.31" y2="303.31"/><line style="stroke: #A80036; stroke-width: 1.5;" x1="8" x2="342" y1="311.31" y2="311.31"/><ellipse cx="18" cy="323.2875" fill="#84BE84" rx="3" ry="3" style="stroke: #038048; stroke-width: 1.0;"/><text fill="#000000" font-family="sans-serif" font-size="11" lengthAdjust="spacingAndGlyphs" textLength="195" x="27" y="325.9448">hasSenderBank(String): Specification</text><ellipse cx="18" cy="336.2426" fill="#84BE84" rx="3" ry="3" style="stroke: #038048; stroke-width: 1.0;"/><text fill="#000000" font-family="sans-serif" font-size="11" lengthAdjust="spacingAndGlyphs" textLength="203" x="27" y="338.8998">hasReceiverBank(String): Specification</text><ellipse cx="18" cy="349.1977" fill="#84BE84" rx="3" ry="3" style="stroke: #038048; stroke-width: 1.0;"/><text fill="#000000" font-family="sans-serif" font-size="11" lengthAdjust="spacingAndGlyphs" textLength="162" x="27" y="351.8549">isOfType(String): Specification</text><ellipse cx="18" cy="362.1528" fill="#84BE84" rx="3" ry="3" style="stroke: #038048; stroke-width: 1.0;"/><text fill="#000000" font-family="sans-serif" font-size="11" lengthAdjust="spacingAndGlyphs" textLength="166" x="27" y="364.81">hasStatus(String): Specification</text><ellipse cx="18" cy="375.1079" fill="#84BE84" rx="3" ry="3" style="stroke: #038048; stroke-width: 1.0;"/><text fill="#000000" font-family="sans-serif" font-size="11" lengthAdjust="spacingAndGlyphs" textLength="310" x="27" y="377.7651">dateBetween(LocalDateTime, LocalDateTime): Specification</text><ellipse cx="18" cy="388.0629" fill="#84BE84" rx="3" ry="3" style="stroke: #038048; stroke-width: 1.0;"/><text fill="#000000" font-family="sans-serif" font-size="11" lengthAdjust="spacingAndGlyphs" textLength="288" x="27" y="390.7202">amountBetween(BigDecimal, BigDecimal): Specification</text><ellipse cx="18" cy="401.018" fill="#84BE84" rx="3" ry="3" style="stroke: #038048; stroke-width: 1.0;"/><text fill="#000000" font-family="sans-serif" font-size="11" lengthAdjust="spacingAndGlyphs" textLength="182" x="27" y="403.6752">hasCategory(String): Specification</text><rect fill="#FEFECE" filter="url(#f1)" height="60.9551" style="stroke: #A80036; stroke-width: 1.5;" width="338" x="6" y="8.36"/><ellipse cx="117.25" cy="24.36" fill="#ADD1B2" rx="11" ry="11" style="stroke: #A80036; stroke-width: 1.0;"/><path d="M119.7231,30.5031 Q119.1421,30.8019 118.5029,30.9513 Q117.8638,31.1007 117.1582,31.1007 Q114.6514,31.1007 113.3315,29.4489 Q112.0117,27.797 112.0117,24.6759 Q112.0117,21.5465 113.3315,19.8947 Q114.6514,18.2428 117.1582,18.2428 Q117.8638,18.2428 118.5112,18.3922 Q119.1587,18.5416 119.7231,18.8405 L119.7231,21.5631 Q119.0923,20.9821 118.4988,20.7123 Q117.9053,20.4425 117.2744,20.4425 Q115.9297,20.4425 115.2449,21.5092 Q114.5601,22.5758 114.5601,24.6759 Q114.5601,26.7677 115.2449,27.8344 Q115.9297,28.901 117.2744,28.901 Q117.9053,28.901 118.4988,28.6312 Q119.0923,28.3615 119.7231,27.7804 Z "/><text fill="#000000" font-family="sans-serif" font-size="12" lengthAdjust="spacingAndGlyphs" textLength="107" x="137.75" y="28.8952">TransactionService</text><line style="stroke: #A80036; stroke-width: 1.5;" x1="7" x2="343" y1="40.36" y2="40.36"/><line style="stroke: #A80036; stroke-width: 1.5;" x1="7" x2="343" y1="48.36" y2="48.36"/><ellipse cx="17" cy="60.3375" fill="#84BE84" rx="3" ry="3" style="stroke: #038048; stroke-width: 1.0;"/><text fill="#000000" font-family="sans-serif" font-size="11" lengthAdjust="spacingAndGlyphs" textLength="312" x="26" y="62.9948">searchTransactions(TransactionFilter): List&lt;Transaction&gt;</text><rect fill="#FEFECE" filter="url(#f1)" height="48" style="stroke: #A80036; stroke-width: 1.5;" width="160" x="95" y="146.31"/><ellipse cx="110" cy="162.31" fill="#ADD1B2" rx="11" ry="11" style="stroke: #A80036; stroke-width: 1.0;"/><path d="M112.4731,168.4531 Q111.8921,168.7519 111.2529,168.9013 Q110.6138,169.0507 109.9082,169.0507 Q107.4014,169.0507 106.0815,167.3989 Q104.7617,165.747 104.7617,162.6259 Q104.7617,159.4965 106.0815,157.8447 Q107.4014,156.1928 109.9082,156.1928 Q110.6138,156.1928 111.2612,156.3422 Q111.9087,156.4916 112.4731,156.7905 L112.4731,159.5131 Q111.8423,158.9321 111.2488,158.6623 Q110.6553,158.3925 110.0244,158.3925 Q108.6797,158.3925 107.9949,159.4592 Q107.3101,160.5258 107.3101,162.6259 Q107.3101,164.7177 107.9949,165.7844 Q108.6797,166.851 110.0244,166.851 Q110.6553,166.851 111.2488,166.5812 Q111.8423,166.3115 112.4731,165.7304 Z "/><text fill="#000000" font-family="sans-serif" font-size="12" lengthAdjust="spacingAndGlyphs" textLength="128" x="124" y="166.8452">TransactionRepository</text><line style="stroke: #A80036; stroke-width: 1.5;" x1="96" x2="254" y1="178.31" y2="178.31"/><line style="stroke: #A80036; stroke-width: 1.5;" x1="96" x2="254" y1="186.31" y2="186.31"/><path d="M175,69.54 C175,90.65 175,118.87 175,139.92 " fill="none" style="stroke: #A80036; stroke-width: 1.0;"/><polygon fill="#A80036" points="175,144.69,179,135.69,175,139.69,171,135.69,175,144.69" style="stroke: #A80036; stroke-width: 1.0;"/><text fill="#000000" font-family="sans-serif" font-size="13" lengthAdjust="spacingAndGlyphs" textLength="157" x="176" y="112.8784">использует Specification</text><path d="M175,194.72 C175,212.96 175,239.35 175,264.63 " fill="none" style="stroke: #A80036; stroke-width: 1.0;"/><polygon fill="#A80036" points="175,269.51,179,260.51,175,264.51,171,260.51,175,269.51" style="stroke: #A80036; stroke-width: 1.0;"/><text fill="#000000" font-family="sans-serif" font-size="13" lengthAdjust="spacingAndGlyphs" textLength="120" x="176" y="237.8784">принимает фильтр</text></g></svg>
