<?xml version="1.0" encoding="UTF-8" standalone="yes"?><svg xmlns="http://www.w3.org/2000/svg" xmlns:xlink="http://www.w3.org/1999/xlink" height="639px" style="width:643px;height:639px;" version="1.1" viewBox="0 0 643 639" width="643px"><defs><filter height="300%" id="f1" width="300%" x="-1" y="-1"><feGaussianBlur result="blurOut" stdDeviation="2.0"/><feColorMatrix in="blurOut" result="blurOut2" type="matrix" values="0 0 0 0 0 0 0 0 0 0 0 0 0 0 0 0 0 0 .4 0"/><feOffset dx="4.0" dy="4.0" in="blurOut2" result="blurOut3"/><feBlend in="SourceGraphic" in2="blurOut3" mode="normal"/></filter></defs><g><rect fill="#FEFECE" filter="url(#f1)" height="190.5059" style="stroke: #A80036; stroke-width: 1.5;" width="172" x="252" y="8.12"/><ellipse cx="300.25" cy="24.12" fill="#ADD1B2" rx="11" ry="11" style="stroke: #A80036; stroke-width: 1.0;"/><path d="M302.7231,30.2631 Q302.1421,30.5619 301.5029,30.7113 Q300.8638,30.8607 300.1582,30.8607 Q297.6514,30.8607 296.3315,29.2089 Q295.0117,27.557 295.0117,24.4359 Q295.0117,21.3065 296.3315,19.6547 Q297.6514,18.0028 300.1582,18.0028 Q300.8638,18.0028 301.5112,18.1522 Q302.1587,18.3016 302.7231,18.6005 L302.7231,21.3231 Q302.0923,20.7421 301.4988,20.4723 Q300.9053,20.2025 300.2744,20.2025 Q298.9297,20.2025 298.2449,21.2692 Q297.5601,22.3358 297.5601,24.4359 Q297.5601,26.5277 298.2449,27.5944 Q298.9297,28.661 300.2744,28.661 Q300.9053,28.661 301.4988,28.3912 Q302.0923,28.1215 302.7231,27.5404 Z "/><text fill="#000000" font-family="sans-serif" font-size="12" lengthAdjust="spacingAndGlyphs" textLength="67" x="320.75" y="28.6552">Transaction</text><line style="stroke: #A80036; stroke-width: 1.5;" x1="253" x2="423" y1="40.12" y2="40.12"/><text fill="#000000" font-family="sans-serif" font-size="11" lengthAdjust="spacingAndGlyphs" textLength="43" x="258" y="54.7548">id: UUID</text><text fill="#000000" font-family="sans-serif" font-size="11" lengthAdjust="spacingAndGlyphs" textLength="102" x="258" y="67.7098">personType: String</text><text fill="#000000" font-family="sans-serif" font-size="11" lengthAdjust="spacingAndGlyphs" textLength="160" x="258" y="80.6649">operationDate: LocalDateTime</text><text fill="#000000" font-family="sans-serif" font-size="11" lengthAdjust="spacingAndGlyphs" textLength="125" x="258" y="93.62">transactionType: String</text><text fill="#000000" font-family="sans-serif" font-size="11" lengthAdjust="spacingAndGlyphs" textLength="105" x="258" y="106.5751">amount: BigDecimal</text><text fill="#000000" font-family="sans-serif" font-size="11" lengthAdjust="spacingAndGlyphs" textLength="71" x="258" y="119.5302">status: String</text><text fill="#000000" font-family="sans-serif" font-size="11" lengthAdjust="spacingAndGlyphs" textLength="100" x="258" y="132.4852">senderBank: String</text><text fill="#000000" font-family="sans-serif" font-size="11" lengthAdjust="spacingAndGlyphs" textLength="106" x="258" y="145.4403">receiverBank: String</text><text fill="#000000" font-family="sans-serif" font-size="11" lengthAdjust="spacingAndGlyphs" textLength="98" x="258" y="158.3954">receiverInn: String</text><text fill="#000000" font-family="sans-serif" font-size="11" lengthAdjust="spacingAndGlyphs" textLength="85" x="258" y="171.3505">category: String</text><text fill="#000000" font-family="sans-serif" font-size="11" lengthAdjust="spacingAndGlyphs" textLength="114" x="258" y="184.3055">receiverPhone: String</text><line style="stroke: #A80036; stroke-width: 1.5;" x1="253" x2="423" y1="190.6259" y2="190.6259"/><rect fill="#FEFECE" filter="url(#f1)" height="73.9102" style="stroke: #A80036; stroke-width: 1.5;" width="83" x="133.5" y="340.4"/><ellipse cx="148.5" cy="356.4" fill="#ADD1B2" rx="11" ry="11" style="stroke: #A80036; stroke-width: 1.0;"/><path d="M150.9731,362.5431 Q150.3921,362.8419 149.7529,362.9913 Q149.1138,363.1407 148.4082,363.1407 Q145.9014,363.1407 144.5815,361.4889 Q143.2617,359.837 143.2617,356.7159 Q143.2617,353.5865 144.5815,351.9347 Q145.9014,350.2828 148.4082,350.2828 Q149.1138,350.2828 149.7612,350.4322 Q150.4087,350.5816 150.9731,350.8805 L150.9731,353.6031 Q150.3423,353.0221 149.7488,352.7523 Q149.1553,352.4825 148.5244,352.4825 Q147.1797,352.4825 146.4949,353.5492 Q145.8101,354.6158 145.8101,356.7159 Q145.8101,358.8077 146.4949,359.8744 Q147.1797,360.941 148.5244,360.941 Q149.1553,360.941 149.7488,360.6712 Q150.3423,360.4015 150.9731,359.8204 Z "/><text fill="#000000" font-family="sans-serif" font-size="12" lengthAdjust="spacingAndGlyphs" textLength="51" x="162.5" y="360.9352">Category</text><line style="stroke: #A80036; stroke-width: 1.5;" x1="134.5" x2="215.5" y1="372.4" y2="372.4"/><text fill="#000000" font-family="sans-serif" font-size="11" lengthAdjust="spacingAndGlyphs" textLength="43" x="139.5" y="387.0348">id: UUID</text><text fill="#000000" font-family="sans-serif" font-size="11" lengthAdjust="spacingAndGlyphs" textLength="67" x="139.5" y="399.9898">name: String</text><line style="stroke: #A80036; stroke-width: 1.5;" x1="134.5" x2="215.5" y1="406.3102" y2="406.3102"/><rect fill="#FEFECE" filter="url(#f1)" height="203.4609" style="stroke: #A80036; stroke-width: 1.5;" width="172" x="252" y="275.63"/><ellipse cx="269.7" cy="291.63" fill="#ADD1B2" rx="11" ry="11" style="stroke: #A80036; stroke-width: 1.0;"/><path d="M272.1731,297.7731 Q271.5921,298.0719 270.9529,298.2213 Q270.3138,298.3707 269.6082,298.3707 Q267.1014,298.3707 265.7815,296.7189 Q264.4617,295.067 264.4617,291.9459 Q264.4617,288.8165 265.7815,287.1647 Q267.1014,285.5128 269.6082,285.5128 Q270.3138,285.5128 270.9612,285.6622 Q271.6087,285.8116 272.1731,286.1105 L272.1731,288.8331 Q271.5423,288.2521 270.9488,287.9823 Q270.3553,287.7125 269.7244,287.7125 Q268.3797,287.7125 267.6949,288.7792 Q267.0101,289.8458 267.0101,291.9459 Q267.0101,294.0377 267.6949,295.1044 Q268.3797,296.171 269.7244,296.171 Q270.3553,296.171 270.9488,295.9012 Q271.5423,295.6315 272.1731,295.0504 Z "/><text fill="#000000" font-family="sans-serif" font-size="12" lengthAdjust="spacingAndGlyphs" textLength="134" x="284.3" y="296.1652">TransactionRequestDto</text><line style="stroke: #A80036; stroke-width: 1.5;" x1="253" x2="423" y1="307.63" y2="307.63"/><text fill="#000000" font-family="sans-serif" font-size="11" lengthAdjust="spacingAndGlyphs" textLength="102" x="258" y="322.2648">personType: String</text><text fill="#000000" font-family="sans-serif" font-size="11" lengthAdjust="spacingAndGlyphs" textLength="160" x="258" y="335.2198">operationDate: LocalDateTime</text><text fill="#000000" font-family="sans-serif" font-size="11" lengthAdjust="spacingAndGlyphs" textLength="125" x="258" y="348.1749">transactionType: String</text><text fill="#000000" font-family="sans-serif" font-size="11" lengthAdjust="spacingAndGlyphs" textLength="105" x="258" y="361.13">amount: BigDecimal</text><text fill="#000000" font-family="sans-serif" font-size="11" lengthAdjust="spacingAndGlyphs" textLength="71" x="258" y="374.0851">status: String</text><text fill="#000000" font-family="sans-serif" font-size="11" lengthAdjust="spacingAndGlyphs" textLength="100" x="258" y="387.0402">senderBank: String</text><text fill="#000000" font-family="sans-serif" font-size="11" lengthAdjust="spacingAndGlyphs" textLength="81" x="258" y="399.9952">account: String</text><text fill="#000000" font-family="sans-serif" font-size="11" lengthAdjust="spacingAndGlyphs" textLength="106" x="258" y="412.9503">receiverBank: String</text><text fill="#000000" font-family="sans-serif" font-size="11" lengthAdjust="spacingAndGlyphs" textLength="126" x="258" y="425.9054">receiverAccount: String</text><text fill="#000000" font-family="sans-serif" font-size="11" lengthAdjust="spacingAndGlyphs" textLength="98" x="258" y="438.8605">receiverInn: String</text><text fill="#000000" font-family="sans-serif" font-size="11" lengthAdjust="spacingAndGlyphs" textLength="85" x="258" y="451.8155">category: String</text><text fill="#000000" font-family="sans-serif" font-size="11" lengthAdjust="spacingAndGlyphs" textLength="114" x="258" y="464.7706">receiverPhone: String</text><line style="stroke: #A80036; stroke-width: 1.5;" x1="253" x2="423" y1="471.0909" y2="471.0909"/><rect fill="#FEFECE" filter="url(#f1)" height="190.5059" style="stroke: #A80036; stroke-width: 1.5;" width="175" x="459.5" y="282.11"/><ellipse cx="474.5" cy="298.11" fill="#ADD1B2" rx="11" ry="11" style="stroke: #A80036; stroke-width: 1.0;"/><path d="M476.9731,304.2531 Q476.3921,304.5519 475.7529,304.7013 Q475.1138,304.8507 474.4082,304.8507 Q471.9014,304.8507 470.5815,303.1989 Q469.2617,301.547 469.2617,298.4259 Q469.2617,295.2965 470.5815,293.6447 Q471.9014,291.9928 474.4082,291.9928 Q475.1138,291.9928 475.7612,292.1422 Q476.4087,292.2916 476.9731,292.5905 L476.9731,295.3131 Q476.3423,294.7321 475.7488,294.4623 Q475.1553,294.1925 474.5244,294.1925 Q473.1797,294.1925 472.4949,295.2592 Q471.8101,296.3258 471.8101,298.4259 Q471.8101,300.5177 472.4949,301.5844 Q473.1797,302.651 474.5244,302.651 Q475.1553,302.651 475.7488,302.3812 Q476.3423,302.1115 476.9731,301.5304 Z "/><text fill="#000000" font-family="sans-serif" font-size="12" lengthAdjust="spacingAndGlyphs" textLength="143" x="488.5" y="302.6452">TransactionResponseDto</text><line style="stroke: #A80036; stroke-width: 1.5;" x1="460.5" x2="633.5" y1="314.11" y2="314.11"/><text fill="#000000" font-family="sans-serif" font-size="11" lengthAdjust="spacingAndGlyphs" textLength="43" x="465.5" y="328.7448">id: UUID</text><text fill="#000000" font-family="sans-serif" font-size="11" lengthAdjust="spacingAndGlyphs" textLength="102" x="465.5" y="341.6998">personType: String</text><text fill="#000000" font-family="sans-serif" font-size="11" lengthAdjust="spacingAndGlyphs" textLength="160" x="465.5" y="354.6549">operationDate: LocalDateTime</text><text fill="#000000" font-family="sans-serif" font-size="11" lengthAdjust="spacingAndGlyphs" textLength="125" x="465.5" y="367.61">transactionType: String</text><text fill="#000000" font-family="sans-serif" font-size="11" lengthAdjust="spacingAndGlyphs" textLength="105" x="465.5" y="380.5651">amount: BigDecimal</text><text fill="#000000" font-family="sans-serif" font-size="11" lengthAdjust="spacingAndGlyphs" textLength="71" x="465.5" y="393.5202">status: String</text><text fill="#000000" font-family="sans-serif" font-size="11" lengthAdjust="spacingAndGlyphs" textLength="100" x="465.5" y="406.4752">senderBank: String</text><text fill="#000000" font-family="sans-serif" font-size="11" lengthAdjust="spacingAndGlyphs" textLength="106" x="465.5" y="419.4303">receiverBank: String</text><text fill="#000000" font-family="sans-serif" font-size="11" lengthAdjust="spacingAndGlyphs" textLength="98" x="465.5" y="432.3854">receiverInn: String</text><text fill="#000000" font-family="sans-serif" font-size="11" lengthAdjust="spacingAndGlyphs" textLength="85" x="465.5" y="445.3405">category: String</text><text fill="#000000" font-family="sans-serif" font-size="11" lengthAdjust="spacingAndGlyphs" textLength="114" x="465.5" y="458.2955">receiverPhone: String</text><line style="stroke: #A80036; stroke-width: 1.5;" x1="460.5" x2="633.5" y1="464.6159" y2="464.6159"/><rect fill="#FEFECE" filter="url(#f1)" height="60.9551" style="stroke: #A80036; stroke-width: 1.5;" width="150" x="6" y="562.57"/><ellipse cx="21" cy="578.57" fill="#ADD1B2" rx="11" ry="11" style="stroke: #A80036; stroke-width: 1.0;"/><path d="M23.4731,584.7131 Q22.8921,585.0119 22.2529,585.1613 Q21.6138,585.3107 20.9082,585.3107 Q18.4014,585.3107 17.0815,583.6589 Q15.7617,582.007 15.7617,578.8859 Q15.7617,575.7565 17.0815,574.1047 Q18.4014,572.4528 20.9082,572.4528 Q21.6138,572.4528 22.2612,572.6022 Q22.9087,572.7516 23.4731,573.0505 L23.4731,575.7731 Q22.8423,575.1921 22.2488,574.9223 Q21.6553,574.6525 21.0244,574.6525 Q19.6797,574.6525 18.9949,575.7192 Q18.3101,576.7858 18.3101,578.8859 Q18.3101,580.9777 18.9949,582.0444 Q19.6797,583.111 21.0244,583.111 Q21.6553,583.111 22.2488,582.8412 Q22.8423,582.5715 23.4731,581.9904 Z "/><text fill="#000000" font-family="sans-serif" font-size="12" lengthAdjust="spacingAndGlyphs" textLength="118" x="35" y="583.1052">CategoryRequestDto</text><line style="stroke: #A80036; stroke-width: 1.5;" x1="7" x2="155" y1="594.57" y2="594.57"/><text fill="#000000" font-family="sans-serif" font-size="11" lengthAdjust="spacingAndGlyphs" textLength="67" x="12" y="609.2048">name: String</text><line style="stroke: #A80036; stroke-width: 1.5;" x1="7" x2="155" y1="615.5251" y2="615.5251"/><rect fill="#FEFECE" filter="url(#f1)" height="73.9102" style="stroke: #A80036; stroke-width: 1.5;" width="159" x="190.5" y="556.09"/><ellipse cx="205.5" cy="572.09" fill="#ADD1B2" rx="11" ry="11" style="stroke: #A80036; stroke-width: 1.0;"/><path d="M207.9731,578.2331 Q207.3921,578.5319 206.7529,578.6813 Q206.1138,578.8307 205.4082,578.8307 Q202.9014,578.8307 201.5815,577.1789 Q200.2617,575.527 200.2617,572.4059 Q200.2617,569.2765 201.5815,567.6247 Q202.9014,565.9728 205.4082,565.9728 Q206.1138,565.9728 206.7612,566.1222 Q207.4087,566.2716 207.9731,566.5705 L207.9731,569.2931 Q207.3423,568.7121 206.7488,568.4423 Q206.1553,568.1725 205.5244,568.1725 Q204.1797,568.1725 203.4949,569.2392 Q202.8101,570.3058 202.8101,572.4059 Q202.8101,574.4977 203.4949,575.5644 Q204.1797,576.631 205.5244,576.631 Q206.1553,576.631 206.7488,576.3612 Q207.3423,576.0915 207.9731,575.5104 Z "/><text fill="#000000" font-family="sans-serif" font-size="12" lengthAdjust="spacingAndGlyphs" textLength="127" x="219.5" y="576.6252">CategoryResponseDto</text><line style="stroke: #A80036; stroke-width: 1.5;" x1="191.5" x2="348.5" y1="588.09" y2="588.09"/><text fill="#000000" font-family="sans-serif" font-size="11" lengthAdjust="spacingAndGlyphs" textLength="43" x="196.5" y="602.7248">id: UUID</text><text fill="#000000" font-family="sans-serif" font-size="11" lengthAdjust="spacingAndGlyphs" textLength="67" x="196.5" y="615.6798">name: String</text><line style="stroke: #A80036; stroke-width: 1.5;" x1="191.5" x2="348.5" y1="622.0002" y2="622.0002"/><path d="M338,199.12 C338,223.8 338,250.49 338,275.48 " fill="none" style="stroke: #A80036; stroke-width: 1.0;"/><text fill="#000000" font-family="sans-serif" font-size="13" lengthAdjust="spacingAndGlyphs" textLength="51" x="339" y="242.1984">maps to</text><text fill="#000000" font-family="sans-serif" font-size="13" lengthAdjust="spacingAndGlyphs" textLength="8" x="329.7063" y="219.282">1</text><text fill="#000000" font-family="sans-serif" font-size="13" lengthAdjust="spacingAndGlyphs" textLength="22" x="315.1922" y="265.0271">0..*</text><path d="M410.8,199.12 C431.42,225.95 453.86,255.14 474.46,281.95 " fill="none" style="stroke: #A80036; stroke-width: 1.0;"/><text fill="#000000" font-family="sans-serif" font-size="13" lengthAdjust="spacingAndGlyphs" textLength="51" x="443.5" y="242.1984">maps to</text><text fill="#000000" font-family="sans-serif" font-size="13" lengthAdjust="spacingAndGlyphs" textLength="8" x="407.8525" y="219.282">1</text><text fill="#000000" font-family="sans-serif" font-size="13" lengthAdjust="spacingAndGlyphs" textLength="22" x="445.8029" y="271.3299">0..*</text><path d="M159.05,414.61 C140.77,456.16 111.15,523.51 94.14,562.18 " fill="none" style="stroke: #A80036; stroke-width: 1.0;"/><text fill="#000000" font-family="sans-serif" font-size="13" lengthAdjust="spacingAndGlyphs" textLength="51" x="117.82" y="522.6584">maps to</text><text fill="#000000" font-family="sans-serif" font-size="13" lengthAdjust="spacingAndGlyphs" textLength="8" x="147.6211" y="434.8973">1</text><text fill="#000000" font-family="sans-serif" font-size="13" lengthAdjust="spacingAndGlyphs" textLength="22" x="72.5814" y="551.8671">0..*</text><path d="M191.12,414.61 C208.58,453.9 236.31,516.25 253.81,555.62 " fill="none" style="stroke: #A80036; stroke-width: 1.0;"/><text fill="#000000" font-family="sans-serif" font-size="13" lengthAdjust="spacingAndGlyphs" textLength="51" x="240.27" y="522.6584">maps to</text><text fill="#000000" font-family="sans-serif" font-size="13" lengthAdjust="spacingAndGlyphs" textLength="8" x="185.2031" y="434.8973">1</text><text fill="#000000" font-family="sans-serif" font-size="13" lengthAdjust="spacingAndGlyphs" textLength="22" x="226.9668" y="545.2137">0..*</text><path d="M279.08,198.85 C272.94,208.88 266.82,218.95 261,228.63 C239.63,264.19 215.96,304.97 198.87,334.66 " fill="none" style="stroke: #A80036; stroke-width: 1.0;"/><polygon fill="#A80036" points="196.51,338.76,204.4667,332.9557,199.0045,334.4267,197.5335,328.9645,196.51,338.76" style="stroke: #A80036; stroke-width: 1.0;"/><text fill="#000000" font-family="sans-serif" font-size="13" lengthAdjust="spacingAndGlyphs" textLength="67" x="262" y="242.1984">belongs to</text></g></svg>
