<?xml version="1.0" encoding="UTF-8" standalone="yes"?><svg xmlns="http://www.w3.org/2000/svg" xmlns:xlink="http://www.w3.org/1999/xlink" height="1089px" style="width:1786px;height:1089px;" version="1.1" viewBox="0 0 1786 1089" width="1786px"><defs><filter height="300%" id="f1" width="300%" x="-1" y="-1"><feGaussianBlur result="blurOut" stdDeviation="2.0"/><feColorMatrix in="blurOut" result="blurOut2" type="matrix" values="0 0 0 0 0 0 0 0 0 0 0 0 0 0 0 0 0 0 .4 0"/><feOffset dx="4.0" dy="4.0" in="blurOut2" result="blurOut3"/><feBlend in="SourceGraphic" in2="blurOut3" mode="normal"/></filter></defs><g><polygon fill="#FFFFFF" filter="url(#f1)" points="22,24.26,189,24.26,196,46.7483,1779,46.7483,1779,1082,22,1082,22,24.26" style="stroke: #000000; stroke-width: 2.0;"/><line style="stroke: #000000; stroke-width: 2.0;" x1="22" x2="196" y1="46.7483" y2="46.7483"/><text fill="#000000" font-family="sans-serif" font-size="14" font-weight="bold" lengthAdjust="spacingAndGlyphs" textLength="161" x="26" y="39.7952">team.mephi.hackathon</text><polygon fill="#FFFFFF" filter="url(#f1)" points="1001,703.58,1031,703.58,1038,726.0683,1412,726.0683,1412,971,1001,971,1001,703.58" style="stroke: #000000; stroke-width: 2.0;"/><line style="stroke: #000000; stroke-width: 2.0;" x1="1001" x2="1038" y1="726.0683" y2="726.0683"/><text fill="#000000" font-family="sans-serif" font-size="14" font-weight="bold" lengthAdjust="spacingAndGlyphs" textLength="24" x="1005" y="719.1152">dto</text><polygon fill="#FFFFFF" filter="url(#f1)" points="1436,703.58,1484,703.58,1491,726.0683,1755,726.0683,1755,971,1436,971,1436,703.58" style="stroke: #000000; stroke-width: 2.0;"/><line style="stroke: #000000; stroke-width: 2.0;" x1="1436" x2="1491" y1="726.0683" y2="726.0683"/><text fill="#000000" font-family="sans-serif" font-size="14" font-weight="bold" lengthAdjust="spacingAndGlyphs" textLength="42" x="1440" y="719.1152">entity</text><polygon fill="#FFFFFF" filter="url(#f1)" points="894,490.81,974,490.81,981,513.2983,1265,513.2983,1265,628.67,894,628.67,894,490.81" style="stroke: #000000; stroke-width: 2.0;"/><line style="stroke: #000000; stroke-width: 2.0;" x1="894" x2="981" y1="513.2983" y2="513.2983"/><text fill="#000000" font-family="sans-serif" font-size="14" font-weight="bold" lengthAdjust="spacingAndGlyphs" textLength="74" x="898" y="506.3452">repository</text><polygon fill="#FFFFFF" filter="url(#f1)" points="465,267.08,521,267.08,528,289.5683,870,289.5683,870,628.67,465,628.67,465,267.08" style="stroke: #000000; stroke-width: 2.0;"/><line style="stroke: #000000; stroke-width: 2.0;" x1="465" x2="528" y1="289.5683" y2="289.5683"/><text fill="#000000" font-family="sans-serif" font-size="14" font-weight="bold" lengthAdjust="spacingAndGlyphs" textLength="50" x="469" y="282.6152">service</text><polygon fill="#FFFFFF" filter="url(#f1)" points="448,67.26,524,67.26,531,89.7483,1074,89.7483,1074,218.08,448,218.08,448,67.26" style="stroke: #000000; stroke-width: 2.0;"/><line style="stroke: #000000; stroke-width: 2.0;" x1="448" x2="531" y1="89.7483" y2="89.7483"/><text fill="#000000" font-family="sans-serif" font-size="14" font-weight="bold" lengthAdjust="spacingAndGlyphs" textLength="70" x="452" y="82.7952">controller</text><polygon fill="#FFFFFF" filter="url(#f1)" points="894,280.03,977,280.03,984,302.5183,1508,302.5183,1508,404.94,894,404.94,894,280.03" style="stroke: #000000; stroke-width: 2.0;"/><line style="stroke: #000000; stroke-width: 2.0;" x1="894" x2="984" y1="302.5183" y2="302.5183"/><text fill="#000000" font-family="sans-serif" font-size="14" font-weight="bold" lengthAdjust="spacingAndGlyphs" textLength="77" x="898" y="295.5652">exceptions</text><polygon fill="#FFFFFF" filter="url(#f1)" points="1289,464.9,1387,464.9,1394,487.3883,1491,487.3883,1491,654.58,1289,654.58,1289,464.9" style="stroke: #000000; stroke-width: 2.0;"/><line style="stroke: #000000; stroke-width: 2.0;" x1="1289" x2="1394" y1="487.3883" y2="487.3883"/><text fill="#000000" font-family="sans-serif" font-size="14" font-weight="bold" lengthAdjust="spacingAndGlyphs" textLength="92" x="1293" y="480.4352">specification</text><polygon fill="#FFFFFF" filter="url(#f1)" points="46,273.56,109,273.56,116,296.0483,441,296.0483,441,411.42,46,411.42,46,273.56" style="stroke: #000000; stroke-width: 2.0;"/><line style="stroke: #000000; stroke-width: 2.0;" x1="46" x2="116" y1="296.0483" y2="296.0483"/><text fill="#000000" font-family="sans-serif" font-size="14" font-weight="bold" lengthAdjust="spacingAndGlyphs" textLength="57" x="50" y="289.0952">security</text><polygon fill="#FFFFFF" filter="url(#f1)" points="1515,503.76,1554,503.76,1561,526.2483,1755,526.2483,1755,615.72,1515,615.72,1515,503.76" style="stroke: #000000; stroke-width: 2.0;"/><line style="stroke: #000000; stroke-width: 2.0;" x1="1515" x2="1561" y1="526.2483" y2="526.2483"/><text fill="#000000" font-family="sans-serif" font-size="14" font-weight="bold" lengthAdjust="spacingAndGlyphs" textLength="33" x="1519" y="519.2952">utils</text><rect fill="#FEFECE" filter="url(#f1)" height="48" style="stroke: #A80036; stroke-width: 1.5;" width="127" x="1552.5" y="1018"/><ellipse cx="1567.5" cy="1034" fill="#ADD1B2" rx="11" ry="11" style="stroke: #A80036; stroke-width: 1.0;"/><path d="M1569.9731,1040.1431 Q1569.3921,1040.4419 1568.7529,1040.5913 Q1568.1138,1040.7407 1567.4082,1040.7407 Q1564.9014,1040.7407 1563.5815,1039.0889 Q1562.2617,1037.437 1562.2617,1034.3159 Q1562.2617,1031.1865 1563.5815,1029.5347 Q1564.9014,1027.8828 1567.4082,1027.8828 Q1568.1138,1027.8828 1568.7612,1028.0322 Q1569.4087,1028.1816 1569.9731,1028.4805 L1569.9731,1031.2031 Q1569.3423,1030.6221 1568.7488,1030.3523 Q1568.1553,1030.0825 1567.5244,1030.0825 Q1566.1797,1030.0825 1565.4949,1031.1492 Q1564.8101,1032.2158 1564.8101,1034.3159 Q1564.8101,1036.4077 1565.4949,1037.4744 Q1566.1797,1038.541 1567.5244,1038.541 Q1568.1553,1038.541 1568.7488,1038.2712 Q1569.3423,1038.0015 1569.9731,1037.4204 Z "/><text fill="#000000" font-family="sans-serif" font-size="12" lengthAdjust="spacingAndGlyphs" textLength="95" x="1581.5" y="1038.5352">JPAEntitySupport</text><line style="stroke: #A80036; stroke-width: 1.5;" x1="1553.5" x2="1678.5" y1="1050" y2="1050"/><line style="stroke: #A80036; stroke-width: 1.5;" x1="1553.5" x2="1678.5" y1="1058" y2="1058"/><rect fill="#FEFECE" filter="url(#f1)" height="203.4609" style="stroke: #A80036; stroke-width: 1.5;" width="169" x="1016.5" y="745.06"/><ellipse cx="1032.85" cy="761.06" fill="#ADD1B2" rx="11" ry="11" style="stroke: #A80036; stroke-width: 1.0;"/><path d="M1035.3231,767.2031 Q1034.7421,767.5019 1034.1029,767.6513 Q1033.4638,767.8007 1032.7582,767.8007 Q1030.2514,767.8007 1028.9315,766.1489 Q1027.6117,764.497 1027.6117,761.3759 Q1027.6117,758.2465 1028.9315,756.5947 Q1030.2514,754.9428 1032.7582,754.9428 Q1033.4638,754.9428 1034.1112,755.0922 Q1034.7587,755.2416 1035.3231,755.5405 L1035.3231,758.2631 Q1034.6923,757.6821 1034.0988,757.4123 Q1033.5053,757.1425 1032.8744,757.1425 Q1031.5297,757.1425 1030.8449,758.2092 Q1030.1601,759.2758 1030.1601,761.3759 Q1030.1601,763.4677 1030.8449,764.5344 Q1031.5297,765.601 1032.8744,765.601 Q1033.5053,765.601 1034.0988,765.3312 Q1034.6923,765.0615 1035.3231,764.4804 Z "/><text fill="#000000" font-family="sans-serif" font-size="12" lengthAdjust="spacingAndGlyphs" textLength="134" x="1047.15" y="765.5952">TransactionRequestDto</text><line style="stroke: #A80036; stroke-width: 1.5;" x1="1017.5" x2="1184.5" y1="777.06" y2="777.06"/><text fill="#000000" font-family="sans-serif" font-size="11" lengthAdjust="spacingAndGlyphs" textLength="99" x="1022.5" y="791.6948">String personType</text><text fill="#000000" font-family="sans-serif" font-size="11" lengthAdjust="spacingAndGlyphs" textLength="157" x="1022.5" y="804.6498">LocalDateTime operationDate</text><text fill="#000000" font-family="sans-serif" font-size="11" lengthAdjust="spacingAndGlyphs" textLength="122" x="1022.5" y="817.6049">String transactionType</text><text fill="#000000" font-family="sans-serif" font-size="11" lengthAdjust="spacingAndGlyphs" textLength="102" x="1022.5" y="830.56">BigDecimal amount</text><text fill="#000000" font-family="sans-serif" font-size="11" lengthAdjust="spacingAndGlyphs" textLength="68" x="1022.5" y="843.5151">String status</text><text fill="#000000" font-family="sans-serif" font-size="11" lengthAdjust="spacingAndGlyphs" textLength="97" x="1022.5" y="856.4702">String senderBank</text><text fill="#000000" font-family="sans-serif" font-size="11" lengthAdjust="spacingAndGlyphs" textLength="78" x="1022.5" y="869.4252">String account</text><text fill="#000000" font-family="sans-serif" font-size="11" lengthAdjust="spacingAndGlyphs" textLength="103" x="1022.5" y="882.3803">String receiverBank</text><text fill="#000000" font-family="sans-serif" font-size="11" lengthAdjust="spacingAndGlyphs" textLength="123" x="1022.5" y="895.3354">String receiverAccount</text><text fill="#000000" font-family="sans-serif" font-size="11" lengthAdjust="spacingAndGlyphs" textLength="95" x="1022.5" y="908.2905">String receiverInn</text><text fill="#000000" font-family="sans-serif" font-size="11" lengthAdjust="spacingAndGlyphs" textLength="82" x="1022.5" y="921.2455">String category</text><text fill="#000000" font-family="sans-serif" font-size="11" lengthAdjust="spacingAndGlyphs" textLength="111" x="1022.5" y="934.2006">String receiverPhone</text><line style="stroke: #A80036; stroke-width: 1.5;" x1="1017.5" x2="1184.5" y1="940.5209" y2="940.5209"/><rect fill="#FEFECE" filter="url(#f1)" height="216.416" style="stroke: #A80036; stroke-width: 1.5;" width="175" x="1220.5" y="738.58"/><ellipse cx="1235.5" cy="754.58" fill="#ADD1B2" rx="11" ry="11" style="stroke: #A80036; stroke-width: 1.0;"/><path d="M1237.9731,760.7231 Q1237.3921,761.0219 1236.7529,761.1713 Q1236.1138,761.3207 1235.4082,761.3207 Q1232.9014,761.3207 1231.5815,759.6689 Q1230.2617,758.017 1230.2617,754.8959 Q1230.2617,751.7665 1231.5815,750.1147 Q1232.9014,748.4628 1235.4082,748.4628 Q1236.1138,748.4628 1236.7612,748.6122 Q1237.4087,748.7616 1237.9731,749.0605 L1237.9731,751.7831 Q1237.3423,751.2021 1236.7488,750.9323 Q1236.1553,750.6625 1235.5244,750.6625 Q1234.1797,750.6625 1233.4949,751.7292 Q1232.8101,752.7958 1232.8101,754.8959 Q1232.8101,756.9877 1233.4949,758.0544 Q1234.1797,759.121 1235.5244,759.121 Q1236.1553,759.121 1236.7488,758.8512 Q1237.3423,758.5815 1237.9731,758.0004 Z "/><text fill="#000000" font-family="sans-serif" font-size="12" lengthAdjust="spacingAndGlyphs" textLength="143" x="1249.5" y="759.1152">TransactionResponseDto</text><line style="stroke: #A80036; stroke-width: 1.5;" x1="1221.5" x2="1394.5" y1="770.58" y2="770.58"/><text fill="#000000" font-family="sans-serif" font-size="11" lengthAdjust="spacingAndGlyphs" textLength="40" x="1226.5" y="785.2148">UUID id</text><text fill="#000000" font-family="sans-serif" font-size="11" lengthAdjust="spacingAndGlyphs" textLength="99" x="1226.5" y="798.1698">String personType</text><text fill="#000000" font-family="sans-serif" font-size="11" lengthAdjust="spacingAndGlyphs" textLength="157" x="1226.5" y="811.1249">LocalDateTime operationDate</text><text fill="#000000" font-family="sans-serif" font-size="11" lengthAdjust="spacingAndGlyphs" textLength="122" x="1226.5" y="824.08">String transactionType</text><text fill="#000000" font-family="sans-serif" font-size="11" lengthAdjust="spacingAndGlyphs" textLength="102" x="1226.5" y="837.0351">BigDecimal amount</text><text fill="#000000" font-family="sans-serif" font-size="11" lengthAdjust="spacingAndGlyphs" textLength="68" x="1226.5" y="849.9902">String status</text><text fill="#000000" font-family="sans-serif" font-size="11" lengthAdjust="spacingAndGlyphs" textLength="97" x="1226.5" y="862.9452">String senderBank</text><text fill="#000000" font-family="sans-serif" font-size="11" lengthAdjust="spacingAndGlyphs" textLength="78" x="1226.5" y="875.9003">String account</text><text fill="#000000" font-family="sans-serif" font-size="11" lengthAdjust="spacingAndGlyphs" textLength="103" x="1226.5" y="888.8554">String receiverBank</text><text fill="#000000" font-family="sans-serif" font-size="11" lengthAdjust="spacingAndGlyphs" textLength="123" x="1226.5" y="901.8105">String receiverAccount</text><text fill="#000000" font-family="sans-serif" font-size="11" lengthAdjust="spacingAndGlyphs" textLength="95" x="1226.5" y="914.7655">String receiverInn</text><text fill="#000000" font-family="sans-serif" font-size="11" lengthAdjust="spacingAndGlyphs" textLength="82" x="1226.5" y="927.7206">String category</text><text fill="#000000" font-family="sans-serif" font-size="11" lengthAdjust="spacingAndGlyphs" textLength="111" x="1226.5" y="940.6757">String receiverPhone</text><line style="stroke: #A80036; stroke-width: 1.5;" x1="1221.5" x2="1394.5" y1="946.996" y2="946.996"/><rect fill="#FEFECE" filter="url(#f1)" height="216.416" style="stroke: #A80036; stroke-width: 1.5;" width="169" x="1451.5" y="738.58"/><ellipse cx="1498.25" cy="754.58" fill="#ADD1B2" rx="11" ry="11" style="stroke: #A80036; stroke-width: 1.0;"/><path d="M1500.7231,760.7231 Q1500.1421,761.0219 1499.5029,761.1713 Q1498.8638,761.3207 1498.1582,761.3207 Q1495.6514,761.3207 1494.3315,759.6689 Q1493.0117,758.017 1493.0117,754.8959 Q1493.0117,751.7665 1494.3315,750.1147 Q1495.6514,748.4628 1498.1582,748.4628 Q1498.8638,748.4628 1499.5112,748.6122 Q1500.1587,748.7616 1500.7231,749.0605 L1500.7231,751.7831 Q1500.0923,751.2021 1499.4988,750.9323 Q1498.9053,750.6625 1498.2744,750.6625 Q1496.9297,750.6625 1496.2449,751.7292 Q1495.5601,752.7958 1495.5601,754.8959 Q1495.5601,756.9877 1496.2449,758.0544 Q1496.9297,759.121 1498.2744,759.121 Q1498.9053,759.121 1499.4988,758.8512 Q1500.0923,758.5815 1500.7231,758.0004 Z "/><text fill="#000000" font-family="sans-serif" font-size="12" lengthAdjust="spacingAndGlyphs" textLength="67" x="1518.75" y="759.1152">Transaction</text><line style="stroke: #A80036; stroke-width: 1.5;" x1="1452.5" x2="1619.5" y1="770.58" y2="770.58"/><text fill="#000000" font-family="sans-serif" font-size="11" lengthAdjust="spacingAndGlyphs" textLength="40" x="1457.5" y="785.2148">UUID id</text><text fill="#000000" font-family="sans-serif" font-size="11" lengthAdjust="spacingAndGlyphs" textLength="130" x="1457.5" y="798.1698">PersonType personType</text><text fill="#000000" font-family="sans-serif" font-size="11" lengthAdjust="spacingAndGlyphs" textLength="157" x="1457.5" y="811.1249">LocalDateTime operationDate</text><text fill="#000000" font-family="sans-serif" font-size="11" lengthAdjust="spacingAndGlyphs" textLength="122" x="1457.5" y="824.08">String transactionType</text><text fill="#000000" font-family="sans-serif" font-size="11" lengthAdjust="spacingAndGlyphs" textLength="102" x="1457.5" y="837.0351">BigDecimal amount</text><text fill="#000000" font-family="sans-serif" font-size="11" lengthAdjust="spacingAndGlyphs" textLength="68" x="1457.5" y="849.9902">String status</text><text fill="#000000" font-family="sans-serif" font-size="11" lengthAdjust="spacingAndGlyphs" textLength="97" x="1457.5" y="862.9452">String senderBank</text><text fill="#000000" font-family="sans-serif" font-size="11" lengthAdjust="spacingAndGlyphs" textLength="78" x="1457.5" y="875.9003">String account</text><text fill="#000000" font-family="sans-serif" font-size="11" lengthAdjust="spacingAndGlyphs" textLength="103" x="1457.5" y="888.8554">String receiverBank</text><text fill="#000000" font-family="sans-serif" font-size="11" lengthAdjust="spacingAndGlyphs" textLength="123" x="1457.5" y="901.8105">String receiverAccount</text><text fill="#000000" font-family="sans-serif" font-size="11" lengthAdjust="spacingAndGlyphs" textLength="95" x="1457.5" y="914.7655">String receiverInn</text><text fill="#000000" font-family="sans-serif" font-size="11" lengthAdjust="spacingAndGlyphs" textLength="82" x="1457.5" y="927.7206">String category</text><text fill="#000000" font-family="sans-serif" font-size="11" lengthAdjust="spacingAndGlyphs" textLength="111" x="1457.5" y="940.6757">String receiverPhone</text><line style="stroke: #A80036; stroke-width: 1.5;" x1="1452.5" x2="1619.5" y1="946.996" y2="946.996"/><rect fill="#FEFECE" filter="url(#f1)" height="73.9102" style="stroke: #A80036; stroke-width: 1.5;" width="83" x="1655.5" y="809.84"/><ellipse cx="1670.5" cy="825.84" fill="#ADD1B2" rx="11" ry="11" style="stroke: #A80036; stroke-width: 1.0;"/><path d="M1672.9731,831.9831 Q1672.3921,832.2819 1671.7529,832.4313 Q1671.1138,832.5807 1670.4082,832.5807 Q1667.9014,832.5807 1666.5815,830.9289 Q1665.2617,829.277 1665.2617,826.1559 Q1665.2617,823.0265 1666.5815,821.3747 Q1667.9014,819.7228 1670.4082,819.7228 Q1671.1138,819.7228 1671.7612,819.8722 Q1672.4087,820.0216 1672.9731,820.3205 L1672.9731,823.0431 Q1672.3423,822.4621 1671.7488,822.1923 Q1671.1553,821.9225 1670.5244,821.9225 Q1669.1797,821.9225 1668.4949,822.9892 Q1667.8101,824.0558 1667.8101,826.1559 Q1667.8101,828.2477 1668.4949,829.3144 Q1669.1797,830.381 1670.5244,830.381 Q1671.1553,830.381 1671.7488,830.1112 Q1672.3423,829.8415 1672.9731,829.2604 Z "/><text fill="#000000" font-family="sans-serif" font-size="12" lengthAdjust="spacingAndGlyphs" textLength="51" x="1684.5" y="830.3752">Category</text><line style="stroke: #A80036; stroke-width: 1.5;" x1="1656.5" x2="1737.5" y1="841.84" y2="841.84"/><text fill="#000000" font-family="sans-serif" font-size="11" lengthAdjust="spacingAndGlyphs" textLength="40" x="1661.5" y="856.4748">UUID id</text><text fill="#000000" font-family="sans-serif" font-size="11" lengthAdjust="spacingAndGlyphs" textLength="64" x="1661.5" y="869.4298">String name</text><line style="stroke: #A80036; stroke-width: 1.5;" x1="1656.5" x2="1737.5" y1="875.7502" y2="875.7502"/><rect fill="#FEFECE" filter="url(#f1)" height="86.8652" style="stroke: #A80036; stroke-width: 1.5;" width="160" x="910" y="525.81"/><ellipse cx="925" cy="541.81" fill="#B4A7E5" rx="11" ry="11" style="stroke: #A80036; stroke-width: 1.0;"/><path d="M921.4277,538.0751 L921.4277,535.9169 L928.8071,535.9169 L928.8071,538.0751 L926.3418,538.0751 L926.3418,546.1518 L928.8071,546.1518 L928.8071,548.31 L921.4277,548.31 L921.4277,546.1518 L923.8931,546.1518 L923.8931,538.0751 Z "/><text fill="#000000" font-family="sans-serif" font-size="12" font-style="italic" lengthAdjust="spacingAndGlyphs" textLength="128" x="939" y="546.3452">TransactionRepository</text><line style="stroke: #A80036; stroke-width: 1.5;" x1="911" x2="1069" y1="557.81" y2="557.81"/><line style="stroke: #A80036; stroke-width: 1.5;" x1="911" x2="1069" y1="565.81" y2="565.81"/><text fill="#000000" font-family="sans-serif" font-size="11" lengthAdjust="spacingAndGlyphs" textLength="32" x="916" y="580.4448">save()</text><text fill="#000000" font-family="sans-serif" font-size="11" lengthAdjust="spacingAndGlyphs" textLength="51" x="916" y="593.3998">findById()</text><text fill="#000000" font-family="sans-serif" font-size="11" lengthAdjust="spacingAndGlyphs" textLength="111" x="916" y="606.3549">findAll(Specification)</text><rect fill="#FEFECE" filter="url(#f1)" height="73.9102" style="stroke: #A80036; stroke-width: 1.5;" width="144" x="1105" y="532.29"/><ellipse cx="1120" cy="548.29" fill="#B4A7E5" rx="11" ry="11" style="stroke: #A80036; stroke-width: 1.0;"/><path d="M1116.4277,544.5551 L1116.4277,542.3969 L1123.8071,542.3969 L1123.8071,544.5551 L1121.3418,544.5551 L1121.3418,552.6318 L1123.8071,552.6318 L1123.8071,554.79 L1116.4277,554.79 L1116.4277,552.6318 L1118.8931,552.6318 L1118.8931,544.5551 Z "/><text fill="#000000" font-family="sans-serif" font-size="12" font-style="italic" lengthAdjust="spacingAndGlyphs" textLength="112" x="1134" y="552.8252">CategoryRepository</text><line style="stroke: #A80036; stroke-width: 1.5;" x1="1106" x2="1248" y1="564.29" y2="564.29"/><line style="stroke: #A80036; stroke-width: 1.5;" x1="1106" x2="1248" y1="572.29" y2="572.29"/><text fill="#000000" font-family="sans-serif" font-size="11" lengthAdjust="spacingAndGlyphs" textLength="32" x="1111" y="586.9248">save()</text><text fill="#000000" font-family="sans-serif" font-size="11" lengthAdjust="spacingAndGlyphs" textLength="71" x="1111" y="599.8798">findByName()</text><rect fill="#FEFECE" filter="url(#f1)" height="99.8203" style="stroke: #A80036; stroke-width: 1.5;" width="139" x="481.5" y="302.08"/><ellipse cx="496.5" cy="318.08" fill="#ADD1B2" rx="11" ry="11" style="stroke: #A80036; stroke-width: 1.0;"/><path d="M498.9731,324.2231 Q498.3921,324.5219 497.7529,324.6713 Q497.1138,324.8207 496.4082,324.8207 Q493.9014,324.8207 492.5815,323.1689 Q491.2617,321.517 491.2617,318.3959 Q491.2617,315.2665 492.5815,313.6147 Q493.9014,311.9628 496.4082,311.9628 Q497.1138,311.9628 497.7612,312.1122 Q498.4087,312.2616 498.9731,312.5605 L498.9731,315.2831 Q498.3423,314.7021 497.7488,314.4323 Q497.1553,314.1625 496.5244,314.1625 Q495.1797,314.1625 494.4949,315.2292 Q493.8101,316.2958 493.8101,318.3959 Q493.8101,320.4877 494.4949,321.5544 Q495.1797,322.621 496.5244,322.621 Q497.1553,322.621 497.7488,322.3512 Q498.3423,322.0815 498.9731,321.5004 Z "/><text fill="#000000" font-family="sans-serif" font-size="12" lengthAdjust="spacingAndGlyphs" textLength="107" x="510.5" y="322.6152">TransactionService</text><line style="stroke: #A80036; stroke-width: 1.5;" x1="482.5" x2="619.5" y1="334.08" y2="334.08"/><line style="stroke: #A80036; stroke-width: 1.5;" x1="482.5" x2="619.5" y1="342.08" y2="342.08"/><text fill="#000000" font-family="sans-serif" font-size="11" lengthAdjust="spacingAndGlyphs" textLength="59" x="487.5" y="356.7148">create(dto)</text><text fill="#000000" font-family="sans-serif" font-size="11" lengthAdjust="spacingAndGlyphs" textLength="79" x="487.5" y="369.6698">update(id, dto)</text><text fill="#000000" font-family="sans-serif" font-size="11" lengthAdjust="spacingAndGlyphs" textLength="57" x="487.5" y="382.6249">getById(id)</text><text fill="#000000" font-family="sans-serif" font-size="11" lengthAdjust="spacingAndGlyphs" textLength="75" x="487.5" y="395.58">search(filters)</text><rect fill="#FEFECE" filter="url(#f1)" height="86.8652" style="stroke: #A80036; stroke-width: 1.5;" width="129" x="605.5" y="525.81"/><ellipse cx="620.5" cy="541.81" fill="#ADD1B2" rx="11" ry="11" style="stroke: #A80036; stroke-width: 1.0;"/><path d="M622.9731,547.9531 Q622.3921,548.2519 621.7529,548.4013 Q621.1138,548.5507 620.4082,548.5507 Q617.9014,548.5507 616.5815,546.8989 Q615.2617,545.247 615.2617,542.1259 Q615.2617,538.9965 616.5815,537.3447 Q617.9014,535.6928 620.4082,535.6928 Q621.1138,535.6928 621.7612,535.8422 Q622.4087,535.9916 622.9731,536.2905 L622.9731,539.0131 Q622.3423,538.4321 621.7488,538.1623 Q621.1553,537.8925 620.5244,537.8925 Q619.1797,537.8925 618.4949,538.9592 Q617.8101,540.0258 617.8101,542.1259 Q617.8101,544.2177 618.4949,545.2844 Q619.1797,546.351 620.5244,546.351 Q621.1553,546.351 621.7488,546.0812 Q622.3423,545.8115 622.9731,545.2304 Z "/><text fill="#000000" font-family="sans-serif" font-size="12" lengthAdjust="spacingAndGlyphs" textLength="97" x="634.5" y="546.3452">ValidationService</text><line style="stroke: #A80036; stroke-width: 1.5;" x1="606.5" x2="733.5" y1="557.81" y2="557.81"/><line style="stroke: #A80036; stroke-width: 1.5;" x1="606.5" x2="733.5" y1="565.81" y2="565.81"/><text fill="#000000" font-family="sans-serif" font-size="11" lengthAdjust="spacingAndGlyphs" textLength="67" x="611.5" y="580.4448">validate(dto)</text><text fill="#000000" font-family="sans-serif" font-size="11" lengthAdjust="spacingAndGlyphs" textLength="94" x="611.5" y="593.3998">checkInnFormat()</text><text fill="#000000" font-family="sans-serif" font-size="11" lengthAdjust="spacingAndGlyphs" textLength="110" x="611.5" y="606.3549">checkPhoneFormat()</text><rect fill="#FEFECE" filter="url(#f1)" height="73.9102" style="stroke: #A80036; stroke-width: 1.5;" width="198" x="656" y="315.03"/><ellipse cx="711.25" cy="331.03" fill="#ADD1B2" rx="11" ry="11" style="stroke: #A80036; stroke-width: 1.0;"/><path d="M713.7231,337.1731 Q713.1421,337.4719 712.5029,337.6213 Q711.8638,337.7707 711.1582,337.7707 Q708.6514,337.7707 707.3315,336.1189 Q706.0117,334.467 706.0117,331.3459 Q706.0117,328.2165 707.3315,326.5647 Q708.6514,324.9128 711.1582,324.9128 Q711.8638,324.9128 712.5112,325.0622 Q713.1587,325.2116 713.7231,325.5105 L713.7231,328.2331 Q713.0923,327.6521 712.4988,327.3823 Q711.9053,327.1125 711.2744,327.1125 Q709.9297,327.1125 709.2449,328.1792 Q708.5601,329.2458 708.5601,331.3459 Q708.5601,333.4377 709.2449,334.5044 Q709.9297,335.571 711.2744,335.571 Q711.9053,335.571 712.4988,335.3012 Q713.0923,335.0315 713.7231,334.4504 Z "/><text fill="#000000" font-family="sans-serif" font-size="12" lengthAdjust="spacingAndGlyphs" textLength="79" x="731.75" y="335.5652">ReportService</text><line style="stroke: #A80036; stroke-width: 1.5;" x1="657" x2="853" y1="347.03" y2="347.03"/><line style="stroke: #A80036; stroke-width: 1.5;" x1="657" x2="853" y1="355.03" y2="355.03"/><text fill="#000000" font-family="sans-serif" font-size="11" lengthAdjust="spacingAndGlyphs" textLength="175" x="662" y="369.6648">generatePdfReport(transactions)</text><text fill="#000000" font-family="sans-serif" font-size="11" lengthAdjust="spacingAndGlyphs" textLength="186" x="662" y="382.6198">generateExcelReport(transactions)</text><rect fill="#FEFECE" filter="url(#f1)" height="99.8203" style="stroke: #A80036; stroke-width: 1.5;" width="173" x="464.5" y="102.26"/><ellipse cx="487.6" cy="118.26" fill="#ADD1B2" rx="11" ry="11" style="stroke: #A80036; stroke-width: 1.0;"/><path d="M490.0731,124.4031 Q489.4921,124.7019 488.8529,124.8513 Q488.2138,125.0007 487.5082,125.0007 Q485.0014,125.0007 483.6815,123.3489 Q482.3617,121.697 482.3617,118.5759 Q482.3617,115.4465 483.6815,113.7947 Q485.0014,112.1428 487.5082,112.1428 Q488.2138,112.1428 488.8612,112.2922 Q489.5087,112.4416 490.0731,112.7405 L490.0731,115.4631 Q489.4423,114.8821 488.8488,114.6123 Q488.2553,114.3425 487.6244,114.3425 Q486.2797,114.3425 485.5949,115.4092 Q484.9101,116.4758 484.9101,118.5759 Q484.9101,120.6677 485.5949,121.7344 Q486.2797,122.801 487.6244,122.801 Q488.2553,122.801 488.8488,122.5312 Q489.4423,122.2615 490.0731,121.6804 Z "/><text fill="#000000" font-family="sans-serif" font-size="12" lengthAdjust="spacingAndGlyphs" textLength="123" x="503.4" y="122.7952">TransactionController</text><line style="stroke: #A80036; stroke-width: 1.5;" x1="465.5" x2="636.5" y1="134.26" y2="134.26"/><text fill="#000000" font-family="sans-serif" font-size="11" lengthAdjust="spacingAndGlyphs" textLength="126" x="470.5" y="148.8948">POST /api/transactions</text><text fill="#000000" font-family="sans-serif" font-size="11" lengthAdjust="spacingAndGlyphs" textLength="119" x="470.5" y="161.8498">GET /api/transactions</text><text fill="#000000" font-family="sans-serif" font-size="11" lengthAdjust="spacingAndGlyphs" textLength="143" x="470.5" y="174.8049">PUT /api/transactions/{id}</text><text fill="#000000" font-family="sans-serif" font-size="11" lengthAdjust="spacingAndGlyphs" textLength="161" x="470.5" y="187.76">DELETE /api/transactions/{id}</text><line style="stroke: #A80036; stroke-width: 1.5;" x1="465.5" x2="636.5" y1="194.0803" y2="194.0803"/><rect fill="#FEFECE" filter="url(#f1)" height="73.9102" style="stroke: #A80036; stroke-width: 1.5;" width="139" x="672.5" y="115.21"/><ellipse cx="687.5" cy="131.21" fill="#ADD1B2" rx="11" ry="11" style="stroke: #A80036; stroke-width: 1.0;"/><path d="M689.9731,137.3531 Q689.3921,137.6519 688.7529,137.8013 Q688.1138,137.9507 687.4082,137.9507 Q684.9014,137.9507 683.5815,136.2989 Q682.2617,134.647 682.2617,131.5259 Q682.2617,128.3965 683.5815,126.7447 Q684.9014,125.0928 687.4082,125.0928 Q688.1138,125.0928 688.7612,125.2422 Q689.4087,125.3916 689.9731,125.6905 L689.9731,128.4131 Q689.3423,127.8321 688.7488,127.5623 Q688.1553,127.2925 687.5244,127.2925 Q686.1797,127.2925 685.4949,128.3592 Q684.8101,129.4258 684.8101,131.5259 Q684.8101,133.6177 685.4949,134.6844 Q686.1797,135.751 687.5244,135.751 Q688.1553,135.751 688.7488,135.4812 Q689.3423,135.2115 689.9731,134.6304 Z "/><text fill="#000000" font-family="sans-serif" font-size="12" lengthAdjust="spacingAndGlyphs" textLength="107" x="701.5" y="135.7452">CategoryController</text><line style="stroke: #A80036; stroke-width: 1.5;" x1="673.5" x2="810.5" y1="147.21" y2="147.21"/><text fill="#000000" font-family="sans-serif" font-size="11" lengthAdjust="spacingAndGlyphs" textLength="115" x="678.5" y="161.8448">POST /api/categories</text><text fill="#000000" font-family="sans-serif" font-size="11" lengthAdjust="spacingAndGlyphs" textLength="108" x="678.5" y="174.7998">GET /api/categories</text><line style="stroke: #A80036; stroke-width: 1.5;" x1="673.5" x2="810.5" y1="181.1202" y2="181.1202"/><rect fill="#FEFECE" filter="url(#f1)" height="73.9102" style="stroke: #A80036; stroke-width: 1.5;" width="211" x="846.5" y="115.21"/><ellipse cx="900.25" cy="131.21" fill="#ADD1B2" rx="11" ry="11" style="stroke: #A80036; stroke-width: 1.0;"/><path d="M902.7231,137.3531 Q902.1421,137.6519 901.5029,137.8013 Q900.8638,137.9507 900.1582,137.9507 Q897.6514,137.9507 896.3315,136.2989 Q895.0117,134.647 895.0117,131.5259 Q895.0117,128.3965 896.3315,126.7447 Q897.6514,125.0928 900.1582,125.0928 Q900.8638,125.0928 901.5112,125.2422 Q902.1587,125.3916 902.7231,125.6905 L902.7231,128.4131 Q902.0923,127.8321 901.4988,127.5623 Q900.9053,127.2925 900.2744,127.2925 Q898.9297,127.2925 898.2449,128.3592 Q897.5601,129.4258 897.5601,131.5259 Q897.5601,133.6177 898.2449,134.6844 Q898.9297,135.751 900.2744,135.751 Q900.9053,135.751 901.4988,135.4812 Q902.0923,135.2115 902.7231,134.6304 Z "/><text fill="#000000" font-family="sans-serif" font-size="12" lengthAdjust="spacingAndGlyphs" textLength="95" x="920.75" y="135.7452">ReportController</text><line style="stroke: #A80036; stroke-width: 1.5;" x1="847.5" x2="1056.5" y1="147.21" y2="147.21"/><text fill="#000000" font-family="sans-serif" font-size="11" lengthAdjust="spacingAndGlyphs" textLength="189" x="852.5" y="161.8448">GET /api/reports/transactions/pdf</text><text fill="#000000" font-family="sans-serif" font-size="11" lengthAdjust="spacingAndGlyphs" textLength="199" x="852.5" y="174.7998">GET /api/reports/transactions/excel</text><line style="stroke: #A80036; stroke-width: 1.5;" x1="847.5" x2="1056.5" y1="181.1202" y2="181.1202"/><rect fill="#FEFECE" filter="url(#f1)" height="73.9102" style="stroke: #A80036; stroke-width: 1.5;" width="192" x="910" y="315.03"/><ellipse cx="934.45" cy="331.03" fill="#ADD1B2" rx="11" ry="11" style="stroke: #A80036; stroke-width: 1.0;"/><path d="M936.9231,337.1731 Q936.3421,337.4719 935.7029,337.6213 Q935.0638,337.7707 934.3582,337.7707 Q931.8514,337.7707 930.5315,336.1189 Q929.2117,334.467 929.2117,331.3459 Q929.2117,328.2165 930.5315,326.5647 Q931.8514,324.9128 934.3582,324.9128 Q935.0638,324.9128 935.7112,325.0622 Q936.3587,325.2116 936.9231,325.5105 L936.9231,328.2331 Q936.2923,327.6521 935.6988,327.3823 Q935.1053,327.1125 934.4744,327.1125 Q933.1297,327.1125 932.4449,328.1792 Q931.7601,329.2458 931.7601,331.3459 Q931.7601,333.4377 932.4449,334.5044 Q933.1297,335.571 934.4744,335.571 Q935.1053,335.571 935.6988,335.3012 Q936.2923,335.0315 936.9231,334.4504 Z "/><text fill="#000000" font-family="sans-serif" font-size="12" lengthAdjust="spacingAndGlyphs" textLength="139" x="950.55" y="335.5652">GlobalExceptionHandler</text><line style="stroke: #A80036; stroke-width: 1.5;" x1="911" x2="1101" y1="347.03" y2="347.03"/><line style="stroke: #A80036; stroke-width: 1.5;" x1="911" x2="1101" y1="355.03" y2="355.03"/><text fill="#000000" font-family="sans-serif" font-size="11" lengthAdjust="spacingAndGlyphs" textLength="150" x="916" y="369.6648">handleValidationException()</text><text fill="#000000" font-family="sans-serif" font-size="11" lengthAdjust="spacingAndGlyphs" textLength="180" x="916" y="382.6198">handleEntityNotFoundException()</text><rect fill="#FEFECE" filter="url(#f1)" height="48" style="stroke: #A80036; stroke-width: 1.5;" width="145" x="1137.5" y="327.99"/><ellipse cx="1152.5" cy="343.99" fill="#ADD1B2" rx="11" ry="11" style="stroke: #A80036; stroke-width: 1.0;"/><path d="M1154.9731,350.1331 Q1154.3921,350.4319 1153.7529,350.5813 Q1153.1138,350.7307 1152.4082,350.7307 Q1149.9014,350.7307 1148.5815,349.0789 Q1147.2617,347.427 1147.2617,344.3059 Q1147.2617,341.1765 1148.5815,339.5247 Q1149.9014,337.8728 1152.4082,337.8728 Q1153.1138,337.8728 1153.7612,338.0222 Q1154.4087,338.1716 1154.9731,338.4705 L1154.9731,341.1931 Q1154.3423,340.6121 1153.7488,340.3423 Q1153.1553,340.0725 1152.5244,340.0725 Q1151.1797,340.0725 1150.4949,341.1392 Q1149.8101,342.2058 1149.8101,344.3059 Q1149.8101,346.3977 1150.4949,347.4644 Q1151.1797,348.531 1152.5244,348.531 Q1153.1553,348.531 1153.7488,348.2612 Q1154.3423,347.9915 1154.9731,347.4104 Z "/><text fill="#000000" font-family="sans-serif" font-size="12" lengthAdjust="spacingAndGlyphs" textLength="113" x="1166.5" y="348.5252">ValidationException</text><line style="stroke: #A80036; stroke-width: 1.5;" x1="1138.5" x2="1281.5" y1="359.99" y2="359.99"/><line style="stroke: #A80036; stroke-width: 1.5;" x1="1138.5" x2="1281.5" y1="367.99" y2="367.99"/><rect fill="#FEFECE" filter="url(#f1)" height="48" style="stroke: #A80036; stroke-width: 1.5;" width="174" x="1318" y="327.99"/><ellipse cx="1333" cy="343.99" fill="#ADD1B2" rx="11" ry="11" style="stroke: #A80036; stroke-width: 1.0;"/><path d="M1335.4731,350.1331 Q1334.8921,350.4319 1334.2529,350.5813 Q1333.6138,350.7307 1332.9082,350.7307 Q1330.4014,350.7307 1329.0815,349.0789 Q1327.7617,347.427 1327.7617,344.3059 Q1327.7617,341.1765 1329.0815,339.5247 Q1330.4014,337.8728 1332.9082,337.8728 Q1333.6138,337.8728 1334.2612,338.0222 Q1334.9087,338.1716 1335.4731,338.4705 L1335.4731,341.1931 Q1334.8423,340.6121 1334.2488,340.3423 Q1333.6553,340.0725 1333.0244,340.0725 Q1331.6797,340.0725 1330.9949,341.1392 Q1330.3101,342.2058 1330.3101,344.3059 Q1330.3101,346.3977 1330.9949,347.4644 Q1331.6797,348.531 1333.0244,348.531 Q1333.6553,348.531 1334.2488,348.2612 Q1334.8423,347.9915 1335.4731,347.4104 Z "/><text fill="#000000" font-family="sans-serif" font-size="12" lengthAdjust="spacingAndGlyphs" textLength="142" x="1347" y="348.5252">EntityNotFoundException</text><line style="stroke: #A80036; stroke-width: 1.5;" x1="1319" x2="1491" y1="359.99" y2="359.99"/><line style="stroke: #A80036; stroke-width: 1.5;" x1="1319" x2="1491" y1="367.99" y2="367.99"/><rect fill="#FEFECE" filter="url(#f1)" height="138.6855" style="stroke: #A80036; stroke-width: 1.5;" width="170" x="1305" y="499.9"/><ellipse cx="1320" cy="515.9" fill="#ADD1B2" rx="11" ry="11" style="stroke: #A80036; stroke-width: 1.0;"/><path d="M1322.4731,522.0431 Q1321.8921,522.3419 1321.2529,522.4913 Q1320.6138,522.6407 1319.9082,522.6407 Q1317.4014,522.6407 1316.0815,520.9889 Q1314.7617,519.337 1314.7617,516.2159 Q1314.7617,513.0865 1316.0815,511.4347 Q1317.4014,509.7828 1319.9082,509.7828 Q1320.6138,509.7828 1321.2612,509.9322 Q1321.9087,510.0816 1322.4731,510.3805 L1322.4731,513.1031 Q1321.8423,512.5221 1321.2488,512.2523 Q1320.6553,511.9825 1320.0244,511.9825 Q1318.6797,511.9825 1317.9949,513.0492 Q1317.3101,514.1158 1317.3101,516.2159 Q1317.3101,518.3077 1317.9949,519.3744 Q1318.6797,520.441 1320.0244,520.441 Q1320.6553,520.441 1321.2488,520.1712 Q1321.8423,519.9015 1322.4731,519.3204 Z "/><text fill="#000000" font-family="sans-serif" font-size="12" lengthAdjust="spacingAndGlyphs" textLength="138" x="1334" y="520.4352">TransactionSpecification</text><line style="stroke: #A80036; stroke-width: 1.5;" x1="1306" x2="1474" y1="531.9" y2="531.9"/><line style="stroke: #A80036; stroke-width: 1.5;" x1="1306" x2="1474" y1="539.9" y2="539.9"/><text fill="#000000" font-family="sans-serif" font-size="11" lengthAdjust="spacingAndGlyphs" textLength="89" x="1311" y="554.5348">hasSenderBank()</text><text fill="#000000" font-family="sans-serif" font-size="11" lengthAdjust="spacingAndGlyphs" textLength="97" x="1311" y="567.4898">hasReceiverBank()</text><text fill="#000000" font-family="sans-serif" font-size="11" lengthAdjust="spacingAndGlyphs" textLength="56" x="1311" y="580.4449">isOfType()</text><text fill="#000000" font-family="sans-serif" font-size="11" lengthAdjust="spacingAndGlyphs" textLength="60" x="1311" y="593.4">hasStatus()</text><text fill="#000000" font-family="sans-serif" font-size="11" lengthAdjust="spacingAndGlyphs" textLength="74" x="1311" y="606.3551">dateBetween()</text><text fill="#000000" font-family="sans-serif" font-size="11" lengthAdjust="spacingAndGlyphs" textLength="92" x="1311" y="619.3102">amountBetween()</text><text fill="#000000" font-family="sans-serif" font-size="11" lengthAdjust="spacingAndGlyphs" textLength="76" x="1311" y="632.2652">hasCategory()</text><rect fill="#FEFECE" filter="url(#f1)" height="86.8652" style="stroke: #A80036; stroke-width: 1.5;" width="143" x="282.5" y="308.56"/><ellipse cx="311.45" cy="324.56" fill="#ADD1B2" rx="11" ry="11" style="stroke: #A80036; stroke-width: 1.0;"/><path d="M313.9231,330.7031 Q313.3421,331.0019 312.7029,331.1513 Q312.0638,331.3007 311.3582,331.3007 Q308.8514,331.3007 307.5315,329.6489 Q306.2117,327.997 306.2117,324.8759 Q306.2117,321.7465 307.5315,320.0947 Q308.8514,318.4428 311.3582,318.4428 Q312.0638,318.4428 312.7112,318.5922 Q313.3587,318.7416 313.9231,319.0405 L313.9231,321.7631 Q313.2923,321.1821 312.6988,320.9123 Q312.1053,320.6425 311.4744,320.6425 Q310.1297,320.6425 309.4449,321.7092 Q308.7601,322.7758 308.7601,324.8759 Q308.7601,326.9677 309.4449,328.0344 Q310.1297,329.101 311.4744,329.101 Q312.1053,329.101 312.6988,328.8312 Q313.2923,328.5615 313.9231,327.9804 Z "/><text fill="#000000" font-family="sans-serif" font-size="12" lengthAdjust="spacingAndGlyphs" textLength="80" x="328.55" y="329.0952">SecurityConfig</text><line style="stroke: #A80036; stroke-width: 1.5;" x1="283.5" x2="424.5" y1="340.56" y2="340.56"/><line style="stroke: #A80036; stroke-width: 1.5;" x1="283.5" x2="424.5" y1="348.56" y2="348.56"/><text fill="#000000" font-family="sans-serif" font-size="11" lengthAdjust="spacingAndGlyphs" textLength="60" x="288.5" y="363.1948">configure()</text><text fill="#000000" font-family="sans-serif" font-size="11" lengthAdjust="spacingAndGlyphs" textLength="131" x="288.5" y="376.1498">authorizeHttpRequests()</text><text fill="#000000" font-family="sans-serif" font-size="11" lengthAdjust="spacingAndGlyphs" textLength="130" x="288.5" y="389.1049">oauth2ResourceServer()</text><rect fill="#FEFECE" filter="url(#f1)" height="73.9102" style="stroke: #A80036; stroke-width: 1.5;" width="186" x="62" y="315.03"/><ellipse cx="77" cy="331.03" fill="#ADD1B2" rx="11" ry="11" style="stroke: #A80036; stroke-width: 1.0;"/><path d="M79.4731,337.1731 Q78.8921,337.4719 78.2529,337.6213 Q77.6138,337.7707 76.9082,337.7707 Q74.4014,337.7707 73.0815,336.1189 Q71.7617,334.467 71.7617,331.3459 Q71.7617,328.2165 73.0815,326.5647 Q74.4014,324.9128 76.9082,324.9128 Q77.6138,324.9128 78.2612,325.0622 Q78.9087,325.2116 79.4731,325.5105 L79.4731,328.2331 Q78.8423,327.6521 78.2488,327.3823 Q77.6553,327.1125 77.0244,327.1125 Q75.6797,327.1125 74.9949,328.1792 Q74.3101,329.2458 74.3101,331.3459 Q74.3101,333.4377 74.9949,334.5044 Q75.6797,335.571 77.0244,335.571 Q77.6553,335.571 78.2488,335.3012 Q78.8423,335.0315 79.4731,334.4504 Z "/><text fill="#000000" font-family="sans-serif" font-size="12" lengthAdjust="spacingAndGlyphs" textLength="154" x="91" y="335.5652">JwtAuthenticationConverter</text><line style="stroke: #A80036; stroke-width: 1.5;" x1="63" x2="247" y1="347.03" y2="347.03"/><line style="stroke: #A80036; stroke-width: 1.5;" x1="63" x2="247" y1="355.03" y2="355.03"/><text fill="#000000" font-family="sans-serif" font-size="11" lengthAdjust="spacingAndGlyphs" textLength="49" x="68" y="369.6648">convert()</text><text fill="#000000" font-family="sans-serif" font-size="11" lengthAdjust="spacingAndGlyphs" textLength="106" x="68" y="382.6198">extractAuthorities()</text><rect fill="#FEFECE" filter="url(#f1)" height="60.9551" style="stroke: #A80036; stroke-width: 1.5;" width="207" x="1531.5" y="538.76"/><ellipse cx="1573.05" cy="554.76" fill="#ADD1B2" rx="11" ry="11" style="stroke: #A80036; stroke-width: 1.0;"/><path d="M1575.5231,560.9031 Q1574.9421,561.2019 1574.3029,561.3513 Q1573.6638,561.5007 1572.9582,561.5007 Q1570.4514,561.5007 1569.1315,559.8489 Q1567.8117,558.197 1567.8117,555.0759 Q1567.8117,551.9465 1569.1315,550.2947 Q1570.4514,548.6428 1572.9582,548.6428 Q1573.6638,548.6428 1574.3112,548.7922 Q1574.9587,548.9416 1575.5231,549.2405 L1575.5231,551.9631 Q1574.8923,551.3821 1574.2988,551.1123 Q1573.7053,550.8425 1573.0744,550.8425 Q1571.7297,550.8425 1571.0449,551.9092 Q1570.3601,552.9758 1570.3601,555.0759 Q1570.3601,557.1677 1571.0449,558.2344 Q1571.7297,559.301 1573.0744,559.301 Q1573.7053,559.301 1574.2988,559.0312 Q1574.8923,558.7615 1575.5231,558.1804 Z "/><text fill="#000000" font-family="sans-serif" font-size="12" lengthAdjust="spacingAndGlyphs" textLength="116" x="1592.95" y="559.2952">ModelMapperConfig</text><line style="stroke: #A80036; stroke-width: 1.5;" x1="1532.5" x2="1737.5" y1="570.76" y2="570.76"/><line style="stroke: #A80036; stroke-width: 1.5;" x1="1532.5" x2="1737.5" y1="578.76" y2="578.76"/><text fill="#000000" font-family="sans-serif" font-size="11" lengthAdjust="spacingAndGlyphs" textLength="195" x="1537.5" y="593.3948">map(TransactionDto → Transaction)</text><path d="M551,202.58 C551,230.77 551,266.19 551,295.36 " fill="none" style="stroke: #A80036; stroke-width: 1.0;"/><polygon fill="#A80036" points="551,300.35,555,291.35,551,295.35,547,291.35,551,300.35" style="stroke: #A80036; stroke-width: 1.0;"/><text fill="#000000" font-family="sans-serif" font-size="13" lengthAdjust="spacingAndGlyphs" textLength="29" x="552" y="247.6484">uses</text><path d="M608.19,402.25 C617.99,408.86 628.44,414.91 639,419.42 C734.65,460.28 776.55,411.24 870,456.9 C901,472.04 929.59,497.87 951.08,520.83 " fill="none" style="stroke: #A80036; stroke-width: 1.0;"/><polygon fill="#A80036" points="954.25,524.27,951.1073,514.936,950.8675,520.5878,945.2157,520.348,954.25,524.27" style="stroke: #A80036; stroke-width: 1.0;"/><text fill="#000000" font-family="sans-serif" font-size="13" lengthAdjust="spacingAndGlyphs" textLength="29" x="849.51" y="445.4684">uses</text><path d="M578.3,402.37 C597.84,437.72 624.01,485.06 643.39,520.11 " fill="none" style="stroke: #A80036; stroke-width: 1.0;"/><polygon fill="#A80036" points="645.71,524.31,644.8358,514.5,643.2818,519.9392,637.8426,518.3852,645.71,524.31" style="stroke: #A80036; stroke-width: 1.0;"/><text fill="#000000" font-family="sans-serif" font-size="13" lengthAdjust="spacingAndGlyphs" textLength="29" x="604.38" y="445.4684">uses</text><path d="M605.71,402.28 C616.13,409.26 627.42,415.42 639,419.42 C672.92,431.15 1249.19,429.39 1285,431.9 C1377,438.35 1405.68,421.88 1491,456.9 C1533.7,474.42 1574.55,508.19 1601.76,533.97 " fill="none" style="stroke: #A80036; stroke-width: 1.0;"/><polygon fill="#A80036" points="1605.25,537.31,1601.5291,528.191,1601.6436,533.8467,1595.9879,533.9612,1605.25,537.31" style="stroke: #A80036; stroke-width: 1.0;"/><text fill="#000000" font-family="sans-serif" font-size="13" lengthAdjust="spacingAndGlyphs" textLength="29" x="1467.98" y="445.4684">uses</text><path d="M611.55,202.48 C625.19,211.57 640.06,220.08 655,226.08 C744.71,262.1 779.98,223.82 870,259.08 C901.46,271.4 932.95,292.02 957.7,310.62 " fill="none" style="stroke: #A80036; stroke-width: 1.0;"/><polygon fill="#A80036" points="961.67,313.63,956.9241,305,957.6889,310.6049,952.084,311.3698,961.67,313.63" style="stroke: #A80036; stroke-width: 1.0;"/><text fill="#000000" font-family="sans-serif" font-size="13" lengthAdjust="spacingAndGlyphs" textLength="69" x="845.53" y="247.6484">exceptions</text><path d="M1598.98,600 C1571.25,621.19 1531.01,648.33 1491,662.58 C1460.66,673.39 1230.56,678.91 1203,695.58 C1184.63,706.7 1168.82,722.53 1155.5,739.78 " fill="none" style="stroke: #A80036; stroke-width: 1.0;"/><polygon fill="#A80036" points="1152.73,743.47,1161.3491,738.7045,1155.746,739.482,1154.9684,733.8789,1152.73,743.47" style="stroke: #A80036; stroke-width: 1.0;"/><path d="M1624.31,599.99 C1612.9,631.75 1594.12,684.04 1576.8,732.24 " fill="none" style="stroke: #A80036; stroke-width: 1.0;"/><polygon fill="#A80036" points="1575.21,736.67,1582.0327,729.5672,1576.9107,731.9681,1574.5097,726.8461,1575.21,736.67" style="stroke: #A80036; stroke-width: 1.0;"/><path d="M1589.18,600.12 C1560.99,618.37 1524.06,642.07 1491,662.58 C1466.78,677.61 1457.75,677.16 1436,695.58 C1422.38,707.12 1409,720.19 1396.32,733.68 " fill="none" style="stroke: #A80036; stroke-width: 1.0;"/><polygon fill="#A80036" points="1393.08,737.16,1402.1376,733.2921,1396.4844,733.4981,1396.2785,727.845,1393.08,737.16" style="stroke: #A80036; stroke-width: 1.0;"/><path d="M464.06,176.87 C405.54,194.82 327.87,222.63 265,259.08 C240.38,273.35 215.81,293.21 196.15,310.82 " fill="none" style="stroke: #A80036; stroke-width: 1.0; stroke-dasharray: 7.0,7.0;"/><polygon fill="#A80036" points="192.9,313.76,202.2596,310.6946,196.6101,310.4081,196.8965,304.7585,192.9,313.76" style="stroke: #A80036; stroke-width: 1.0;"/><text fill="#000000" font-family="sans-serif" font-size="13" lengthAdjust="spacingAndGlyphs" textLength="28" x="310.06" y="247.6484">auth</text><path d="M1588.77,975.23 C1595.45,991.38 1601.61,1006.25 1606.37,1017.75 " fill="none" style="stroke: #A80036; stroke-width: 1.0;"/><polygon fill="none" points="1582.32,977.97,1581.14,956.81,1595.26,972.61,1582.32,977.97" style="stroke: #A80036; stroke-width: 1.0;"/><path d="M1673.48,903.9 C1657.64,941.68 1637.57,989.56 1625.82,1017.58 " fill="none" style="stroke: #A80036; stroke-width: 1.0;"/><polygon fill="none" points="1666.99,901.27,1681.18,885.53,1679.9,906.68,1666.99,901.27" style="stroke: #A80036; stroke-width: 1.0;"/><path d="M1016.16,791.55 C935.56,740.02 815.78,663.44 740.35,615.21 " fill="none" style="stroke: #A80036; stroke-width: 1.0;"/><polygon fill="#A80036" points="736.27,612.61,741.7101,620.8201,740.4865,615.2972,746.0095,614.0736,736.27,612.61" style="stroke: #A80036; stroke-width: 1.0;"/><text fill="#000000" font-family="sans-serif" font-size="13" lengthAdjust="spacingAndGlyphs" textLength="57" x="847.9" y="684.1484">validated</text><path d="M606.31,402.31 C616.58,409.19 627.66,415.3 639,419.42 C691.08,438.33 832.69,428.68 888,431.9 C1055.64,441.66 1110.13,391.98 1265,456.9 C1286.5,465.91 1306.79,480.2 1324.53,495.58 " fill="none" style="stroke: #A80036; stroke-width: 1.0;"/><polygon fill="#A80036" points="1327.85,498.51,1323.7468,489.5566,1324.1004,495.2024,1318.4546,495.5559,1327.85,498.51" style="stroke: #A80036; stroke-width: 1.0;"/><text fill="#000000" font-family="sans-serif" font-size="13" lengthAdjust="spacingAndGlyphs" textLength="37" x="1239.16" y="445.4684">filters</text></g></svg>
