<?xml version="1.0" encoding="UTF-8" standalone="yes"?><svg xmlns="http://www.w3.org/2000/svg" xmlns:xlink="http://www.w3.org/1999/xlink" height="595px" style="width:1023px;height:595px;" version="1.1" viewBox="0 0 1023 595" width="1023px"><defs><filter height="300%" id="f1" width="300%" x="-1" y="-1"><feGaussianBlur result="blurOut" stdDeviation="2.0"/><feColorMatrix in="blurOut" result="blurOut2" type="matrix" values="0 0 0 0 0 0 0 0 0 0 0 0 0 0 0 0 0 0 .4 0"/><feOffset dx="4.0" dy="4.0" in="blurOut2" result="blurOut3"/><feBlend in="SourceGraphic" in2="blurOut3" mode="normal"/></filter></defs><g><polygon fill="#FFFFFF" filter="url(#f1)" points="22,23.8,189,23.8,196,46.2883,787,46.2883,787,499.31,22,499.31,22,23.8" style="stroke: #000000; stroke-width: 2.0;"/><line style="stroke: #000000; stroke-width: 2.0;" x1="22" x2="196" y1="46.2883" y2="46.2883"/><text fill="#000000" font-family="sans-serif" font-size="14" font-weight="bold" lengthAdjust="spacingAndGlyphs" textLength="161" x="26" y="39.3352">team.mephi.hackathon</text><rect fill="#FEFECE" filter="url(#f1)" height="36.4883" style="stroke: #A80036; stroke-width: 1.5;" width="171" x="428.5" y="251.78"/><rect fill="#FEFECE" height="5" style="stroke: #A80036; stroke-width: 1.5;" width="10" x="423.5" y="256.78"/><rect fill="#FEFECE" height="5" style="stroke: #A80036; stroke-width: 1.5;" width="10" x="423.5" y="278.2683"/><text fill="#000000" font-family="sans-serif" font-size="14" lengthAdjust="spacingAndGlyphs" textLength="151" x="438.5" y="275.3152">TransactionController</text><rect fill="#FEFECE" filter="url(#f1)" height="36.4883" style="stroke: #A80036; stroke-width: 1.5;" width="152" x="242" y="251.78"/><rect fill="#FEFECE" height="5" style="stroke: #A80036; stroke-width: 1.5;" width="10" x="237" y="256.78"/><rect fill="#FEFECE" height="5" style="stroke: #A80036; stroke-width: 1.5;" width="10" x="237" y="278.2683"/><text fill="#000000" font-family="sans-serif" font-size="14" lengthAdjust="spacingAndGlyphs" textLength="132" x="252" y="275.3152">CategoryController</text><rect fill="#FEFECE" filter="url(#f1)" height="36.4883" style="stroke: #A80036; stroke-width: 1.5;" width="136" x="635" y="251.78"/><rect fill="#FEFECE" height="5" style="stroke: #A80036; stroke-width: 1.5;" width="10" x="630" y="256.78"/><rect fill="#FEFECE" height="5" style="stroke: #A80036; stroke-width: 1.5;" width="10" x="630" y="278.2683"/><text fill="#000000" font-family="sans-serif" font-size="14" lengthAdjust="spacingAndGlyphs" textLength="116" x="645" y="275.3152">ReportController</text><rect fill="#FEFECE" filter="url(#f1)" height="36.4883" style="stroke: #A80036; stroke-width: 1.5;" width="149" x="250.5" y="348.27"/><rect fill="#FEFECE" height="5" style="stroke: #A80036; stroke-width: 1.5;" width="10" x="245.5" y="353.27"/><rect fill="#FEFECE" height="5" style="stroke: #A80036; stroke-width: 1.5;" width="10" x="245.5" y="374.7583"/><text fill="#000000" font-family="sans-serif" font-size="14" lengthAdjust="spacingAndGlyphs" textLength="129" x="260.5" y="371.8052">TransactionService</text><rect fill="#FEFECE" filter="url(#f1)" height="36.4883" style="stroke: #A80036; stroke-width: 1.5;" width="130" x="69" y="348.27"/><rect fill="#FEFECE" height="5" style="stroke: #A80036; stroke-width: 1.5;" width="10" x="64" y="353.27"/><rect fill="#FEFECE" height="5" style="stroke: #A80036; stroke-width: 1.5;" width="10" x="64" y="374.7583"/><text fill="#000000" font-family="sans-serif" font-size="14" lengthAdjust="spacingAndGlyphs" textLength="110" x="79" y="371.8052">CategoryService</text><rect fill="#FEFECE" filter="url(#f1)" height="36.4883" style="stroke: #A80036; stroke-width: 1.5;" width="114" x="655" y="348.27"/><rect fill="#FEFECE" height="5" style="stroke: #A80036; stroke-width: 1.5;" width="10" x="650" y="353.27"/><rect fill="#FEFECE" height="5" style="stroke: #A80036; stroke-width: 1.5;" width="10" x="650" y="374.7583"/><text fill="#000000" font-family="sans-serif" font-size="14" lengthAdjust="spacingAndGlyphs" textLength="94" x="665" y="371.8052">ReportService</text><rect fill="#FEFECE" filter="url(#f1)" height="36.4883" style="stroke: #A80036; stroke-width: 1.5;" width="137" x="633.5" y="446.82"/><rect fill="#FEFECE" height="5" style="stroke: #A80036; stroke-width: 1.5;" width="10" x="628.5" y="451.82"/><rect fill="#FEFECE" height="5" style="stroke: #A80036; stroke-width: 1.5;" width="10" x="628.5" y="473.3083"/><text fill="#000000" font-family="sans-serif" font-size="14" lengthAdjust="spacingAndGlyphs" textLength="117" x="643.5" y="470.3552">ValidationService</text><rect fill="#FEFECE" filter="url(#f1)" height="36.4883" style="stroke: #A80036; stroke-width: 1.5;" width="174" x="229" y="446.82"/><rect fill="#FEFECE" height="5" style="stroke: #A80036; stroke-width: 1.5;" width="10" x="224" y="451.82"/><rect fill="#FEFECE" height="5" style="stroke: #A80036; stroke-width: 1.5;" width="10" x="224" y="473.3083"/><text fill="#000000" font-family="sans-serif" font-size="14" lengthAdjust="spacingAndGlyphs" textLength="154" x="239" y="470.3552">TransactionRepository</text><rect fill="#FEFECE" filter="url(#f1)" height="36.4883" style="stroke: #A80036; stroke-width: 1.5;" width="155" x="38.5" y="446.82"/><rect fill="#FEFECE" height="5" style="stroke: #A80036; stroke-width: 1.5;" width="10" x="33.5" y="451.82"/><rect fill="#FEFECE" height="5" style="stroke: #A80036; stroke-width: 1.5;" width="10" x="33.5" y="473.3083"/><text fill="#000000" font-family="sans-serif" font-size="14" lengthAdjust="spacingAndGlyphs" textLength="135" x="48.5" y="470.3552">CategoryRepository</text><rect fill="#FEFECE" filter="url(#f1)" height="36.4883" style="stroke: #A80036; stroke-width: 1.5;" width="186" x="434" y="348.27"/><rect fill="#FEFECE" height="5" style="stroke: #A80036; stroke-width: 1.5;" width="10" x="429" y="353.27"/><rect fill="#FEFECE" height="5" style="stroke: #A80036; stroke-width: 1.5;" width="10" x="429" y="374.7583"/><text fill="#000000" font-family="sans-serif" font-size="14" lengthAdjust="spacingAndGlyphs" textLength="166" x="444" y="371.8052">GlobalExceptionHandler</text><rect fill="#FEFECE" filter="url(#f1)" height="36.4883" style="stroke: #A80036; stroke-width: 1.5;" width="209" x="409.5" y="58.8"/><rect fill="#FEFECE" height="5" style="stroke: #A80036; stroke-width: 1.5;" width="10" x="404.5" y="63.8"/><rect fill="#FEFECE" height="5" style="stroke: #A80036; stroke-width: 1.5;" width="10" x="404.5" y="85.2883"/><text fill="#000000" font-family="sans-serif" font-size="14" lengthAdjust="spacingAndGlyphs" textLength="189" x="419.5" y="82.3352">JwtAuthenticationConverter</text><rect fill="#FEFECE" filter="url(#f1)" height="36.4883" style="stroke: #A80036; stroke-width: 1.5;" width="120" x="454" y="155.29"/><rect fill="#FEFECE" height="5" style="stroke: #A80036; stroke-width: 1.5;" width="10" x="449" y="160.29"/><rect fill="#FEFECE" height="5" style="stroke: #A80036; stroke-width: 1.5;" width="10" x="449" y="181.7783"/><text fill="#000000" font-family="sans-serif" font-size="14" lengthAdjust="spacingAndGlyphs" textLength="100" x="464" y="178.8252">SecurityConfig</text><rect fill="#FEFECE" filter="url(#f1)" height="36.4883" style="stroke: #A80036; stroke-width: 1.5;" width="160" x="438" y="446.82"/><rect fill="#FEFECE" height="5" style="stroke: #A80036; stroke-width: 1.5;" width="10" x="433" y="451.82"/><rect fill="#FEFECE" height="5" style="stroke: #A80036; stroke-width: 1.5;" width="10" x="433" y="473.3083"/><text fill="#000000" font-family="sans-serif" font-size="14" lengthAdjust="spacingAndGlyphs" textLength="140" x="448" y="470.3552">ModelMapperConfig</text><ellipse cx="718" cy="557.45" fill="#FEFECE" filter="url(#f1)" rx="8" ry="8" style="stroke: #A80036; stroke-width: 2.0;"/><text fill="#000000" font-family="sans-serif" font-size="14" lengthAdjust="spacingAndGlyphs" textLength="160" x="638" y="579.9852">TransactionRequestDto</text><ellipse cx="357" cy="557.45" fill="#FEFECE" filter="url(#f1)" rx="8" ry="8" style="stroke: #A80036; stroke-width: 2.0;"/><text fill="#000000" font-family="sans-serif" font-size="14" lengthAdjust="spacingAndGlyphs" textLength="81" x="316.5" y="579.9852">Transaction</text><ellipse cx="518" cy="557.45" fill="#FEFECE" filter="url(#f1)" rx="8" ry="8" style="stroke: #A80036; stroke-width: 2.0;"/><text fill="#000000" font-family="sans-serif" font-size="14" lengthAdjust="spacingAndGlyphs" textLength="171" x="432.5" y="579.9852">TransactionResponseDto</text><polygon fill="#FBFB77" filter="url(#f1)" points="805.5,444.76,805.5,485.3811,998.5,485.3811,998.5,454.76,988.5,444.76,805.5,444.76" style="stroke: #A80036; stroke-width: 1.0;"/><line style="stroke: #A80036; stroke-width: 1.0;" x1="988.5" x2="988.5" y1="444.76" y2="454.76"/><line style="stroke: #A80036; stroke-width: 1.0;" x1="998.5" x2="988.5" y1="454.76" y2="454.76"/><text fill="#000000" font-family="sans-serif" font-size="13" lengthAdjust="spacingAndGlyphs" textLength="164" x="811.5" y="462.3284">Бизнес-логика создания,</text><text fill="#000000" font-family="sans-serif" font-size="13" lengthAdjust="spacingAndGlyphs" textLength="172" x="811.5" y="477.6389">обновления и фильтрации</text><polygon fill="#FBFB77" filter="url(#f1)" points="46.5,545.38,46.5,586.0011,281.5,586.0011,281.5,555.38,271.5,545.38,46.5,545.38" style="stroke: #A80036; stroke-width: 1.0;"/><polygon fill="#FBFB77" points="46.5,545.38,46.5,586.0011,281.5,586.0011,281.5,555.38,271.5,545.38,198.33,545.38,288.83,483.7,190.33,545.38,46.5,545.38" style="stroke: #A80036; stroke-width: 1.0;"/><line style="stroke: #A80036; stroke-width: 1.0;" x1="271.5" x2="271.5" y1="545.38" y2="555.38"/><line style="stroke: #A80036; stroke-width: 1.0;" x1="281.5" x2="271.5" y1="555.38" y2="555.38"/><text fill="#000000" font-family="sans-serif" font-size="13" lengthAdjust="spacingAndGlyphs" textLength="111" x="52.5" y="562.9484">JPA репозиторий.</text><text fill="#000000" font-family="sans-serif" font-size="13" lengthAdjust="spacingAndGlyphs" textLength="214" x="52.5" y="578.2589">Работает с таблицей transactions</text><polygon fill="#FBFB77" filter="url(#f1)" points="804,353.86,804,379.1705,1014,379.1705,1014,363.86,1004,353.86,804,353.86" style="stroke: #A80036; stroke-width: 1.0;"/><polygon fill="#FBFB77" points="804,353.86,804,379.1705,1014,379.1705,1014,363.86,1004,353.86,886.71,353.86,741.26,288.58,878.71,353.86,804,353.86" style="stroke: #A80036; stroke-width: 1.0;"/><line style="stroke: #A80036; stroke-width: 1.0;" x1="1004" x2="1004" y1="353.86" y2="363.86"/><line style="stroke: #A80036; stroke-width: 1.0;" x1="1014" x2="1004" y1="363.86" y2="363.86"/><text fill="#000000" font-family="sans-serif" font-size="13" lengthAdjust="spacingAndGlyphs" textLength="189" x="810" y="371.4284">Генерация PDF/Excel отчётов</text><path d="M478.89,288.58 C446.9,304.57 399.64,328.2 365.95,345.04 " fill="none" style="stroke: #A80036; stroke-width: 1.0;"/><polygon fill="#A80036" points="361.59,347.22,371.4281,346.7602,366.0593,344.9782,367.8413,339.6094,361.59,347.22" style="stroke: #A80036; stroke-width: 1.0;"/><path d="M283.82,288.58 C252.68,304.57 206.67,328.2 173.86,345.04 " fill="none" style="stroke: #A80036; stroke-width: 1.0;"/><polygon fill="#A80036" points="169.65,347.21,179.4836,346.6624,174.0991,344.9284,175.8331,339.5439,169.65,347.21" style="stroke: #A80036; stroke-width: 1.0;"/><path d="M704.65,288.36 C706.08,303.31 708.15,325.06 709.73,341.66 " fill="none" style="stroke: #A80036; stroke-width: 1.0;"/><polygon fill="#A80036" points="710.19,346.47,713.3225,337.1326,709.718,341.4923,705.3582,337.8878,710.19,346.47" style="stroke: #A80036; stroke-width: 1.0;"/><path d="M323.35,385.22 C321.92,400.6 319.83,423.01 318.24,440.02 " fill="none" style="stroke: #A80036; stroke-width: 1.0;"/><polygon fill="#A80036" points="317.78,444.96,322.6095,436.3765,318.2507,439.9822,314.645,435.6234,317.78,444.96" style="stroke: #A80036; stroke-width: 1.0;"/><path d="M394.15,385.22 C460.18,402.13 559.4,427.55 627.24,444.92 " fill="none" style="stroke: #A80036; stroke-width: 1.0;"/><polygon fill="#A80036" points="631.82,446.1,624.0968,439.9883,626.9769,444.8571,622.1082,447.7372,631.82,446.1" style="stroke: #A80036; stroke-width: 1.0;"/><path d="M360.4,385.22 C393.45,401.76 442.76,426.43 477.4,443.76 " fill="none" style="stroke: #A80036; stroke-width: 1.0;"/><polygon fill="#A80036" points="481.47,445.79,475.1993,438.1954,476.995,443.5597,471.6307,445.3554,481.47,445.79" style="stroke: #A80036; stroke-width: 1.0;"/><path d="M130.7,385.22 C127.81,400.74 123.58,423.41 120.4,440.47 " fill="none" style="stroke: #A80036; stroke-width: 1.0;"/><polygon fill="#A80036" points="119.56,444.98,125.1387,436.8635,120.4745,440.0643,117.2737,435.4002,119.56,444.98" style="stroke: #A80036; stroke-width: 1.0;"/><path d="M704.86,483.7 C707.5,499.98 711.44,524.26 714.32,541.99 " fill="none" style="stroke: #A80036; stroke-width: 1.0; stroke-dasharray: 7.0,7.0;"/><polygon fill="#A80036" points="715.08,546.7,717.5639,537.1695,714.2673,541.7665,709.6703,538.4699,715.08,546.7" style="stroke: #A80036; stroke-width: 1.0;"/><path d="M514,95.38 C514,110.34 514,132.09 514,148.69 " fill="none" style="stroke: #A80036; stroke-width: 1.0;"/><polygon fill="#A80036" points="514,153.48,518,144.48,514,148.48,510,144.48,514,153.48" style="stroke: #A80036; stroke-width: 1.0;"/><path d="M517.25,294.64 C519.53,311.19 522.52,332.95 524.59,347.97 " fill="none" style="stroke: #A80036; stroke-width: 1.0;"/><polygon fill="#A80036" points="516.59,289.86,513.8609,299.3232,517.2751,294.8128,521.7855,298.227,516.59,289.86" style="stroke: #A80036; stroke-width: 1.0;"/><path d="M362.66,291.22 C399.91,308.06 452.46,331.82 488.03,347.9 " fill="none" style="stroke: #A80036; stroke-width: 1.0;"/><polygon fill="#A80036" points="358.2,289.2,364.7486,296.5564,362.7548,291.2625,368.0486,289.2688,358.2,289.2" style="stroke: #A80036; stroke-width: 1.0;"/><path d="M664.61,291.63 C633.29,308.45 589.52,331.95 559.81,347.9 " fill="none" style="stroke: #A80036; stroke-width: 1.0;"/><polygon fill="#A80036" points="668.97,289.29,659.1496,290.0388,664.5686,291.6622,662.9452,297.0811,668.97,289.29" style="stroke: #A80036; stroke-width: 1.0;"/><path d="M553.76,483.7 C588.84,501 642.23,527.33 678.54,545.23 " fill="none" style="stroke: #A80036; stroke-width: 1.0;"/><polygon fill="#A80036" points="682.86,547.36,676.5603,539.7895,678.3765,545.1468,673.0191,546.9631,682.86,547.36" style="stroke: #A80036; stroke-width: 1.0;"/><path d="M489.22,483.7 C461.2,500.86 418.7,526.9 389.49,544.79 " fill="none" style="stroke: #A80036; stroke-width: 1.0;"/><polygon fill="#A80036" points="385.48,547.24,395.2425,545.9389,389.7407,544.6235,391.0561,539.1217,385.48,547.24" style="stroke: #A80036; stroke-width: 1.0;"/><path d="M518,483.7 C518,499.98 518,524.26 518,541.99 " fill="none" style="stroke: #A80036; stroke-width: 1.0;"/><polygon fill="#A80036" points="518,546.68,522,537.68,518,541.68,514,537.68,518,546.68" style="stroke: #A80036; stroke-width: 1.0;"/><path d="M514,191.87 C514,206.82 514,228.58 514,245.17 " fill="none" style="stroke: #A80036; stroke-width: 1.0;"/><polygon fill="#A80036" points="514,249.97,518,240.97,514,244.97,510,240.97,514,249.97" style="stroke: #A80036; stroke-width: 1.0;"/><path d="M477.59,192.09 C444.28,208.15 395,231.9 360.03,248.76 " fill="none" style="stroke: #A80036; stroke-width: 1.0;"/><polygon fill="#A80036" points="355.91,250.75,365.7544,250.4534,360.4158,248.5826,362.2866,243.2441,355.91,250.75" style="stroke: #A80036; stroke-width: 1.0;"/><path d="M549.11,192.09 C581.1,208.08 628.36,231.71 662.05,248.56 " fill="none" style="stroke: #A80036; stroke-width: 1.0;"/><polygon fill="#A80036" points="666.41,250.73,660.1587,243.1194,661.9407,248.4882,656.5719,250.2702,666.41,250.73" style="stroke: #A80036; stroke-width: 1.0;"/><path d="M399.78,381.69 C405.61,382.74 411.4,383.78 417,384.76 C581.11,413.44 622.63,417.63 787,444.76 C792.89,445.73 798.95,446.74 805.07,447.75 " fill="none" style="stroke: #A80036; stroke-width: 1.0; stroke-dasharray: 7.0,7.0;"/></g></svg>
