<?xml version="1.0" encoding="UTF-8" standalone="yes"?><svg xmlns="http://www.w3.org/2000/svg" xmlns:xlink="http://www.w3.org/1999/xlink" height="368px" style="width:1280px;height:368px;" version="1.1" viewBox="0 0 1280 368" width="1280px"><defs><filter height="300%" id="f1" width="300%" x="-1" y="-1"><feGaussianBlur result="blurOut" stdDeviation="2.0"/><feColorMatrix in="blurOut" result="blurOut2" type="matrix" values="0 0 0 0 0 0 0 0 0 0 0 0 0 0 0 0 0 0 .4 0"/><feOffset dx="4.0" dy="4.0" in="blurOut2" result="blurOut3"/><feBlend in="SourceGraphic" in2="blurOut3" mode="normal"/></filter></defs><g><polygon fill="#FFFFFF" filter="url(#f1)" points="22,23.54,100,23.54,107,46.0283,800,46.0283,800,111.02,22,111.02,22,23.54" style="stroke: #000000; stroke-width: 2.0;"/><line style="stroke: #000000; stroke-width: 2.0;" x1="22" x2="107" y1="46.0283" y2="46.0283"/><text fill="#000000" font-family="sans-serif" font-size="14" font-weight="bold" lengthAdjust="spacingAndGlyphs" textLength="72" x="26" y="39.0752">Фронтенд</text><polygon fill="#FFFFFF" filter="url(#f1)" points="332,160.02,390,160.02,397,182.5083,826,182.5083,826,361,332,361,332,160.02" style="stroke: #000000; stroke-width: 2.0;"/><line style="stroke: #000000; stroke-width: 2.0;" x1="332" x2="397" y1="182.5083" y2="182.5083"/><text fill="#000000" font-family="sans-serif" font-size="14" font-weight="bold" lengthAdjust="spacingAndGlyphs" textLength="52" x="336" y="175.5552">Бэкенд</text><polygon fill="#FFFFFF" filter="url(#f1)" points="824,23.54,923,23.54,930,46.0283,1273,46.0283,1273,111.02,824,111.02,824,23.54" style="stroke: #000000; stroke-width: 2.0;"/><line style="stroke: #000000; stroke-width: 2.0;" x1="824" x2="930" y1="46.0283" y2="46.0283"/><text fill="#000000" font-family="sans-serif" font-size="14" font-weight="bold" lengthAdjust="spacingAndGlyphs" textLength="93" x="828" y="39.0752">База данных</text><rect fill="#FEFECE" filter="url(#f1)" height="36.4883" style="stroke: #A80036; stroke-width: 1.5;" width="137" x="38.5" y="58.54"/><rect fill="#FEFECE" height="5" style="stroke: #A80036; stroke-width: 1.5;" width="10" x="33.5" y="63.54"/><rect fill="#FEFECE" height="5" style="stroke: #A80036; stroke-width: 1.5;" width="10" x="33.5" y="85.0283"/><text fill="#000000" font-family="sans-serif" font-size="14" lengthAdjust="spacingAndGlyphs" textLength="117" x="48.5" y="82.0752">TransactionForm</text><rect fill="#FEFECE" filter="url(#f1)" height="36.4883" style="stroke: #A80036; stroke-width: 1.5;" width="131" x="210.5" y="58.54"/><rect fill="#FEFECE" height="5" style="stroke: #A80036; stroke-width: 1.5;" width="10" x="205.5" y="63.54"/><rect fill="#FEFECE" height="5" style="stroke: #A80036; stroke-width: 1.5;" width="10" x="205.5" y="85.0283"/><text fill="#000000" font-family="sans-serif" font-size="14" lengthAdjust="spacingAndGlyphs" textLength="111" x="220.5" y="82.0752">TransactionsList</text><rect fill="#FEFECE" filter="url(#f1)" height="36.4883" style="stroke: #A80036; stroke-width: 1.5;" width="92" x="376" y="58.54"/><rect fill="#FEFECE" height="5" style="stroke: #A80036; stroke-width: 1.5;" width="10" x="371" y="63.54"/><rect fill="#FEFECE" height="5" style="stroke: #A80036; stroke-width: 1.5;" width="10" x="371" y="85.0283"/><text fill="#000000" font-family="sans-serif" font-size="14" lengthAdjust="spacingAndGlyphs" textLength="72" x="386" y="82.0752">FilterPanel</text><rect fill="#FEFECE" filter="url(#f1)" height="36.4883" style="stroke: #A80036; stroke-width: 1.5;" width="118" x="503" y="58.54"/><rect fill="#FEFECE" height="5" style="stroke: #A80036; stroke-width: 1.5;" width="10" x="498" y="63.54"/><rect fill="#FEFECE" height="5" style="stroke: #A80036; stroke-width: 1.5;" width="10" x="498" y="85.0283"/><text fill="#000000" font-family="sans-serif" font-size="14" lengthAdjust="spacingAndGlyphs" textLength="98" x="513" y="82.0752">ReportButtons</text><rect fill="#FEFECE" filter="url(#f1)" height="36.4883" style="stroke: #A80036; stroke-width: 1.5;" width="127" x="656.5" y="58.54"/><rect fill="#FEFECE" height="5" style="stroke: #A80036; stroke-width: 1.5;" width="10" x="651.5" y="63.54"/><rect fill="#FEFECE" height="5" style="stroke: #A80036; stroke-width: 1.5;" width="10" x="651.5" y="85.0283"/><text fill="#000000" font-family="sans-serif" font-size="14" lengthAdjust="spacingAndGlyphs" textLength="107" x="666.5" y="82.0752">DashboardView</text><rect fill="#FEFECE" filter="url(#f1)" height="36.4883" style="stroke: #A80036; stroke-width: 1.5;" width="149" x="347.5" y="195.02"/><rect fill="#FEFECE" height="5" style="stroke: #A80036; stroke-width: 1.5;" width="10" x="342.5" y="200.02"/><rect fill="#FEFECE" height="5" style="stroke: #A80036; stroke-width: 1.5;" width="10" x="342.5" y="221.5083"/><text fill="#000000" font-family="sans-serif" font-size="14" lengthAdjust="spacingAndGlyphs" textLength="129" x="357.5" y="218.5552">TransactionService</text><rect fill="#FEFECE" filter="url(#f1)" height="36.4883" style="stroke: #A80036; stroke-width: 1.5;" width="114" x="531" y="195.02"/><rect fill="#FEFECE" height="5" style="stroke: #A80036; stroke-width: 1.5;" width="10" x="526" y="200.02"/><rect fill="#FEFECE" height="5" style="stroke: #A80036; stroke-width: 1.5;" width="10" x="526" y="221.5083"/><text fill="#000000" font-family="sans-serif" font-size="14" lengthAdjust="spacingAndGlyphs" textLength="94" x="541" y="218.5552">ReportService</text><rect fill="#FEFECE" filter="url(#f1)" height="36.4883" style="stroke: #A80036; stroke-width: 1.5;" width="174" x="437" y="308.51"/><rect fill="#FEFECE" height="5" style="stroke: #A80036; stroke-width: 1.5;" width="10" x="432" y="313.51"/><rect fill="#FEFECE" height="5" style="stroke: #A80036; stroke-width: 1.5;" width="10" x="432" y="334.9983"/><text fill="#000000" font-family="sans-serif" font-size="14" lengthAdjust="spacingAndGlyphs" textLength="154" x="447" y="332.0452">TransactionRepository</text><rect fill="#FEFECE" filter="url(#f1)" height="36.4883" style="stroke: #A80036; stroke-width: 1.5;" width="130" x="680" y="195.02"/><rect fill="#FEFECE" height="5" style="stroke: #A80036; stroke-width: 1.5;" width="10" x="675" y="200.02"/><rect fill="#FEFECE" height="5" style="stroke: #A80036; stroke-width: 1.5;" width="10" x="675" y="221.5083"/><text fill="#000000" font-family="sans-serif" font-size="14" lengthAdjust="spacingAndGlyphs" textLength="110" x="690" y="218.5552">CategoryService</text><rect fill="#FEFECE" filter="url(#f1)" height="36.4883" style="stroke: #A80036; stroke-width: 1.5;" width="198" x="840" y="58.54"/><rect fill="#FEFECE" height="5" style="stroke: #A80036; stroke-width: 1.5;" width="10" x="835" y="63.54"/><rect fill="#FEFECE" height="5" style="stroke: #A80036; stroke-width: 1.5;" width="10" x="835" y="85.0283"/><text fill="#000000" font-family="sans-serif" font-size="14" lengthAdjust="spacingAndGlyphs" textLength="178" x="850" y="82.0752">PostgreSQL - transactions</text><rect fill="#FEFECE" filter="url(#f1)" height="36.4883" style="stroke: #A80036; stroke-width: 1.5;" width="185" x="1072.5" y="58.54"/><rect fill="#FEFECE" height="5" style="stroke: #A80036; stroke-width: 1.5;" width="10" x="1067.5" y="63.54"/><rect fill="#FEFECE" height="5" style="stroke: #A80036; stroke-width: 1.5;" width="10" x="1067.5" y="85.0283"/><text fill="#000000" font-family="sans-serif" font-size="14" lengthAdjust="spacingAndGlyphs" textLength="165" x="1082.5" y="82.0752">PostgreSQL - categories</text><ellipse cx="910" cy="318.51" fill="#FEFECE" filter="url(#f1)" rx="8" ry="8" style="stroke: #A80036; stroke-width: 2.0;"/><text fill="#000000" font-family="sans-serif" font-size="14" lengthAdjust="spacingAndGlyphs" textLength="135" x="842.5" y="341.0452">CategoryRepository</text><path d="M103.07,95.43 C100.9,110.19 100.59,130.87 112,144.02 C141.48,178 259.42,196.39 341.01,205.26 " fill="none" style="stroke: #A80036; stroke-width: 1.0;"/><polygon fill="#A80036" points="345.81,205.78,337.2974,200.8267,340.8395,205.2372,336.429,208.7794,345.81,205.78" style="stroke: #A80036; stroke-width: 1.0;"/><text fill="#000000" font-family="sans-serif" font-size="13" lengthAdjust="spacingAndGlyphs" textLength="150" x="113" y="140.5884">отправляет транзакции</text><path d="M271.84,95.3 C269.48,109.59 268.62,129.68 278,144.02 C292.79,166.64 317.26,181.93 341.86,192.19 " fill="none" style="stroke: #A80036; stroke-width: 1.0;"/><polygon fill="#A80036" points="346.37,194,339.4993,186.9436,341.7276,192.143,336.5281,194.3714,346.37,194" style="stroke: #A80036; stroke-width: 1.0;"/><text fill="#000000" font-family="sans-serif" font-size="13" lengthAdjust="spacingAndGlyphs" textLength="131" x="279" y="140.5884">запрашивает список</text><path d="M420.69,95.09 C420.04,104.52 419.32,116.41 419,127.02 C418.37,147.67 419.32,171.12 420.31,188.2 " fill="none" style="stroke: #A80036; stroke-width: 1.0;"/><polygon fill="#A80036" points="420.61,193.13,424.0622,183.906,420.3097,188.139,416.0767,184.3865,420.61,193.13" style="stroke: #A80036; stroke-width: 1.0;"/><text fill="#000000" font-family="sans-serif" font-size="13" lengthAdjust="spacingAndGlyphs" textLength="152" x="420" y="140.5884">фильтрует по условиям</text><path d="M568.14,95.37 C571.19,104.68 574.71,116.36 577,127.02 C581.41,147.5 584.29,171.15 585.99,188.34 " fill="none" style="stroke: #A80036; stroke-width: 1.0;"/><polygon fill="#A80036" points="586.47,193.31,589.6025,183.9726,585.998,188.3323,581.6382,184.7278,586.47,193.31" style="stroke: #A80036; stroke-width: 1.0;"/><text fill="#000000" font-family="sans-serif" font-size="13" lengthAdjust="spacingAndGlyphs" textLength="119" x="581.08" y="140.5884">генерирует отчеты</text><path d="M722.22,95.48 C723.04,110.47 721.5,131.47 709,144.02 C694.05,159.04 681.3,143.27 662,152.02 C641.94,161.12 622.75,177.02 608.95,190.2 " fill="none" style="stroke: #A80036; stroke-width: 1.0;"/><polygon fill="#A80036" points="605.56,193.5,614.7945,190.0759,609.138,190.0075,609.2065,184.351,605.56,193.5" style="stroke: #A80036; stroke-width: 1.0;"/><text fill="#000000" font-family="sans-serif" font-size="13" lengthAdjust="spacingAndGlyphs" textLength="147" x="719.82" y="140.5884">отображает статистику</text><path d="M404.62,231.84 C393.46,245.31 382.8,263.99 393,278.51 C402.47,291.99 416.18,301.64 431.19,308.55 " fill="none" style="stroke: #A80036; stroke-width: 1.0;"/><polygon fill="#A80036" points="435.39,310.37,428.7205,303.1231,430.8017,308.3832,425.5416,310.4643,435.39,310.37" style="stroke: #A80036; stroke-width: 1.0;"/><text fill="#000000" font-family="sans-serif" font-size="13" lengthAdjust="spacingAndGlyphs" textLength="171" x="394" y="275.0784">чтение/запись транзакций</text><path d="M586.98,231.9 C585.55,245.4 582.14,264.1 574,278.51 C568.6,288.08 560.62,296.86 552.62,304.2 " fill="none" style="stroke: #A80036; stroke-width: 1.0;"/><polygon fill="#A80036" points="549.33,307.12,558.7198,304.1482,553.0733,303.8053,553.4162,298.1588,549.33,307.12" style="stroke: #A80036; stroke-width: 1.0;"/><text fill="#000000" font-family="sans-serif" font-size="13" lengthAdjust="spacingAndGlyphs" textLength="178" x="581.97" y="275.0784">запрос данных для отчётов</text><path d="M771.14,231.93 C800.78,251.96 849,284.54 880.11,305.56 " fill="none" style="stroke: #A80036; stroke-width: 1.0;"/><polygon fill="#A80036" points="884.07,308.24,878.8532,299.8863,879.9274,305.4402,874.3735,306.5144,884.07,308.24" style="stroke: #A80036; stroke-width: 1.0;"/><text fill="#000000" font-family="sans-serif" font-size="13" lengthAdjust="spacingAndGlyphs" textLength="140" x="838.38" y="275.0784">работа с категориями</text></g></svg>
