<?xml version="1.0" encoding="UTF-8" standalone="yes"?><svg xmlns="http://www.w3.org/2000/svg" xmlns:xlink="http://www.w3.org/1999/xlink" height="889px" style="width:738px;height:889px;" version="1.1" viewBox="0 0 738 889" width="738px"><defs><filter height="300%" id="f1" width="300%" x="-1" y="-1"><feGaussianBlur result="blurOut" stdDeviation="2.0"/><feColorMatrix in="blurOut" result="blurOut2" type="matrix" values="0 0 0 0 0 0 0 0 0 0 0 0 0 0 0 0 0 0 .4 0"/><feOffset dx="4.0" dy="4.0" in="blurOut2" result="blurOut3"/><feBlend in="SourceGraphic" in2="blurOut3" mode="normal"/></filter></defs><g><text fill="#000000" font-family="sans-serif" font-size="14" font-weight="bold" lengthAdjust="spacingAndGlyphs" textLength="136" x="302.5" y="23.5352">CRUD for Category</text><rect fill="#FFFFFF" filter="url(#f1)" height="742.0742" style="stroke: #A80036; stroke-width: 1.0;" width="10" x="231.5" y="99.9766"/><rect fill="#FFFFFF" filter="url(#f1)" height="566.2109" style="stroke: #A80036; stroke-width: 1.0;" width="10" x="236.5" y="275.8398"/><rect fill="#FFFFFF" filter="url(#f1)" height="390.3477" style="stroke: #A80036; stroke-width: 1.0;" width="10" x="241.5" y="451.7031"/><rect fill="#FFFFFF" filter="url(#f1)" height="87.9316" style="stroke: #A80036; stroke-width: 1.0;" width="10" x="434.5" y="129.2871"/><rect fill="#FFFFFF" filter="url(#f1)" height="87.9316" style="stroke: #A80036; stroke-width: 1.0;" width="10" x="434.5" y="305.1504"/><rect fill="#FFFFFF" filter="url(#f1)" height="117.2422" style="stroke: #A80036; stroke-width: 1.0;" width="10" x="434.5" y="481.0137"/><rect fill="#FFFFFF" filter="url(#f1)" height="117.2422" style="stroke: #A80036; stroke-width: 1.0;" width="10" x="434.5" y="686.1875"/><rect fill="#FFFFFF" filter="url(#f1)" height="29.3105" style="stroke: #A80036; stroke-width: 1.0;" width="10" x="651.5" y="158.5977"/><rect fill="#FFFFFF" filter="url(#f1)" height="29.3105" style="stroke: #A80036; stroke-width: 1.0;" width="10" x="651.5" y="334.4609"/><rect fill="#FFFFFF" filter="url(#f1)" height="29.3105" style="stroke: #A80036; stroke-width: 1.0;" width="10" x="651.5" y="510.3242"/><rect fill="#FFFFFF" filter="url(#f1)" height="29.3105" style="stroke: #A80036; stroke-width: 1.0;" width="10" x="651.5" y="715.498"/><line style="stroke: #A80036; stroke-width: 1.0; stroke-dasharray: 5.0,5.0;" x1="32" x2="32" y1="68.9766" y2="851.0508"/><line style="stroke: #A80036; stroke-width: 1.0; stroke-dasharray: 5.0,5.0;" x1="236.5" x2="236.5" y1="68.9766" y2="851.0508"/><line style="stroke: #A80036; stroke-width: 1.0; stroke-dasharray: 5.0,5.0;" x1="439.5" x2="439.5" y1="68.9766" y2="851.0508"/><line style="stroke: #A80036; stroke-width: 1.0; stroke-dasharray: 5.0,5.0;" x1="656" x2="656" y1="68.9766" y2="851.0508"/><rect fill="#FEFECE" filter="url(#f1)" height="30.4883" style="stroke: #A80036; stroke-width: 1.5;" width="45" x="8" y="33.4883"/><text fill="#000000" font-family="sans-serif" font-size="14" lengthAdjust="spacingAndGlyphs" textLength="31" x="15" y="54.0234">User</text><rect fill="#FEFECE" filter="url(#f1)" height="30.4883" style="stroke: #A80036; stroke-width: 1.5;" width="45" x="8" y="850.0508"/><text fill="#000000" font-family="sans-serif" font-size="14" lengthAdjust="spacingAndGlyphs" textLength="31" x="15" y="870.5859">User</text><rect fill="#FEFECE" filter="url(#f1)" height="30.4883" style="stroke: #A80036; stroke-width: 1.5;" width="146" x="161.5" y="33.4883"/><text fill="#000000" font-family="sans-serif" font-size="14" lengthAdjust="spacingAndGlyphs" textLength="132" x="168.5" y="54.0234">CategoryController</text><rect fill="#FEFECE" filter="url(#f1)" height="30.4883" style="stroke: #A80036; stroke-width: 1.5;" width="146" x="161.5" y="850.0508"/><text fill="#000000" font-family="sans-serif" font-size="14" lengthAdjust="spacingAndGlyphs" textLength="132" x="168.5" y="870.5859">CategoryController</text><rect fill="#FEFECE" filter="url(#f1)" height="30.4883" style="stroke: #A80036; stroke-width: 1.5;" width="124" x="375.5" y="33.4883"/><text fill="#000000" font-family="sans-serif" font-size="14" lengthAdjust="spacingAndGlyphs" textLength="110" x="382.5" y="54.0234">CategoryService</text><rect fill="#FEFECE" filter="url(#f1)" height="30.4883" style="stroke: #A80036; stroke-width: 1.5;" width="124" x="375.5" y="850.0508"/><text fill="#000000" font-family="sans-serif" font-size="14" lengthAdjust="spacingAndGlyphs" textLength="110" x="382.5" y="870.5859">CategoryService</text><rect fill="#FEFECE" filter="url(#f1)" height="30.4883" style="stroke: #A80036; stroke-width: 1.5;" width="149" x="580" y="33.4883"/><text fill="#000000" font-family="sans-serif" font-size="14" lengthAdjust="spacingAndGlyphs" textLength="135" x="587" y="54.0234">CategoryRepository</text><rect fill="#FEFECE" filter="url(#f1)" height="30.4883" style="stroke: #A80036; stroke-width: 1.5;" width="149" x="580" y="850.0508"/><text fill="#000000" font-family="sans-serif" font-size="14" lengthAdjust="spacingAndGlyphs" textLength="135" x="587" y="870.5859">CategoryRepository</text><rect fill="#FFFFFF" filter="url(#f1)" height="742.0742" style="stroke: #A80036; stroke-width: 1.0;" width="10" x="231.5" y="99.9766"/><rect fill="#FFFFFF" filter="url(#f1)" height="566.2109" style="stroke: #A80036; stroke-width: 1.0;" width="10" x="236.5" y="275.8398"/><rect fill="#FFFFFF" filter="url(#f1)" height="390.3477" style="stroke: #A80036; stroke-width: 1.0;" width="10" x="241.5" y="451.7031"/><rect fill="#FFFFFF" filter="url(#f1)" height="87.9316" style="stroke: #A80036; stroke-width: 1.0;" width="10" x="434.5" y="129.2871"/><rect fill="#FFFFFF" filter="url(#f1)" height="87.9316" style="stroke: #A80036; stroke-width: 1.0;" width="10" x="434.5" y="305.1504"/><rect fill="#FFFFFF" filter="url(#f1)" height="117.2422" style="stroke: #A80036; stroke-width: 1.0;" width="10" x="434.5" y="481.0137"/><rect fill="#FFFFFF" filter="url(#f1)" height="117.2422" style="stroke: #A80036; stroke-width: 1.0;" width="10" x="434.5" y="686.1875"/><rect fill="#FFFFFF" filter="url(#f1)" height="29.3105" style="stroke: #A80036; stroke-width: 1.0;" width="10" x="651.5" y="158.5977"/><rect fill="#FFFFFF" filter="url(#f1)" height="29.3105" style="stroke: #A80036; stroke-width: 1.0;" width="10" x="651.5" y="334.4609"/><rect fill="#FFFFFF" filter="url(#f1)" height="29.3105" style="stroke: #A80036; stroke-width: 1.0;" width="10" x="651.5" y="510.3242"/><rect fill="#FFFFFF" filter="url(#f1)" height="29.3105" style="stroke: #A80036; stroke-width: 1.0;" width="10" x="651.5" y="715.498"/><polygon fill="#A80036" points="219.5,95.9766,229.5,99.9766,219.5,103.9766,223.5,99.9766" style="stroke: #A80036; stroke-width: 1.0;"/><line style="stroke: #A80036; stroke-width: 1.0;" x1="32.5" x2="225.5" y1="99.9766" y2="99.9766"/><text fill="#000000" font-family="sans-serif" font-size="13" lengthAdjust="spacingAndGlyphs" textLength="180" x="39.5" y="95.5449">POST /api/categories {name}</text><polygon fill="#A80036" points="422.5,125.2871,432.5,129.2871,422.5,133.2871,426.5,129.2871" style="stroke: #A80036; stroke-width: 1.0;"/><line style="stroke: #A80036; stroke-width: 1.0;" x1="241.5" x2="428.5" y1="129.2871" y2="129.2871"/><text fill="#000000" font-family="sans-serif" font-size="13" lengthAdjust="spacingAndGlyphs" textLength="67" x="248.5" y="124.8555">create(dto)</text><polygon fill="#A80036" points="639.5,154.5977,649.5,158.5977,639.5,162.5977,643.5,158.5977" style="stroke: #A80036; stroke-width: 1.0;"/><line style="stroke: #A80036; stroke-width: 1.0;" x1="444.5" x2="645.5" y1="158.5977" y2="158.5977"/><text fill="#000000" font-family="sans-serif" font-size="13" lengthAdjust="spacingAndGlyphs" textLength="72" x="451.5" y="154.166">save(entity)</text><polygon fill="#A80036" points="455.5,183.9082,445.5,187.9082,455.5,191.9082,451.5,187.9082" style="stroke: #A80036; stroke-width: 1.0;"/><line style="stroke: #A80036; stroke-width: 1.0; stroke-dasharray: 2.0,2.0;" x1="449.5" x2="655.5" y1="187.9082" y2="187.9082"/><text fill="#000000" font-family="sans-serif" font-size="13" lengthAdjust="spacingAndGlyphs" textLength="148" x="461.5" y="183.4766">сохранённая сущность</text><polygon fill="#A80036" points="252.5,213.2188,242.5,217.2188,252.5,221.2188,248.5,217.2188" style="stroke: #A80036; stroke-width: 1.0;"/><line style="stroke: #A80036; stroke-width: 1.0; stroke-dasharray: 2.0,2.0;" x1="246.5" x2="438.5" y1="217.2188" y2="217.2188"/><text fill="#000000" font-family="sans-serif" font-size="13" lengthAdjust="spacingAndGlyphs" textLength="83" x="258.5" y="212.7871">ResponseDto</text><polygon fill="#A80036" points="43.5,242.5293,33.5,246.5293,43.5,250.5293,39.5,246.5293" style="stroke: #A80036; stroke-width: 1.0;"/><line style="stroke: #A80036; stroke-width: 1.0; stroke-dasharray: 2.0,2.0;" x1="37.5" x2="230.5" y1="246.5293" y2="246.5293"/><text fill="#000000" font-family="sans-serif" font-size="13" lengthAdjust="spacingAndGlyphs" textLength="76" x="49.5" y="242.0977">201 Created</text><polygon fill="#A80036" points="224.5,271.8398,234.5,275.8398,224.5,279.8398,228.5,275.8398" style="stroke: #A80036; stroke-width: 1.0;"/><line style="stroke: #A80036; stroke-width: 1.0;" x1="32.5" x2="230.5" y1="275.8398" y2="275.8398"/><text fill="#000000" font-family="sans-serif" font-size="13" lengthAdjust="spacingAndGlyphs" textLength="126" x="39.5" y="271.4082">GET /api/categories</text><polygon fill="#A80036" points="422.5,301.1504,432.5,305.1504,422.5,309.1504,426.5,305.1504" style="stroke: #A80036; stroke-width: 1.0;"/><line style="stroke: #A80036; stroke-width: 1.0;" x1="246.5" x2="428.5" y1="305.1504" y2="305.1504"/><text fill="#000000" font-family="sans-serif" font-size="13" lengthAdjust="spacingAndGlyphs" textLength="45" x="253.5" y="300.7188">getAll()</text><polygon fill="#A80036" points="639.5,330.4609,649.5,334.4609,639.5,338.4609,643.5,334.4609" style="stroke: #A80036; stroke-width: 1.0;"/><line style="stroke: #A80036; stroke-width: 1.0;" x1="444.5" x2="645.5" y1="334.4609" y2="334.4609"/><text fill="#000000" font-family="sans-serif" font-size="13" lengthAdjust="spacingAndGlyphs" textLength="50" x="451.5" y="330.0293">findAll()</text><polygon fill="#A80036" points="455.5,359.7715,445.5,363.7715,455.5,367.7715,451.5,363.7715" style="stroke: #A80036; stroke-width: 1.0;"/><line style="stroke: #A80036; stroke-width: 1.0; stroke-dasharray: 2.0,2.0;" x1="449.5" x2="655.5" y1="363.7715" y2="363.7715"/><text fill="#000000" font-family="sans-serif" font-size="13" lengthAdjust="spacingAndGlyphs" textLength="114" x="461.5" y="359.3398">список категорий</text><polygon fill="#A80036" points="257.5,389.082,247.5,393.082,257.5,397.082,253.5,393.082" style="stroke: #A80036; stroke-width: 1.0;"/><line style="stroke: #A80036; stroke-width: 1.0; stroke-dasharray: 2.0,2.0;" x1="251.5" x2="438.5" y1="393.082" y2="393.082"/><text fill="#000000" font-family="sans-serif" font-size="13" lengthAdjust="spacingAndGlyphs" textLength="164" x="263.5" y="388.6504">преобразованный список</text><polygon fill="#A80036" points="43.5,418.3926,33.5,422.3926,43.5,426.3926,39.5,422.3926" style="stroke: #A80036; stroke-width: 1.0;"/><line style="stroke: #A80036; stroke-width: 1.0; stroke-dasharray: 2.0,2.0;" x1="37.5" x2="235.5" y1="422.3926" y2="422.3926"/><text fill="#000000" font-family="sans-serif" font-size="13" lengthAdjust="spacingAndGlyphs" textLength="80" x="49.5" y="417.9609">JSON массив</text><polygon fill="#A80036" points="229.5,447.7031,239.5,451.7031,229.5,455.7031,233.5,451.7031" style="stroke: #A80036; stroke-width: 1.0;"/><line style="stroke: #A80036; stroke-width: 1.0;" x1="32.5" x2="235.5" y1="451.7031" y2="451.7031"/><text fill="#000000" font-family="sans-serif" font-size="13" lengthAdjust="spacingAndGlyphs" textLength="153" x="39.5" y="447.2715">PUT /api/categories/{id}</text><polygon fill="#A80036" points="422.5,477.0137,432.5,481.0137,422.5,485.0137,426.5,481.0137" style="stroke: #A80036; stroke-width: 1.0;"/><line style="stroke: #A80036; stroke-width: 1.0;" x1="251.5" x2="428.5" y1="481.0137" y2="481.0137"/><text fill="#000000" font-family="sans-serif" font-size="13" lengthAdjust="spacingAndGlyphs" textLength="92" x="258.5" y="476.582">update(id, dto)</text><polygon fill="#A80036" points="639.5,506.3242,649.5,510.3242,639.5,514.3242,643.5,510.3242" style="stroke: #A80036; stroke-width: 1.0;"/><line style="stroke: #A80036; stroke-width: 1.0;" x1="444.5" x2="645.5" y1="510.3242" y2="510.3242"/><text fill="#000000" font-family="sans-serif" font-size="13" lengthAdjust="spacingAndGlyphs" textLength="59" x="451.5" y="505.8926">findById()</text><polygon fill="#A80036" points="455.5,535.6348,445.5,539.6348,455.5,543.6348,451.5,539.6348" style="stroke: #A80036; stroke-width: 1.0;"/><line style="stroke: #A80036; stroke-width: 1.0; stroke-dasharray: 2.0,2.0;" x1="449.5" x2="655.5" y1="539.6348" y2="539.6348"/><text fill="#000000" font-family="sans-serif" font-size="13" lengthAdjust="spacingAndGlyphs" textLength="137" x="461.5" y="535.2031">найденная категория</text><polygon fill="#A80036" points="644.5,564.9453,654.5,568.9453,644.5,572.9453,648.5,568.9453" style="stroke: #A80036; stroke-width: 1.0;"/><line style="stroke: #A80036; stroke-width: 1.0;" x1="444.5" x2="650.5" y1="568.9453" y2="568.9453"/><text fill="#000000" font-family="sans-serif" font-size="13" lengthAdjust="spacingAndGlyphs" textLength="188" x="451.5" y="564.5137">save(обновленная категория)</text><polygon fill="#A80036" points="450.5,594.2559,440.5,598.2559,450.5,602.2559,446.5,598.2559" style="stroke: #A80036; stroke-width: 1.0;"/><line style="stroke: #A80036; stroke-width: 1.0; stroke-dasharray: 2.0,2.0;" x1="444.5" x2="655.5" y1="598.2559" y2="598.2559"/><text fill="#000000" font-family="sans-serif" font-size="13" lengthAdjust="spacingAndGlyphs" textLength="152" x="456.5" y="593.8242">обновленная категория</text><polygon fill="#A80036" points="43.5,623.5664,33.5,627.5664,43.5,631.5664,39.5,627.5664" style="stroke: #A80036; stroke-width: 1.0;"/><line style="stroke: #A80036; stroke-width: 1.0; stroke-dasharray: 2.0,2.0;" x1="37.5" x2="240.5" y1="627.5664" y2="627.5664"/><text fill="#000000" font-family="sans-serif" font-size="13" lengthAdjust="spacingAndGlyphs" textLength="46" x="49.5" y="623.1348">200 OK</text><polygon fill="#A80036" points="229.5,652.877,239.5,656.877,229.5,660.877,233.5,656.877" style="stroke: #A80036; stroke-width: 1.0;"/><line style="stroke: #A80036; stroke-width: 1.0;" x1="32.5" x2="235.5" y1="656.877" y2="656.877"/><text fill="#000000" font-family="sans-serif" font-size="13" lengthAdjust="spacingAndGlyphs" textLength="175" x="39.5" y="652.4453">DELETE /api/categories/{id}</text><polygon fill="#A80036" points="422.5,682.1875,432.5,686.1875,422.5,690.1875,426.5,686.1875" style="stroke: #A80036; stroke-width: 1.0;"/><line style="stroke: #A80036; stroke-width: 1.0;" x1="251.5" x2="428.5" y1="686.1875" y2="686.1875"/><text fill="#000000" font-family="sans-serif" font-size="13" lengthAdjust="spacingAndGlyphs" textLength="58" x="258.5" y="681.7559">delete(id)</text><polygon fill="#A80036" points="639.5,711.498,649.5,715.498,639.5,719.498,643.5,715.498" style="stroke: #A80036; stroke-width: 1.0;"/><line style="stroke: #A80036; stroke-width: 1.0;" x1="444.5" x2="645.5" y1="715.498" y2="715.498"/><text fill="#000000" font-family="sans-serif" font-size="13" lengthAdjust="spacingAndGlyphs" textLength="59" x="451.5" y="711.0664">findById()</text><polygon fill="#A80036" points="455.5,740.8086,445.5,744.8086,455.5,748.8086,451.5,744.8086" style="stroke: #A80036; stroke-width: 1.0;"/><line style="stroke: #A80036; stroke-width: 1.0; stroke-dasharray: 2.0,2.0;" x1="449.5" x2="655.5" y1="744.8086" y2="744.8086"/><text fill="#000000" font-family="sans-serif" font-size="13" lengthAdjust="spacingAndGlyphs" textLength="137" x="461.5" y="740.377">найденная категория</text><polygon fill="#A80036" points="644.5,770.1191,654.5,774.1191,644.5,778.1191,648.5,774.1191" style="stroke: #A80036; stroke-width: 1.0;"/><line style="stroke: #A80036; stroke-width: 1.0;" x1="444.5" x2="650.5" y1="774.1191" y2="774.1191"/><text fill="#000000" font-family="sans-serif" font-size="13" lengthAdjust="spacingAndGlyphs" textLength="84" x="451.5" y="769.6875">deleteById(id)</text><polygon fill="#A80036" points="450.5,799.4297,440.5,803.4297,450.5,807.4297,446.5,803.4297" style="stroke: #A80036; stroke-width: 1.0;"/><line style="stroke: #A80036; stroke-width: 1.0; stroke-dasharray: 2.0,2.0;" x1="444.5" x2="655.5" y1="803.4297" y2="803.4297"/><text fill="#000000" font-family="sans-serif" font-size="13" lengthAdjust="spacingAndGlyphs" textLength="18" x="456.5" y="798.998">OK</text><polygon fill="#A80036" points="43.5,828.7402,33.5,832.7402,43.5,836.7402,39.5,832.7402" style="stroke: #A80036; stroke-width: 1.0;"/><line style="stroke: #A80036; stroke-width: 1.0; stroke-dasharray: 2.0,2.0;" x1="37.5" x2="240.5" y1="832.7402" y2="832.7402"/><text fill="#000000" font-family="sans-serif" font-size="13" lengthAdjust="spacingAndGlyphs" textLength="100" x="49.5" y="828.3086">204 No Content</text></g></svg>
