<?xml version="1.0" encoding="UTF-8" standalone="yes"?><svg xmlns="http://www.w3.org/2000/svg" xmlns:xlink="http://www.w3.org/1999/xlink" height="690px" style="width:1065px;height:690px;" version="1.1" viewBox="0 0 1065 690" width="1065px"><defs><filter height="300%" id="f1" width="300%" x="-1" y="-1"><feGaussianBlur result="blurOut" stdDeviation="2.0"/><feColorMatrix in="blurOut" result="blurOut2" type="matrix" values="0 0 0 0 0 0 0 0 0 0 0 0 0 0 0 0 0 0 .4 0"/><feOffset dx="4.0" dy="4.0" in="blurOut2" result="blurOut3"/><feBlend in="SourceGraphic" in2="blurOut3" mode="normal"/></filter></defs><g><polygon fill="#FFFFFF" filter="url(#f1)" points="52,23.76,219,23.76,226,46.2483,428,46.2483,428,611.69,52,611.69,52,23.76" style="stroke: #000000; stroke-width: 2.0;"/><line style="stroke: #000000; stroke-width: 2.0;" x1="52" x2="226" y1="46.2483" y2="46.2483"/><text fill="#000000" font-family="sans-serif" font-size="14" font-weight="bold" lengthAdjust="spacingAndGlyphs" textLength="161" x="56" y="39.2952">team.mephi.hackathon</text><polygon fill="#FEFECE" filter="url(#f1)" points="354.5,58.76,383.5,58.76,390.5,81.2483,407.5,81.2483,407.5,98.2483,354.5,98.2483,354.5,58.76" style="stroke: #000000; stroke-width: 1.5;"/><line style="stroke: #000000; stroke-width: 1.5;" x1="354.5" x2="390.5" y1="81.2483" y2="81.2483"/><text fill="#000000" font-family="sans-serif" font-size="14" lengthAdjust="spacingAndGlyphs" textLength="23" x="358.5" y="75.2952">dto</text><polygon fill="#FEFECE" filter="url(#f1)" points="342,158.25,386,158.25,393,180.7383,410,180.7383,410,197.7383,342,197.7383,342,158.25" style="stroke: #000000; stroke-width: 1.5;"/><line style="stroke: #000000; stroke-width: 1.5;" x1="342" x2="393" y1="180.7383" y2="180.7383"/><text fill="#000000" font-family="sans-serif" font-size="14" lengthAdjust="spacingAndGlyphs" textLength="38" x="346" y="174.7852">entity</text><polygon fill="#FEFECE" filter="url(#f1)" points="68,257.74,144,257.74,151,280.2283,168,280.2283,168,297.2283,68,297.2283,68,257.74" style="stroke: #000000; stroke-width: 1.5;"/><line style="stroke: #000000; stroke-width: 1.5;" x1="68" x2="151" y1="280.2283" y2="280.2283"/><text fill="#000000" font-family="sans-serif" font-size="14" lengthAdjust="spacingAndGlyphs" textLength="70" x="72" y="274.2752">repository</text><polygon fill="#FEFECE" filter="url(#f1)" points="323.5,357.22,376.5,357.22,383.5,379.7083,400.5,379.7083,400.5,396.7083,323.5,396.7083,323.5,357.22" style="stroke: #000000; stroke-width: 1.5;"/><line style="stroke: #000000; stroke-width: 1.5;" x1="323.5" x2="383.5" y1="379.7083" y2="379.7083"/><text fill="#000000" font-family="sans-serif" font-size="14" lengthAdjust="spacingAndGlyphs" textLength="47" x="327.5" y="373.7552">service</text><polygon fill="#FEFECE" filter="url(#f1)" points="313.5,456.71,386.5,456.71,393.5,479.1983,410.5,479.1983,410.5,496.1983,313.5,496.1983,313.5,456.71" style="stroke: #000000; stroke-width: 1.5;"/><line style="stroke: #000000; stroke-width: 1.5;" x1="313.5" x2="393.5" y1="479.1983" y2="479.1983"/><text fill="#000000" font-family="sans-serif" font-size="14" lengthAdjust="spacingAndGlyphs" textLength="67" x="317.5" y="473.2452">controller</text><polygon fill="#FEFECE" filter="url(#f1)" points="125.5,556.2,206.5,556.2,213.5,578.6883,230.5,578.6883,230.5,595.6883,125.5,595.6883,125.5,556.2" style="stroke: #000000; stroke-width: 1.5;"/><line style="stroke: #000000; stroke-width: 1.5;" x1="125.5" x2="213.5" y1="578.6883" y2="578.6883"/><text fill="#000000" font-family="sans-serif" font-size="14" lengthAdjust="spacingAndGlyphs" textLength="75" x="129.5" y="572.7352">exceptions</text><polygon fill="#FEFECE" filter="url(#f1)" points="203,257.74,295,257.74,302,280.2283,319,280.2283,319,297.2283,203,297.2283,203,257.74" style="stroke: #000000; stroke-width: 1.5;"/><line style="stroke: #000000; stroke-width: 1.5;" x1="203" x2="302" y1="280.2283" y2="280.2283"/><text fill="#000000" font-family="sans-serif" font-size="14" lengthAdjust="spacingAndGlyphs" textLength="86" x="207" y="274.2752">specification</text><polygon fill="#FEFECE" filter="url(#f1)" points="323.5,556.2,382.5,556.2,389.5,578.6883,406.5,578.6883,406.5,595.6883,323.5,595.6883,323.5,556.2" style="stroke: #000000; stroke-width: 1.5;"/><line style="stroke: #000000; stroke-width: 1.5;" x1="323.5" x2="389.5" y1="578.6883" y2="578.6883"/><text fill="#000000" font-family="sans-serif" font-size="14" lengthAdjust="spacingAndGlyphs" textLength="53" x="327.5" y="572.7352">security</text><polygon fill="#FEFECE" filter="url(#f1)" points="353.5,257.74,388.5,257.74,395.5,280.2283,412.5,280.2283,412.5,297.2283,353.5,297.2283,353.5,257.74" style="stroke: #000000; stroke-width: 1.5;"/><line style="stroke: #000000; stroke-width: 1.5;" x1="353.5" x2="395.5" y1="280.2283" y2="280.2283"/><text fill="#000000" font-family="sans-serif" font-size="14" lengthAdjust="spacingAndGlyphs" textLength="29" x="357.5" y="274.2752">utils</text><polygon fill="#FBFB77" filter="url(#f1)" points="445,165.34,445,190.6505,603,190.6505,603,175.34,593,165.34,445,165.34" style="stroke: #A80036; stroke-width: 1.0;"/><polygon fill="#FBFB77" points="445,165.34,445,190.6505,603,190.6505,603,175.34,593,165.34,510.25,165.34,407.9,97.84,502.25,165.34,445,165.34" style="stroke: #A80036; stroke-width: 1.0;"/><line style="stroke: #A80036; stroke-width: 1.0;" x1="593" x2="593" y1="165.34" y2="175.34"/><line style="stroke: #A80036; stroke-width: 1.0;" x1="603" x2="593" y1="175.34" y2="175.34"/><text fill="#000000" font-family="sans-serif" font-size="13" lengthAdjust="spacingAndGlyphs" textLength="137" x="451" y="182.9084">Data Transfer Objects</text><polygon fill="#FBFB77" filter="url(#f1)" points="447,264.83,447,290.1405,567,290.1405,567,274.83,557,264.83,447,264.83" style="stroke: #A80036; stroke-width: 1.0;"/><polygon fill="#FBFB77" points="447,264.83,447,290.1405,567,290.1405,567,274.83,557,264.83,494.98,264.83,401.57,198.02,486.98,264.83,447,264.83" style="stroke: #A80036; stroke-width: 1.0;"/><line style="stroke: #A80036; stroke-width: 1.0;" x1="557" x2="557" y1="264.83" y2="274.83"/><line style="stroke: #A80036; stroke-width: 1.0;" x1="567" x2="557" y1="274.83" y2="274.83"/><text fill="#000000" font-family="sans-serif" font-size="13" lengthAdjust="spacingAndGlyphs" textLength="99" x="453" y="282.3984">ORM-сущности</text><polygon fill="#FBFB77" filter="url(#f1)" points="443.5,364.31,443.5,389.6205,638.5,389.6205,638.5,374.31,628.5,364.31,443.5,364.31" style="stroke: #A80036; stroke-width: 1.0;"/><line style="stroke: #A80036; stroke-width: 1.0;" x1="628.5" x2="628.5" y1="364.31" y2="374.31"/><line style="stroke: #A80036; stroke-width: 1.0;" x1="638.5" x2="628.5" y1="374.31" y2="374.31"/><text fill="#000000" font-family="sans-serif" font-size="13" lengthAdjust="spacingAndGlyphs" textLength="174" x="449.5" y="381.8784">Доступ к данным через JPA</text><polygon fill="#FBFB77" filter="url(#f1)" points="445.5,463.8,445.5,489.1105,562.5,489.1105,562.5,473.8,552.5,463.8,445.5,463.8" style="stroke: #A80036; stroke-width: 1.0;"/><polygon fill="#FBFB77" points="445.5,463.8,445.5,489.1105,562.5,489.1105,562.5,473.8,552.5,463.8,490.64,463.8,389.72,397,482.64,463.8,445.5,463.8" style="stroke: #A80036; stroke-width: 1.0;"/><line style="stroke: #A80036; stroke-width: 1.0;" x1="552.5" x2="552.5" y1="463.8" y2="473.8"/><line style="stroke: #A80036; stroke-width: 1.0;" x1="562.5" x2="552.5" y1="473.8" y2="473.8"/><text fill="#000000" font-family="sans-serif" font-size="13" lengthAdjust="spacingAndGlyphs" textLength="96" x="451.5" y="481.3684">Бизнес-логика</text><polygon fill="#FBFB77" filter="url(#f1)" points="444.5,563.29,444.5,588.6005,519.5,588.6005,519.5,573.29,509.5,563.29,444.5,563.29" style="stroke: #A80036; stroke-width: 1.0;"/><polygon fill="#FBFB77" points="444.5,563.29,444.5,588.6005,519.5,588.6005,519.5,573.29,509.5,563.29,471.33,563.29,385.42,496.49,463.33,563.29,444.5,563.29" style="stroke: #A80036; stroke-width: 1.0;"/><line style="stroke: #A80036; stroke-width: 1.0;" x1="509.5" x2="509.5" y1="563.29" y2="573.29"/><line style="stroke: #A80036; stroke-width: 1.0;" x1="519.5" x2="509.5" y1="573.29" y2="573.29"/><text fill="#000000" font-family="sans-serif" font-size="13" lengthAdjust="spacingAndGlyphs" textLength="54" x="450.5" y="580.8584">REST API</text><polygon fill="#FBFB77" filter="url(#f1)" points="6,655.69,6,681.0005,272,681.0005,272,665.69,262,655.69,6,655.69" style="stroke: #A80036; stroke-width: 1.0;"/><polygon fill="#FBFB77" points="6,655.69,6,681.0005,272,681.0005,272,665.69,262,655.69,148.16,655.69,169.73,596.12,140.16,655.69,6,655.69" style="stroke: #A80036; stroke-width: 1.0;"/><line style="stroke: #A80036; stroke-width: 1.0;" x1="262" x2="262" y1="655.69" y2="665.69"/><line style="stroke: #A80036; stroke-width: 1.0;" x1="272" x2="262" y1="665.69" y2="665.69"/><text fill="#000000" font-family="sans-serif" font-size="13" lengthAdjust="spacingAndGlyphs" textLength="245" x="12" y="673.2584">Централизованная обработка ошибок</text><polygon fill="#FBFB77" filter="url(#f1)" points="673.5,364.31,673.5,389.6205,856.5,389.6205,856.5,374.31,846.5,364.31,673.5,364.31" style="stroke: #A80036; stroke-width: 1.0;"/><line style="stroke: #A80036; stroke-width: 1.0;" x1="846.5" x2="846.5" y1="364.31" y2="374.31"/><line style="stroke: #A80036; stroke-width: 1.0;" x1="856.5" x2="846.5" y1="374.31" y2="374.31"/><text fill="#000000" font-family="sans-serif" font-size="13" lengthAdjust="spacingAndGlyphs" textLength="162" x="679.5" y="381.8784">Фильтрация по условиям</text><polygon fill="#FBFB77" filter="url(#f1)" points="306.5,655.69,306.5,681.0005,501.5,681.0005,501.5,665.69,491.5,655.69,306.5,655.69" style="stroke: #A80036; stroke-width: 1.0;"/><polygon fill="#FBFB77" points="306.5,655.69,306.5,681.0005,501.5,681.0005,501.5,665.69,491.5,655.69,402.84,655.69,373.27,596.12,394.84,655.69,306.5,655.69" style="stroke: #A80036; stroke-width: 1.0;"/><line style="stroke: #A80036; stroke-width: 1.0;" x1="491.5" x2="491.5" y1="655.69" y2="665.69"/><line style="stroke: #A80036; stroke-width: 1.0;" x1="501.5" x2="491.5" y1="665.69" y2="665.69"/><text fill="#000000" font-family="sans-serif" font-size="13" lengthAdjust="spacingAndGlyphs" textLength="174" x="312.5" y="673.2584">Авторизация через OAuth2</text><polygon fill="#FBFB77" filter="url(#f1)" points="891.5,364.31,891.5,389.6205,1056.5,389.6205,1056.5,374.31,1046.5,364.31,891.5,364.31" style="stroke: #A80036; stroke-width: 1.0;"/><line style="stroke: #A80036; stroke-width: 1.0;" x1="1046.5" x2="1046.5" y1="364.31" y2="374.31"/><line style="stroke: #A80036; stroke-width: 1.0;" x1="1056.5" x2="1046.5" y1="374.31" y2="374.31"/><text fill="#000000" font-family="sans-serif" font-size="13" lengthAdjust="spacingAndGlyphs" textLength="144" x="897.5" y="381.8784">Маппинг DTO ↔ Entity</text><path d="M380.04,98.3 C379.26,113.44 378.16,134.88 377.3,151.56 " fill="none" style="stroke: #A80036; stroke-width: 1.0;"/><polygon fill="#A80036" points="377.06,156.41,381.517,147.6273,377.3168,151.4166,373.5275,147.2164,377.06,156.41" style="stroke: #A80036; stroke-width: 1.0;"/><path d="M341.74,191.94 C298.98,208.1 225.26,235.95 174.18,255.25 " fill="none" style="stroke: #A80036; stroke-width: 1.0;"/><polygon fill="#A80036" points="169.8,256.91,179.6315,257.4952,174.4816,255.1544,176.8225,250.0046,169.8,256.91" style="stroke: #A80036; stroke-width: 1.0;"/><path d="M165.92,297.62 C209.79,315.15 274.24,340.9 317.13,358.04 " fill="none" style="stroke: #A80036; stroke-width: 1.0;"/><polygon fill="#A80036" points="321.63,359.84,314.7406,352.8018,316.9827,357.9954,311.7892,360.2375,321.63,359.84" style="stroke: #A80036; stroke-width: 1.0;"/><path d="M362,396.77 C362,411.91 362,433.35 362,450.02 " fill="none" style="stroke: #A80036; stroke-width: 1.0;"/><polygon fill="#A80036" points="362,454.87,366,445.87,362,449.87,358,445.87,362,454.87" style="stroke: #A80036; stroke-width: 1.0;"/><path d="M326.09,496.49 C295.54,512.67 251.65,535.93 219.58,552.92 " fill="none" style="stroke: #A80036; stroke-width: 1.0;"/><polygon fill="#A80036" points="215.47,555.09,225.2958,554.4171,219.8896,552.7519,221.5548,547.3457,215.47,555.09" style="stroke: #A80036; stroke-width: 1.0;"/><path d="M362.58,496.25 C363.04,511.4 363.7,532.83 364.22,549.51 " fill="none" style="stroke: #A80036; stroke-width: 1.0;"/><polygon fill="#A80036" points="364.37,554.36,368.0853,545.2388,364.2129,549.3625,360.0893,545.4901,364.37,554.36" style="stroke: #A80036; stroke-width: 1.0;"/><path d="M378.95,297.28 C375.69,312.42 371.07,333.86 367.48,350.53 " fill="none" style="stroke: #A80036; stroke-width: 1.0;"/><polygon fill="#A80036" points="366.43,355.42,372.2429,347.4695,367.4874,350.5331,364.4238,345.7776,366.43,355.42" style="stroke: #A80036; stroke-width: 1.0;"/><path d="M280.47,297.28 C296.86,313.09 320.35,335.77 337.91,352.72 " fill="none" style="stroke: #A80036; stroke-width: 1.0;"/><polygon fill="#A80036" points="341.15,355.85,337.4479,346.7234,337.5508,352.3793,331.8949,352.4822,341.15,355.85" style="stroke: #A80036; stroke-width: 1.0;"/><path d="M168.43,292.69 C174.34,294.26 180.3,295.81 186,297.22 C289.69,323 411.45,349.11 482.05,363.85 " fill="none" style="stroke: #A80036; stroke-width: 1.0; stroke-dasharray: 7.0,7.0;"/><path d="M319.46,293.47 C325.04,294.79 330.62,296.06 336,297.22 C403.53,311.85 592.8,345.64 695.92,363.84 " fill="none" style="stroke: #A80036; stroke-width: 1.0; stroke-dasharray: 7.0,7.0;"/><path d="M412.81,291.9 C418.13,293.92 423.67,295.8 429,297.22 C621.84,348.62 676.97,325.5 874,357.22 C886.29,359.2 899.4,361.52 911.94,363.82 " fill="none" style="stroke: #A80036; stroke-width: 1.0; stroke-dasharray: 7.0,7.0;"/></g></svg>
