<?xml version="1.0" encoding="UTF-8" standalone="yes"?><svg xmlns="http://www.w3.org/2000/svg" xmlns:xlink="http://www.w3.org/1999/xlink" height="619px" style="width:405px;height:619px;" version="1.1" viewBox="0 0 405 619" width="405px"><defs><filter height="300%" id="f1" width="300%" x="-1" y="-1"><feGaussianBlur result="blurOut" stdDeviation="2.0"/><feColorMatrix in="blurOut" result="blurOut2" type="matrix" values="0 0 0 0 0 0 0 0 0 0 0 0 0 0 0 0 0 0 .4 0"/><feOffset dx="4.0" dy="4.0" in="blurOut2" result="blurOut3"/><feBlend in="SourceGraphic" in2="blurOut3" mode="normal"/></filter></defs><g><polygon fill="#FFFFFF" filter="url(#f1)" points="22,24.07,189,24.07,196,46.5583,398,46.5583,398,612,22,612,22,24.07" style="stroke: #000000; stroke-width: 2.0;"/><line style="stroke: #000000; stroke-width: 2.0;" x1="22" x2="196" y1="46.5583" y2="46.5583"/><text fill="#000000" font-family="sans-serif" font-size="14" font-weight="bold" lengthAdjust="spacingAndGlyphs" textLength="161" x="26" y="39.6052">team.mephi.hackathon</text><polygon fill="#FEFECE" filter="url(#f1)" points="61.5,59.07,90.5,59.07,97.5,81.5583,114.5,81.5583,114.5,98.5583,61.5,98.5583,61.5,59.07" style="stroke: #000000; stroke-width: 1.5;"/><line style="stroke: #000000; stroke-width: 1.5;" x1="61.5" x2="97.5" y1="81.5583" y2="81.5583"/><text fill="#000000" font-family="sans-serif" font-size="14" lengthAdjust="spacingAndGlyphs" textLength="23" x="65.5" y="75.6052">dto</text><polygon fill="#FEFECE" filter="url(#f1)" points="54,158.56,98,158.56,105,181.0483,122,181.0483,122,198.0483,54,198.0483,54,158.56" style="stroke: #000000; stroke-width: 1.5;"/><line style="stroke: #000000; stroke-width: 1.5;" x1="54" x2="105" y1="181.0483" y2="181.0483"/><text fill="#000000" font-family="sans-serif" font-size="14" lengthAdjust="spacingAndGlyphs" textLength="38" x="58" y="175.0952">entity</text><polygon fill="#FEFECE" filter="url(#f1)" points="38,258.05,114,258.05,121,280.5383,138,280.5383,138,297.5383,38,297.5383,38,258.05" style="stroke: #000000; stroke-width: 1.5;"/><line style="stroke: #000000; stroke-width: 1.5;" x1="38" x2="121" y1="280.5383" y2="280.5383"/><text fill="#000000" font-family="sans-serif" font-size="14" lengthAdjust="spacingAndGlyphs" textLength="70" x="42" y="274.5852">repository</text><polygon fill="#FEFECE" filter="url(#f1)" points="163.5,357.54,216.5,357.54,223.5,380.0283,240.5,380.0283,240.5,397.0283,163.5,397.0283,163.5,357.54" style="stroke: #000000; stroke-width: 1.5;"/><line style="stroke: #000000; stroke-width: 1.5;" x1="163.5" x2="223.5" y1="380.0283" y2="380.0283"/><text fill="#000000" font-family="sans-serif" font-size="14" lengthAdjust="spacingAndGlyphs" textLength="47" x="167.5" y="374.0752">service</text><polygon fill="#FEFECE" filter="url(#f1)" points="153.5,457.02,226.5,457.02,233.5,479.5083,250.5,479.5083,250.5,496.5083,153.5,496.5083,153.5,457.02" style="stroke: #000000; stroke-width: 1.5;"/><line style="stroke: #000000; stroke-width: 1.5;" x1="153.5" x2="233.5" y1="479.5083" y2="479.5083"/><text fill="#000000" font-family="sans-serif" font-size="14" lengthAdjust="spacingAndGlyphs" textLength="67" x="157.5" y="473.5552">controller</text><polygon fill="#FEFECE" filter="url(#f1)" points="93.5,556.51,174.5,556.51,181.5,578.9983,198.5,578.9983,198.5,595.9983,93.5,595.9983,93.5,556.51" style="stroke: #000000; stroke-width: 1.5;"/><line style="stroke: #000000; stroke-width: 1.5;" x1="93.5" x2="181.5" y1="578.9983" y2="578.9983"/><text fill="#000000" font-family="sans-serif" font-size="14" lengthAdjust="spacingAndGlyphs" textLength="75" x="97.5" y="573.0452">exceptions</text><polygon fill="#FEFECE" filter="url(#f1)" points="233.5,556.51,292.5,556.51,299.5,578.9983,316.5,578.9983,316.5,595.9983,233.5,595.9983,233.5,556.51" style="stroke: #000000; stroke-width: 1.5;"/><line style="stroke: #000000; stroke-width: 1.5;" x1="233.5" x2="299.5" y1="578.9983" y2="578.9983"/><text fill="#000000" font-family="sans-serif" font-size="14" lengthAdjust="spacingAndGlyphs" textLength="53" x="237.5" y="573.0452">security</text><polygon fill="#FEFECE" filter="url(#f1)" points="172.5,258.05,207.5,258.05,214.5,280.5383,231.5,280.5383,231.5,297.5383,172.5,297.5383,172.5,258.05" style="stroke: #000000; stroke-width: 1.5;"/><line style="stroke: #000000; stroke-width: 1.5;" x1="172.5" x2="214.5" y1="280.5383" y2="280.5383"/><text fill="#000000" font-family="sans-serif" font-size="14" lengthAdjust="spacingAndGlyphs" textLength="29" x="176.5" y="274.5852">utils</text><polygon fill="#FEFECE" filter="url(#f1)" points="266,258.05,358,258.05,365,280.5383,382,280.5383,382,297.5383,266,297.5383,266,258.05" style="stroke: #000000; stroke-width: 1.5;"/><line style="stroke: #000000; stroke-width: 1.5;" x1="266" x2="365" y1="280.5383" y2="280.5383"/><text fill="#000000" font-family="sans-serif" font-size="14" lengthAdjust="spacingAndGlyphs" textLength="86" x="270" y="274.5852">specification</text><path d="M88,98.61 C88,113.75 88,135.19 88,151.87 " fill="none" style="stroke: #A80036; stroke-width: 1.0;"/><polygon fill="#A80036" points="88,156.72,92,147.72,88,151.72,84,147.72,88,156.72" style="stroke: #A80036; stroke-width: 1.0;"/><path d="M88,198.1 C88,213.24 88,234.68 88,251.36 " fill="none" style="stroke: #A80036; stroke-width: 1.0;"/><polygon fill="#A80036" points="88,256.21,92,247.21,88,251.21,84,247.21,88,256.21" style="stroke: #A80036; stroke-width: 1.0;"/><path d="M110.25,297.82 C128.77,313.65 155.2,336.26 174.94,353.14 " fill="none" style="stroke: #A80036; stroke-width: 1.0;"/><polygon fill="#A80036" points="178.65,356.32,174.4006,347.4351,174.8467,353.0743,169.2074,353.5204,178.65,356.32" style="stroke: #A80036; stroke-width: 1.0;"/><path d="M202,397.08 C202,412.22 202,433.66 202,450.33 " fill="none" style="stroke: #A80036; stroke-width: 1.0;"/><polygon fill="#A80036" points="202,455.18,206,446.18,202,450.18,198,446.18,202,455.18" style="stroke: #A80036; stroke-width: 1.0;"/><path d="M191.2,496.56 C182.35,511.97 169.75,533.9 160.1,550.7 " fill="none" style="stroke: #A80036; stroke-width: 1.0;"/><polygon fill="#A80036" points="157.71,554.87,165.6667,549.0657,160.2045,550.5367,158.7335,545.0745,157.71,554.87" style="stroke: #A80036; stroke-width: 1.0;"/><path d="M216.08,496.56 C227.71,512.11 244.32,534.29 256.94,551.14 " fill="none" style="stroke: #A80036; stroke-width: 1.0;"/><polygon fill="#A80036" points="259.81,554.97,257.6264,545.3663,256.8168,550.9649,251.2182,550.1553,259.81,554.97" style="stroke: #A80036; stroke-width: 1.0;"/><path d="M202,297.59 C202,312.73 202,334.17 202,350.84 " fill="none" style="stroke: #A80036; stroke-width: 1.0;"/><polygon fill="#A80036" points="202,355.69,206,346.69,202,350.69,198,346.69,202,355.69" style="stroke: #A80036; stroke-width: 1.0;"/><path d="M300.19,297.82 C280.29,313.72 251.85,336.45 230.69,353.35 " fill="none" style="stroke: #A80036; stroke-width: 1.0;"/><polygon fill="#A80036" points="226.93,356.35,236.4588,353.8597,230.8371,353.23,231.4669,347.6083,226.93,356.35" style="stroke: #A80036; stroke-width: 1.0;"/></g></svg>
