<?xml version="1.0" encoding="UTF-8" standalone="yes"?><svg xmlns="http://www.w3.org/2000/svg" xmlns:xlink="http://www.w3.org/1999/xlink" height="360px" style="width:1123px;height:360px;" version="1.1" viewBox="0 0 1123 360" width="1123px"><defs><filter height="300%" id="f1" width="300%" x="-1" y="-1"><feGaussianBlur result="blurOut" stdDeviation="2.0"/><feColorMatrix in="blurOut" result="blurOut2" type="matrix" values="0 0 0 0 0 0 0 0 0 0 0 0 0 0 0 0 0 0 .4 0"/><feOffset dx="4.0" dy="4.0" in="blurOut2" result="blurOut3"/><feBlend in="SourceGraphic" in2="blurOut3" mode="normal"/></filter></defs><g><rect fill="#FFFFFF" filter="url(#f1)" height="214.4844" style="stroke: #A80036; stroke-width: 1.0;" width="10" x="399.5" y="98.7988"/><rect fill="#FFFFFF" filter="url(#f1)" height="185.1738" style="stroke: #A80036; stroke-width: 1.0;" width="10" x="561.5" y="128.1094"/><rect fill="#FFFFFF" filter="url(#f1)" height="126.5527" style="stroke: #A80036; stroke-width: 1.0;" width="10" x="712.5" y="186.7305"/><rect fill="#FFFFFF" filter="url(#f1)" height="29.3105" style="stroke: #A80036; stroke-width: 1.0;" width="10" x="882" y="216.041"/><line style="stroke: #A80036; stroke-width: 1.0; stroke-dasharray: 5.0,5.0;" x1="64" x2="64" y1="38.4883" y2="322.2832"/><line style="stroke: #A80036; stroke-width: 1.0; stroke-dasharray: 5.0,5.0;" x1="200" x2="200" y1="38.4883" y2="322.2832"/><line style="stroke: #A80036; stroke-width: 1.0; stroke-dasharray: 5.0,5.0;" x1="404" x2="404" y1="38.4883" y2="322.2832"/><line style="stroke: #A80036; stroke-width: 1.0; stroke-dasharray: 5.0,5.0;" x1="566" x2="566" y1="38.4883" y2="322.2832"/><line style="stroke: #A80036; stroke-width: 1.0; stroke-dasharray: 5.0,5.0;" x1="717" x2="717" y1="38.4883" y2="322.2832"/><line style="stroke: #A80036; stroke-width: 1.0; stroke-dasharray: 5.0,5.0;" x1="887" x2="887" y1="38.4883" y2="322.2832"/><line style="stroke: #A80036; stroke-width: 1.0; stroke-dasharray: 5.0,5.0;" x1="1077.5" x2="1077.5" y1="38.4883" y2="322.2832"/><rect fill="#FEFECE" filter="url(#f1)" height="30.4883" style="stroke: #A80036; stroke-width: 1.5;" width="109" x="8" y="3"/><text fill="#000000" font-family="sans-serif" font-size="14" lengthAdjust="spacingAndGlyphs" textLength="95" x="15" y="23.5352">Пользователь</text><rect fill="#FEFECE" filter="url(#f1)" height="30.4883" style="stroke: #A80036; stroke-width: 1.5;" width="109" x="8" y="321.2832"/><text fill="#000000" font-family="sans-serif" font-size="14" lengthAdjust="spacingAndGlyphs" textLength="95" x="15" y="341.8184">Пользователь</text><rect fill="#FEFECE" filter="url(#f1)" height="30.4883" style="stroke: #A80036; stroke-width: 1.5;" width="77" x="160" y="3"/><text fill="#000000" font-family="sans-serif" font-size="14" lengthAdjust="spacingAndGlyphs" textLength="63" x="167" y="23.5352">Frontend</text><rect fill="#FEFECE" filter="url(#f1)" height="30.4883" style="stroke: #A80036; stroke-width: 1.5;" width="77" x="160" y="321.2832"/><text fill="#000000" font-family="sans-serif" font-size="14" lengthAdjust="spacingAndGlyphs" textLength="63" x="167" y="341.8184">Frontend</text><rect fill="#FEFECE" filter="url(#f1)" height="30.4883" style="stroke: #A80036; stroke-width: 1.5;" width="165" x="320" y="3"/><text fill="#000000" font-family="sans-serif" font-size="14" lengthAdjust="spacingAndGlyphs" textLength="151" x="327" y="23.5352">TransactionController</text><rect fill="#FEFECE" filter="url(#f1)" height="30.4883" style="stroke: #A80036; stroke-width: 1.5;" width="165" x="320" y="321.2832"/><text fill="#000000" font-family="sans-serif" font-size="14" lengthAdjust="spacingAndGlyphs" textLength="151" x="327" y="341.8184">TransactionController</text><rect fill="#FEFECE" filter="url(#f1)" height="30.4883" style="stroke: #A80036; stroke-width: 1.5;" width="131" x="499" y="3"/><text fill="#000000" font-family="sans-serif" font-size="14" lengthAdjust="spacingAndGlyphs" textLength="117" x="506" y="23.5352">ValidationService</text><rect fill="#FEFECE" filter="url(#f1)" height="30.4883" style="stroke: #A80036; stroke-width: 1.5;" width="131" x="499" y="321.2832"/><text fill="#000000" font-family="sans-serif" font-size="14" lengthAdjust="spacingAndGlyphs" textLength="117" x="506" y="341.8184">ValidationService</text><rect fill="#FEFECE" filter="url(#f1)" height="30.4883" style="stroke: #A80036; stroke-width: 1.5;" width="143" x="644" y="3"/><text fill="#000000" font-family="sans-serif" font-size="14" lengthAdjust="spacingAndGlyphs" textLength="129" x="651" y="23.5352">TransactionService</text><rect fill="#FEFECE" filter="url(#f1)" height="30.4883" style="stroke: #A80036; stroke-width: 1.5;" width="143" x="644" y="321.2832"/><text fill="#000000" font-family="sans-serif" font-size="14" lengthAdjust="spacingAndGlyphs" textLength="129" x="651" y="341.8184">TransactionService</text><rect fill="#FEFECE" filter="url(#f1)" height="30.4883" style="stroke: #A80036; stroke-width: 1.5;" width="168" x="801" y="3"/><text fill="#000000" font-family="sans-serif" font-size="14" lengthAdjust="spacingAndGlyphs" textLength="154" x="808" y="23.5352">TransactionRepository</text><rect fill="#FEFECE" filter="url(#f1)" height="30.4883" style="stroke: #A80036; stroke-width: 1.5;" width="168" x="801" y="321.2832"/><text fill="#000000" font-family="sans-serif" font-size="14" lengthAdjust="spacingAndGlyphs" textLength="154" x="808" y="341.8184">TransactionRepository</text><rect fill="#FEFECE" filter="url(#f1)" height="30.4883" style="stroke: #A80036; stroke-width: 1.5;" width="77" x="1037.5" y="3"/><text fill="#000000" font-family="sans-serif" font-size="14" lengthAdjust="spacingAndGlyphs" textLength="63" x="1044.5" y="23.5352">Database</text><rect fill="#FEFECE" filter="url(#f1)" height="30.4883" style="stroke: #A80036; stroke-width: 1.5;" width="77" x="1037.5" y="321.2832"/><text fill="#000000" font-family="sans-serif" font-size="14" lengthAdjust="spacingAndGlyphs" textLength="63" x="1044.5" y="341.8184">Database</text><rect fill="#FFFFFF" filter="url(#f1)" height="214.4844" style="stroke: #A80036; stroke-width: 1.0;" width="10" x="399.5" y="98.7988"/><rect fill="#FFFFFF" filter="url(#f1)" height="185.1738" style="stroke: #A80036; stroke-width: 1.0;" width="10" x="561.5" y="128.1094"/><rect fill="#FFFFFF" filter="url(#f1)" height="126.5527" style="stroke: #A80036; stroke-width: 1.0;" width="10" x="712.5" y="186.7305"/><rect fill="#FFFFFF" filter="url(#f1)" height="29.3105" style="stroke: #A80036; stroke-width: 1.0;" width="10" x="882" y="216.041"/><polygon fill="#A80036" points="188.5,65.4883,198.5,69.4883,188.5,73.4883,192.5,69.4883" style="stroke: #A80036; stroke-width: 1.0;"/><line style="stroke: #A80036; stroke-width: 1.0;" x1="64.5" x2="194.5" y1="69.4883" y2="69.4883"/><text fill="#000000" font-family="sans-serif" font-size="13" lengthAdjust="spacingAndGlyphs" textLength="112" x="71.5" y="65.0566">Заполняет форму</text><polygon fill="#A80036" points="387.5,94.7988,397.5,98.7988,387.5,102.7988,391.5,98.7988" style="stroke: #A80036; stroke-width: 1.0;"/><line style="stroke: #A80036; stroke-width: 1.0;" x1="200.5" x2="393.5" y1="98.7988" y2="98.7988"/><text fill="#000000" font-family="sans-serif" font-size="13" lengthAdjust="spacingAndGlyphs" textLength="180" x="207.5" y="94.3672">POST /api/transactions {dto}</text><polygon fill="#A80036" points="549.5,124.1094,559.5,128.1094,549.5,132.1094,553.5,128.1094" style="stroke: #A80036; stroke-width: 1.0;"/><line style="stroke: #A80036; stroke-width: 1.0;" x1="409.5" x2="555.5" y1="128.1094" y2="128.1094"/><text fill="#000000" font-family="sans-serif" font-size="13" lengthAdjust="spacingAndGlyphs" textLength="78" x="416.5" y="123.6777">validate(dto)</text><line style="stroke: #A80036; stroke-width: 1.0;" x1="409.5" x2="419.5" y1="157.4199" y2="153.4199"/><line style="stroke: #A80036; stroke-width: 1.0;" x1="409.5" x2="419.5" y1="157.4199" y2="161.4199"/><line style="stroke: #A80036; stroke-width: 1.0; stroke-dasharray: 2.0,2.0;" x1="409.5" x2="560.5" y1="157.4199" y2="157.4199"/><text fill="#000000" font-family="sans-serif" font-size="13" lengthAdjust="spacingAndGlyphs" textLength="18" x="426.5" y="152.9883">OK</text><polygon fill="#A80036" points="700.5,182.7305,710.5,186.7305,700.5,190.7305,704.5,186.7305" style="stroke: #A80036; stroke-width: 1.0;"/><line style="stroke: #A80036; stroke-width: 1.0;" x1="409.5" x2="706.5" y1="186.7305" y2="186.7305"/><text fill="#000000" font-family="sans-serif" font-size="13" lengthAdjust="spacingAndGlyphs" textLength="67" x="416.5" y="182.2988">create(dto)</text><polygon fill="#A80036" points="870,212.041,880,216.041,870,220.041,874,216.041" style="stroke: #A80036; stroke-width: 1.0;"/><line style="stroke: #A80036; stroke-width: 1.0;" x1="722.5" x2="876" y1="216.041" y2="216.041"/><text fill="#000000" font-family="sans-serif" font-size="13" lengthAdjust="spacingAndGlyphs" textLength="72" x="729.5" y="211.6094">save(entity)</text><polygon fill="#A80036" points="1066,241.3516,1076,245.3516,1066,249.3516,1070,245.3516" style="stroke: #A80036; stroke-width: 1.0;"/><line style="stroke: #A80036; stroke-width: 1.0;" x1="887" x2="1072" y1="245.3516" y2="245.3516"/><text fill="#000000" font-family="sans-serif" font-size="13" lengthAdjust="spacingAndGlyphs" textLength="162" x="894" y="240.9199">INSERT INTO transactions</text><line style="stroke: #A80036; stroke-width: 1.0;" x1="409.5" x2="419.5" y1="274.6621" y2="270.6621"/><line style="stroke: #A80036; stroke-width: 1.0;" x1="409.5" x2="419.5" y1="274.6621" y2="278.6621"/><line style="stroke: #A80036; stroke-width: 1.0; stroke-dasharray: 2.0,2.0;" x1="409.5" x2="711.5" y1="274.6621" y2="274.6621"/><text fill="#000000" font-family="sans-serif" font-size="13" lengthAdjust="spacingAndGlyphs" textLength="69" x="426.5" y="270.2305">createdDto</text><line style="stroke: #A80036; stroke-width: 1.0;" x1="200.5" x2="210.5" y1="303.9727" y2="299.9727"/><line style="stroke: #A80036; stroke-width: 1.0;" x1="200.5" x2="210.5" y1="303.9727" y2="307.9727"/><line style="stroke: #A80036; stroke-width: 1.0; stroke-dasharray: 2.0,2.0;" x1="200.5" x2="398.5" y1="303.9727" y2="303.9727"/><text fill="#000000" font-family="sans-serif" font-size="13" lengthAdjust="spacingAndGlyphs" textLength="76" x="217.5" y="299.541">201 Created</text></g></svg>
