<?xml version="1.0" encoding="UTF-8" standalone="yes"?><svg xmlns="http://www.w3.org/2000/svg" xmlns:xlink="http://www.w3.org/1999/xlink" height="454px" style="width:1059px;height:454px;" version="1.1" viewBox="0 0 1059 454" width="1059px"><defs><filter height="300%" id="f1" width="300%" x="-1" y="-1"><feGaussianBlur result="blurOut" stdDeviation="2.0"/><feColorMatrix in="blurOut" result="blurOut2" type="matrix" values="0 0 0 0 0 0 0 0 0 0 0 0 0 0 0 0 0 0 .4 0"/><feOffset dx="4.0" dy="4.0" in="blurOut2" result="blurOut3"/><feBlend in="SourceGraphic" in2="blurOut3" mode="normal"/></filter></defs><g><rect fill="#FFFFFF" filter="url(#f1)" height="243.7949" style="stroke: #A80036; stroke-width: 1.0;" width="10" x="293.5" y="117.4883"/><rect fill="#FFFFFF" filter="url(#f1)" height="29.3105" style="stroke: #A80036; stroke-width: 1.0;" width="10" x="468.5" y="146.7988"/><rect fill="#FFFFFF" filter="url(#f1)" height="87.9316" style="stroke: #A80036; stroke-width: 1.0;" width="10" x="721" y="264.041"/><rect fill="#FFFFFF" filter="url(#f1)" height="29.3105" style="stroke: #A80036; stroke-width: 1.0;" width="10" x="946" y="293.3516"/><line style="stroke: #A80036; stroke-width: 1.0; stroke-dasharray: 5.0,5.0;" x1="58" x2="58" y1="86.4883" y2="370.2832"/><line style="stroke: #A80036; stroke-width: 1.0; stroke-dasharray: 5.0,5.0;" x1="298" x2="298" y1="86.4883" y2="370.2832"/><line style="stroke: #A80036; stroke-width: 1.0; stroke-dasharray: 5.0,5.0;" x1="473.5" x2="473.5" y1="86.4883" y2="370.2832"/><line style="stroke: #A80036; stroke-width: 1.0; stroke-dasharray: 5.0,5.0;" x1="562.5" x2="562.5" y1="86.4883" y2="370.2832"/><line style="stroke: #A80036; stroke-width: 1.0; stroke-dasharray: 5.0,5.0;" x1="725.5" x2="725.5" y1="86.4883" y2="370.2832"/><line style="stroke: #A80036; stroke-width: 1.0; stroke-dasharray: 5.0,5.0;" x1="950.5" x2="950.5" y1="86.4883" y2="370.2832"/><text fill="#000000" font-family="sans-serif" font-size="14" lengthAdjust="spacingAndGlyphs" textLength="95" x="8" y="83.5352">Пользователь</text><ellipse cx="58.5" cy="13" fill="#FEFECE" filter="url(#f1)" rx="8" ry="8" style="stroke: #A80036; stroke-width: 2.0;"/><path d="M58.5,21 L58.5,48 M45.5,29 L71.5,29 M58.5,48 L45.5,63 M58.5,48 L71.5,63 " fill="#FEFECE" filter="url(#f1)" style="stroke: #A80036; stroke-width: 2.0;"/><text fill="#000000" font-family="sans-serif" font-size="14" lengthAdjust="spacingAndGlyphs" textLength="95" x="8" y="382.8184">Пользователь</text><ellipse cx="58.5" cy="395.7715" fill="#FEFECE" filter="url(#f1)" rx="8" ry="8" style="stroke: #A80036; stroke-width: 2.0;"/><path d="M58.5,403.7715 L58.5,430.7715 M45.5,411.7715 L71.5,411.7715 M58.5,430.7715 L45.5,445.7715 M58.5,430.7715 L71.5,445.7715 " fill="#FEFECE" filter="url(#f1)" style="stroke: #A80036; stroke-width: 2.0;"/><rect fill="#FEFECE" filter="url(#f1)" height="30.4883" style="stroke: #A80036; stroke-width: 1.5;" width="117" x="238" y="51"/><text fill="#000000" font-family="sans-serif" font-size="14" lengthAdjust="spacingAndGlyphs" textLength="103" x="245" y="71.5352">AuthController</text><rect fill="#FEFECE" filter="url(#f1)" height="30.4883" style="stroke: #A80036; stroke-width: 1.5;" width="117" x="238" y="369.2832"/><text fill="#000000" font-family="sans-serif" font-size="14" lengthAdjust="spacingAndGlyphs" textLength="103" x="245" y="389.8184">AuthController</text><rect fill="#FEFECE" filter="url(#f1)" height="30.4883" style="stroke: #A80036; stroke-width: 1.5;" width="74" x="434.5" y="51"/><text fill="#000000" font-family="sans-serif" font-size="14" lengthAdjust="spacingAndGlyphs" textLength="60" x="441.5" y="71.5352">Keycloak</text><rect fill="#FEFECE" filter="url(#f1)" height="30.4883" style="stroke: #A80036; stroke-width: 1.5;" width="74" x="434.5" y="369.2832"/><text fill="#000000" font-family="sans-serif" font-size="14" lengthAdjust="spacingAndGlyphs" textLength="60" x="441.5" y="389.8184">Keycloak</text><rect fill="#FEFECE" filter="url(#f1)" height="30.4883" style="stroke: #A80036; stroke-width: 1.5;" width="77" x="522.5" y="51"/><text fill="#000000" font-family="sans-serif" font-size="14" lengthAdjust="spacingAndGlyphs" textLength="63" x="529.5" y="71.5352">Frontend</text><rect fill="#FEFECE" filter="url(#f1)" height="30.4883" style="stroke: #A80036; stroke-width: 1.5;" width="77" x="522.5" y="369.2832"/><text fill="#000000" font-family="sans-serif" font-size="14" lengthAdjust="spacingAndGlyphs" textLength="63" x="529.5" y="389.8184">Frontend</text><rect fill="#FEFECE" filter="url(#f1)" height="30.4883" style="stroke: #A80036; stroke-width: 1.5;" width="71" x="688.5" y="51"/><text fill="#000000" font-family="sans-serif" font-size="14" lengthAdjust="spacingAndGlyphs" textLength="57" x="695.5" y="71.5352">Backend</text><rect fill="#FEFECE" filter="url(#f1)" height="30.4883" style="stroke: #A80036; stroke-width: 1.5;" width="71" x="688.5" y="369.2832"/><text fill="#000000" font-family="sans-serif" font-size="14" lengthAdjust="spacingAndGlyphs" textLength="57" x="695.5" y="389.8184">Backend</text><rect fill="#FEFECE" filter="url(#f1)" height="30.4883" style="stroke: #A80036; stroke-width: 1.5;" width="203" x="847.5" y="51"/><text fill="#000000" font-family="sans-serif" font-size="14" lengthAdjust="spacingAndGlyphs" textLength="189" x="854.5" y="71.5352">JwtAuthenticationConverter</text><rect fill="#FEFECE" filter="url(#f1)" height="30.4883" style="stroke: #A80036; stroke-width: 1.5;" width="203" x="847.5" y="369.2832"/><text fill="#000000" font-family="sans-serif" font-size="14" lengthAdjust="spacingAndGlyphs" textLength="189" x="854.5" y="389.8184">JwtAuthenticationConverter</text><rect fill="#FFFFFF" filter="url(#f1)" height="243.7949" style="stroke: #A80036; stroke-width: 1.0;" width="10" x="293.5" y="117.4883"/><rect fill="#FFFFFF" filter="url(#f1)" height="29.3105" style="stroke: #A80036; stroke-width: 1.0;" width="10" x="468.5" y="146.7988"/><rect fill="#FFFFFF" filter="url(#f1)" height="87.9316" style="stroke: #A80036; stroke-width: 1.0;" width="10" x="721" y="264.041"/><rect fill="#FFFFFF" filter="url(#f1)" height="29.3105" style="stroke: #A80036; stroke-width: 1.0;" width="10" x="946" y="293.3516"/><polygon fill="#A80036" points="281.5,113.4883,291.5,117.4883,281.5,121.4883,285.5,117.4883" style="stroke: #A80036; stroke-width: 1.0;"/><line style="stroke: #A80036; stroke-width: 1.0;" x1="58.5" x2="287.5" y1="117.4883" y2="117.4883"/><text fill="#000000" font-family="sans-serif" font-size="13" lengthAdjust="spacingAndGlyphs" textLength="110" x="65.5" y="113.0566">Открывает /login</text><polygon fill="#A80036" points="456.5,142.7988,466.5,146.7988,456.5,150.7988,460.5,146.7988" style="stroke: #A80036; stroke-width: 1.0;"/><line style="stroke: #A80036; stroke-width: 1.0;" x1="303.5" x2="462.5" y1="146.7988" y2="146.7988"/><text fill="#000000" font-family="sans-serif" font-size="13" lengthAdjust="spacingAndGlyphs" textLength="79" x="310.5" y="142.3672">POST /token</text><polygon fill="#A80036" points="314.5,172.1094,304.5,176.1094,314.5,180.1094,310.5,176.1094" style="stroke: #A80036; stroke-width: 1.0;"/><line style="stroke: #A80036; stroke-width: 1.0; stroke-dasharray: 2.0,2.0;" x1="308.5" x2="472.5" y1="176.1094" y2="176.1094"/><text fill="#000000" font-family="sans-serif" font-size="13" lengthAdjust="spacingAndGlyphs" textLength="141" x="320.5" y="171.6777">Возвращает JWT токен</text><polygon fill="#A80036" points="69.5,201.4199,59.5,205.4199,69.5,209.4199,65.5,205.4199" style="stroke: #A80036; stroke-width: 1.0;"/><line style="stroke: #A80036; stroke-width: 1.0; stroke-dasharray: 2.0,2.0;" x1="63.5" x2="292.5" y1="205.4199" y2="205.4199"/><text fill="#000000" font-family="sans-serif" font-size="13" lengthAdjust="spacingAndGlyphs" textLength="211" x="75.5" y="200.9883">Токен сохраняется (localStorage)</text><polygon fill="#A80036" points="551,230.7305,561,234.7305,551,238.7305,555,234.7305" style="stroke: #A80036; stroke-width: 1.0;"/><line style="stroke: #A80036; stroke-width: 1.0;" x1="58.5" x2="557" y1="234.7305" y2="234.7305"/><text fill="#000000" font-family="sans-serif" font-size="13" lengthAdjust="spacingAndGlyphs" textLength="427" x="65.5" y="230.2988">Перезапускает запрос с заголовком Authorization: Bearer &lt;token&gt;</text><polygon fill="#A80036" points="709,260.041,719,264.041,709,268.041,713,264.041" style="stroke: #A80036; stroke-width: 1.0;"/><line style="stroke: #A80036; stroke-width: 1.0;" x1="563" x2="715" y1="264.041" y2="264.041"/><text fill="#000000" font-family="sans-serif" font-size="13" lengthAdjust="spacingAndGlyphs" textLength="139" x="570" y="259.6094">GET /api/transactions</text><polygon fill="#A80036" points="934,289.3516,944,293.3516,934,297.3516,938,293.3516" style="stroke: #A80036; stroke-width: 1.0;"/><line style="stroke: #A80036; stroke-width: 1.0;" x1="731" x2="940" y1="293.3516" y2="293.3516"/><text fill="#000000" font-family="sans-serif" font-size="13" lengthAdjust="spacingAndGlyphs" textLength="108" x="738" y="288.9199">Проверяет токен</text><polygon fill="#A80036" points="742,318.6621,732,322.6621,742,326.6621,738,322.6621" style="stroke: #A80036; stroke-width: 1.0;"/><line style="stroke: #A80036; stroke-width: 1.0; stroke-dasharray: 2.0,2.0;" x1="736" x2="950" y1="322.6621" y2="322.6621"/><text fill="#000000" font-family="sans-serif" font-size="13" lengthAdjust="spacingAndGlyphs" textLength="191" x="748" y="318.2305">Извлекает роль пользователя</text><polygon fill="#A80036" points="574,347.9727,564,351.9727,574,355.9727,570,351.9727" style="stroke: #A80036; stroke-width: 1.0;"/><line style="stroke: #A80036; stroke-width: 1.0; stroke-dasharray: 2.0,2.0;" x1="568" x2="725" y1="351.9727" y2="351.9727"/><text fill="#000000" font-family="sans-serif" font-size="13" lengthAdjust="spacingAndGlyphs" textLength="126" x="580" y="347.541">Возвращает данные</text></g></svg>
